<?xml version="1.0" encoding="utf-8"?>
<!-- Generator: Adobe Illustrator 16.0.0, SVG Export Plug-In . SVG Version: 6.00 Build 0)  -->
<!DOCTYPE svg PUBLIC "-//W3C//DTD SVG 1.1//EN" "http://www.w3.org/Graphics/SVG/1.1/DTD/svg11.dtd">
<svg version="1.1" id="Layer_1" xmlns="http://www.w3.org/2000/svg" xmlns:xlink="http://www.w3.org/1999/xlink" x="0px" y="0px"
	 width="236.562px" height="38.924px" viewBox="0 0 236.562 38.924" enable-background="new 0 0 236.562 38.924"
	 xml:space="preserve">
<path fill-rule="evenodd" clip-rule="evenodd" fill="#225A1F" d="M38.55,9.286c0.576-0.687,1.118-1.338,1.491-1.788
	c-0.246,0.032-0.49,0.075-0.731,0.126c-0.312,0.067-0.619,0.151-0.917,0.25c-0.23,0.076-0.457,0.16-0.675,0.253l0,0
	c-0.202,0.086-0.403,0.181-0.599,0.282l0.187,2.346C37.717,10.273,38.146,9.767,38.55,9.286 M37.439,11.607l3.045-0.804
	c0.074-0.325,0.126-0.655,0.16-0.987c0.036-0.35,0.05-0.702,0.041-1.055c-0.006-0.31,0.018-0.588,0.053-0.821
	c0.02-0.125,0.042-0.237,0.064-0.335c-0.354,0.43-1.057,1.277-1.825,2.191C38.472,10.397,37.934,11.033,37.439,11.607z
	 M38.161,13.623c0.599-0.167,1.167-0.393,1.529-0.707c0.131-0.239,0.25-0.485,0.355-0.736c0.091-0.213,0.17-0.428,0.241-0.647
	l-3.613,0.954l-0.208,0.233h-0.001l-0.184,0.203v0l-0.019,0.021c-0.177,0.19-0.357,0.411-0.539,0.647
	c-0.157,0.204-0.312,0.42-0.464,0.639c0.114-0.031,0.239-0.062,0.375-0.092c0.212-0.048,0.448-0.095,0.706-0.139l0.066-0.01
	C36.904,13.903,37.551,13.792,38.161,13.623z M34.387,14.355l0.146-3.814c-0.458,0.594-0.817,1.261-1.053,1.989
	c-0.231,0.712-0.342,1.487-0.306,2.307c0.011,0.243,0.034,0.49,0.073,0.743c0.024,0.174,0.057,0.352,0.096,0.53
	c0.189-0.357,0.332-0.616,0.478-0.86C33.984,14.975,34.151,14.716,34.387,14.355z M36.705,11.456l-0.215-2.685
	c-0.242,0.155-0.475,0.32-0.698,0.497c-0.205,0.163-0.401,0.335-0.587,0.519h0.012l-0.003,0.085l-0.133,3.484
	c0.094-0.126,0.189-0.25,0.285-0.368c0.141-0.176,0.279-0.339,0.415-0.488l0.058-0.062l0.161-0.177
	c0.064-0.07,0.138-0.154,0.222-0.248l-0.021-0.078l0.083-0.022l0.033-0.008l0.192-0.221L36.705,11.456z M36.251,16.786
	c0.093-0.037,0.184-0.076,0.275-0.116c1.018-0.449,1.88-1.08,2.583-1.835c0.749-0.807,1.315-1.755,1.69-2.778
	c0.385-1.05,0.567-2.179,0.541-3.311l-0.004-0.202c-0.024-1.088-0.041-1.859-0.169-2.015l-0.033-0.04l-0.051,0.009
	c-0.004,0.001-1.551,0.311-2.896,0.755c-0.824,0.272-1.602,0.656-2.303,1.134c-0.689,0.471-1.303,1.037-1.812,1.68
	c-0.53,0.671-0.947,1.429-1.216,2.26c-0.254,0.786-0.375,1.636-0.336,2.536c0.016,0.37,0.061,0.749,0.132,1.134
	c0.036,0.185,0.078,0.372,0.125,0.561l1.036,0.067l0.03-0.057c0.104-0.199,0.235-0.439,0.388-0.706
	c0.135-0.232,0.282-0.479,0.435-0.727c0.152-0.08,0.378-0.168,0.695-0.257c0.284-0.08,0.641-0.16,1.088-0.235l0.065-0.012
	c0.377-0.063,0.831-0.141,1.301-0.248c0.366-0.083,0.739-0.186,1.092-0.313l-0.037,0.043c-0.079,0.094-0.16,0.187-0.244,0.276
	c-0.609,0.656-1.353,1.21-2.223,1.616c-0.648,0.303-1.367,0.525-2.156,0.649L36.251,16.786z"/>
<path fill-rule="evenodd" clip-rule="evenodd" fill="#225A1F" d="M25.926,4.484c-0.546-1.079-1.057-2.102-1.408-2.808
	c0.301,0.133,0.598,0.276,0.887,0.431c0.378,0.201,0.743,0.419,1.093,0.654v0.001c0.269,0.181,0.532,0.372,0.783,0.57h0.001
	c0.233,0.185,0.462,0.378,0.683,0.579L27.107,6.8C26.716,6.039,26.309,5.241,25.926,4.484 M26.714,7.823l-3.631-2.142
	c-0.005-0.436,0.014-0.872,0.06-1.304c0.046-0.453,0.123-0.903,0.227-1.345c0.091-0.389,0.134-0.748,0.15-1.055
	c0.009-0.165,0.01-0.315,0.007-0.446c0.333,0.672,0.999,2.003,1.725,3.438C25.731,5.915,26.242,6.917,26.714,7.823z M25.269,10.096
	c-0.711-0.432-1.367-0.926-1.742-1.458c-0.103-0.349-0.188-0.705-0.255-1.06c-0.056-0.301-0.1-0.604-0.131-0.906l4.307,2.543
	l0.201,0.372h0.001l0.178,0.324v0.001l0.017,0.032c0.172,0.306,0.343,0.651,0.509,1.017c0.143,0.315,0.283,0.646,0.417,0.979
	c-0.137-0.083-0.287-0.168-0.448-0.257c-0.254-0.139-0.539-0.285-0.853-0.437l-0.082-0.038
	C26.781,10.915,25.995,10.538,25.269,10.096z M29.94,15.414L29.94,15.414l0.057,0.215c-1.209-0.489-2.254-1.126-3.139-1.874
	c-0.993-0.836-1.783-1.812-2.379-2.863c-0.082-0.145-0.16-0.292-0.234-0.438l-0.034-0.066c0.411,0.289,0.855,0.558,1.295,0.798
	c0.563,0.309,1.116,0.575,1.574,0.795l0.081,0.039c0.543,0.261,0.973,0.495,1.31,0.7c0.377,0.229,0.639,0.425,0.809,0.582
	c0.128,0.37,0.248,0.736,0.356,1.079C29.759,14.771,29.862,15.124,29.94,15.414z M29.839,12.418l0.824-4.862
	c0.421,0.919,0.699,1.894,0.803,2.896c0.104,0.986,0.038,2.003-0.225,3.024c-0.077,0.301-0.173,0.605-0.287,0.91
	c-0.078,0.211-0.166,0.422-0.263,0.633c-0.142-0.521-0.255-0.9-0.375-1.263C30.183,13.351,30.041,12.964,29.839,12.418z
	 M27.68,7.904l0.981-3.305c0.265,0.284,0.516,0.58,0.751,0.885l0,0c0.214,0.281,0.416,0.571,0.604,0.872l-0.017-0.005l-0.018,0.109
	l-0.753,4.443c-0.084-0.193-0.171-0.384-0.26-0.569c-0.131-0.272-0.263-0.532-0.396-0.77l-0.056-0.099l0,0l-0.156-0.284
	c-0.062-0.112-0.133-0.246-0.214-0.396l0.046-0.089l-0.098-0.059l-0.039-0.022L27.87,8.266L27.68,7.904z M30.936,16.44
	c0.255-0.432,0.473-0.867,0.658-1.304c0.192-0.46,0.348-0.922,0.466-1.382c0.288-1.122,0.358-2.238,0.246-3.322
	c-0.12-1.147-0.445-2.259-0.937-3.301c-0.472-1.001-1.097-1.941-1.842-2.792c-0.758-0.862-1.638-1.634-2.605-2.283
	c-1.58-1.061-3.45-2.022-3.456-2.025L23.405,0l-0.052,0.037c-0.203,0.151-0.428,1.116-0.747,2.48l-0.06,0.254
	c-0.333,1.417-0.398,2.908-0.19,4.376c0.202,1.427,0.666,2.834,1.397,4.129c0.686,1.213,1.609,2.328,2.772,3.271
	c0.874,0.708,1.884,1.318,3.033,1.803L30.936,16.44z"/>
<path fill="#B5B7B8" d="M95.872,29.843l0.914,0.811c-2.068,1.88-4.493,2.823-7.285,2.823c-3.002,0-5.554-1.061-7.668-3.176
	c-2.11-2.118-3.159-4.68-3.159-7.694c0-2.992,1.049-5.555,3.159-7.684c2.114-2.126,4.666-3.187,7.668-3.187
	c2.792,0,5.217,0.943,7.285,2.833l-0.914,0.814c-1.812-1.614-3.937-2.418-6.372-2.418c-2.654,0-4.916,0.938-6.8,2.824
	c-1.879,1.881-2.817,4.151-2.817,6.817c0,2.669,0.938,4.952,2.817,6.832c1.884,1.881,4.146,2.819,6.8,2.819
	C91.935,32.257,94.059,31.453,95.872,29.843"/>
<polygon fill="#B5B7B8" points="100.565,23.206 100.565,33.22 99.279,33.22 99.279,11.987 100.565,11.987 100.565,22 112.168,22 
	112.168,11.987 113.449,11.987 113.449,33.22 112.168,33.22 112.168,23.206 "/>
<path fill="#B5B7B8" d="M124.574,11.987l8.222,21.233h-1.345l-3.622-9.337h-7.839l-3.687,9.337h-1.362l8.322-21.233H124.574z
	 M127.366,22.693l-3.447-8.903l-3.462,8.903H127.366z"/>
<rect x="134.799" y="11.987" fill="#B5B7B8" width="1.286" height="21.233"/>
<polygon fill="#B5B7B8" points="158.388,11.987 152.507,19.961 162.415,33.22 160.86,33.22 151.692,20.95 149.258,24.226 
	149.258,33.22 147.974,33.22 147.974,11.987 149.258,11.987 149.258,22.155 156.834,11.987 "/>
<polygon fill="#B5B7B8" points="164.98,23.206 164.98,33.22 163.695,33.22 163.695,11.987 164.98,11.987 164.98,22 176.583,22 
	176.583,11.987 177.863,11.987 177.863,33.22 176.583,33.22 176.583,23.206 "/>
<path fill="#B5B7B8" d="M188.992,11.987l8.221,21.233h-1.345l-3.623-9.337h-7.839l-3.687,9.337h-1.362l8.32-21.233H188.992z
	 M191.781,22.693l-3.446-8.903l-3.463,8.903H191.781z"/>
<polygon fill="#B5B7B8" points="200.626,11.987 215.692,31.766 215.692,11.987 216.978,11.987 216.978,33.22 215.003,33.22 
	200.293,13.909 200.293,33.22 199.007,33.22 199.007,11.987 "/>
<path fill="#B5B7B8" d="M228.341,11.987l8.222,21.233h-1.346l-3.622-9.337h-7.839l-3.688,9.337h-1.362l8.32-21.233H228.341z
	 M231.13,22.693l-3.446-8.903l-3.463,8.903H231.13z"/>
<path fill-rule="evenodd" clip-rule="evenodd" fill="#225A1F" d="M22.577,30.267c-11.575-2.295-10.643,4.357,10.101,7.043
	C18.701,40.203,4.441,41.285,0,21.956C10.751,32.138,19.266,23.576,22.577,30.267"/>
<path fill-rule="evenodd" clip-rule="evenodd" fill="#748D27" d="M29.556,24.769c-6.741-8.011-9.787-2.888,3.085,10.482
	C21.359,29.498,10.887,22.334,18.537,6.489C20.331,19.502,30.976,18.299,29.556,24.769"/>
<path fill-rule="evenodd" clip-rule="evenodd" fill="#748D27" d="M35.807,24.769c6.74-8.011,9.785-2.888-3.085,10.482
	c11.281-5.754,21.754-12.917,14.104-28.762C45.032,19.502,34.386,18.299,35.807,24.769"/>
<path fill-rule="evenodd" clip-rule="evenodd" fill="#748D27" d="M5.252,15.48c2.054,0,3.718,1.596,3.718,3.563
	c0,1.967-1.664,3.562-3.718,3.562c-2.053,0-3.717-1.595-3.717-3.562C1.535,17.076,3.199,15.48,5.252,15.48"/>
<path fill-rule="evenodd" clip-rule="evenodd" fill="#748D27" d="M59.165,15.48c2.054,0,3.718,1.596,3.718,3.563
	c0,1.967-1.664,3.562-3.718,3.562c-2.053,0-3.718-1.595-3.718-3.562C55.447,17.076,57.112,15.48,59.165,15.48"/>
<path fill-rule="evenodd" clip-rule="evenodd" fill="#225A1F" d="M42.987,30.267c11.577-2.295,10.644,4.357-10.101,7.043
	c13.979,2.893,28.237,3.974,32.678-15.355C54.812,32.138,46.298,23.576,42.987,30.267"/>
</svg>
