<?xml version="1.0" encoding="utf-8"?>
<!-- Generator: Adobe Illustrator 16.0.0, SVG Export Plug-In . SVG Version: 6.00 Build 0)  -->
<!DOCTYPE svg PUBLIC "-//W3C//DTD SVG 1.1//EN" "http://www.w3.org/Graphics/SVG/1.1/DTD/svg11.dtd">
<svg version="1.1" id="Layer_1" xmlns="http://www.w3.org/2000/svg" xmlns:xlink="http://www.w3.org/1999/xlink" x="0px" y="0px"
	 width="17.701px" height="18.57px" viewBox="0 0 17.701 18.57" enable-background="new 0 0 17.701 18.57" xml:space="preserve">
<g id="Your_Icon">
	<g>
		<path fill="#FFFFFF" d="M17.136,15.191l-3.164-3.164c0.859-1.238,1.365-2.741,1.365-4.359C15.337,3.439,11.896,0,7.668,0
			C3.44,0,0,3.439,0,7.667c0,4.229,3.44,7.669,7.668,7.669c1.166,0,2.271-0.262,3.26-0.729l3.396,3.397
			c0.367,0.364,0.855,0.565,1.375,0.565c0.533,0,1.035-0.21,1.416-0.589C17.89,17.206,17.898,15.954,17.136,15.191z M3.067,7.667
			c0-2.536,2.064-4.601,4.601-4.601c2.538,0,4.602,2.065,4.602,4.601c0,2.537-2.063,4.603-4.602,4.603
			C5.131,12.27,3.067,10.205,3.067,7.667z"/>
	</g>
</g>
</svg>
