<?xml version="1.0" encoding="utf-8"?>
<!-- Generator: Adobe Illustrator 16.0.0, SVG Export Plug-In . SVG Version: 6.00 Build 0)  -->
<!DOCTYPE svg PUBLIC "-//W3C//DTD SVG 1.1//EN" "http://www.w3.org/Graphics/SVG/1.1/DTD/svg11.dtd">
<svg version="1.1" id="Layer_1" xmlns="http://www.w3.org/2000/svg" xmlns:xlink="http://www.w3.org/1999/xlink" x="0px" y="0px"
	 width="35.02px" height="30.147px" viewBox="0 0 35.02 30.147" enable-background="new 0 0 35.02 30.147" xml:space="preserve">
<path fill="#FFFFFF" d="M8.177,30.147c-0.001,0-0.006,0-0.007,0c-1,0-1.616-0.428-1.956-0.789c-0.842-0.889-0.798-2.16-0.79-2.305
	l-0.001-2.189l-0.275-0.006C2.32,24.858,0,22.536,0,19.684v-8.126c0-2.852,2.321-5.173,5.173-5.173h18.306
	c2.851,0,5.172,2.321,5.172,5.173v8.127c0,2.869-2.321,5.203-5.172,5.203h-8.742l-3.468,3.56C10.76,28.998,9.7,30.144,8.177,30.147z
	 M5.172,8.485c-1.694,0-3.071,1.379-3.071,3.073v8.127c0,1.693,1.377,3.072,3.071,3.072l1.326,0.029
	c0.57,0.014,1.025,0.48,1.025,1.051v3.275c-0.007,0.216,0.04,0.621,0.219,0.805c0.033,0.035,0.124,0.129,0.427,0.129v1.051
	l0.003-1.051c0.606-0.002,1.175-0.617,1.551-1.024l0.196-0.208l3.624-3.71c0.197-0.202,0.468-0.315,0.75-0.315h9.183
	c1.694,0,3.072-1.393,3.072-3.104v-8.127c0-1.693-1.378-3.073-3.072-3.073H5.172z"/>
<path fill="#FFFFFF" d="M30.42,16.198c-0.58,0-1.051-0.471-1.051-1.051s0.471-1.051,1.051-1.051c1.377,0,2.498-1.12,2.498-2.498V6
	c0-2.733-1.166-3.899-3.899-3.899H14.66c-1.376,0-2.497,1.121-2.497,2.499c0,0.58-0.471,1.05-1.051,1.05s-1.051-0.471-1.051-1.05
	c0-2.537,2.063-4.6,4.598-4.6h14.359c3.925,0,6.001,2.075,6.001,6v5.598C35.02,14.136,32.957,16.198,30.42,16.198z"/>
<path fill="#FFFFFF" d="M19.798,14.912H7.365c-0.58,0-1.051-0.47-1.051-1.051c0-0.58,0.471-1.051,1.051-1.051h12.433
	c0.58,0,1.051,0.471,1.051,1.051C20.849,14.442,20.379,14.912,19.798,14.912z"/>
<path fill="#FFFFFF" d="M14.325,19.466h-6.96c-0.58,0-1.051-0.471-1.051-1.051s0.471-1.051,1.051-1.051h6.96
	c0.58,0,1.051,0.471,1.051,1.051S14.905,19.466,14.325,19.466z"/>
</svg>
