<?xml version="1.0" encoding="utf-8"?>
<!-- Generator: Adobe Illustrator 16.0.0, SVG Export Plug-In . SVG Version: 6.00 Build 0)  -->
<!DOCTYPE svg PUBLIC "-//W3C//DTD SVG 1.1//EN" "http://www.w3.org/Graphics/SVG/1.1/DTD/svg11.dtd">
<svg version="1.1" id="Layer_1" xmlns="http://www.w3.org/2000/svg" xmlns:xlink="http://www.w3.org/1999/xlink" x="0px" y="0px"
	 width="34px" height="34px" viewBox="-0.631 -5.089 34 34" enable-background="new -0.631 -5.089 34 34" xml:space="preserve">
<g>
	<path fill="#FFFFFF" d="M27.009,23.822H5.729C2.57,23.822,0,21.252,0,18.093V5.728C0,2.57,2.569,0,5.729,0h21.28
		c3.158,0,5.729,2.57,5.729,5.728v12.365C32.739,21.252,30.167,23.822,27.009,23.822z M5.729,1.838c-2.146,0-3.891,1.745-3.891,3.89
		v12.365c0,2.146,1.745,3.893,3.891,3.893h21.28c2.146,0,3.893-1.745,3.893-3.893V5.728c0-2.145-1.746-3.89-3.893-3.89H5.729z"/>
</g>
<g>
	<polygon fill="#FFFFFF" points="12.957,17.325 12.952,6.589 22.251,11.953 	"/>
</g>
</svg>
