<?xml version="1.0" encoding="utf-8"?>
<!-- Generator: Adobe Illustrator 16.0.0, SVG Export Plug-In . SVG Version: 6.00 Build 0)  -->
<!DOCTYPE svg PUBLIC "-//W3C//DTD SVG 1.1//EN" "http://www.w3.org/Graphics/SVG/1.1/DTD/svg11.dtd">
<svg version="1.1" id="Layer_1" xmlns="http://www.w3.org/2000/svg" xmlns:xlink="http://www.w3.org/1999/xlink" x="0px" y="0px"
	 width="32.817px" height="23.879px" viewBox="0 0 32.817 23.879" enable-background="new 0 0 32.817 23.879" xml:space="preserve">
<g>
	<path fill="#FFFFFF" d="M27.075,23.879H5.743C2.576,23.879,0,21.303,0,18.137V5.742C0,2.576,2.576,0,5.743,0h21.333
		c3.165,0,5.742,2.576,5.742,5.742v12.395C32.817,21.303,30.24,23.879,27.075,23.879z M5.743,1.842c-2.151,0-3.9,1.75-3.9,3.9
		v12.395c0,2.15,1.75,3.9,3.9,3.9h21.333c2.15,0,3.9-1.75,3.9-3.9V5.742c0-2.15-1.75-3.9-3.9-3.9H5.743z"/>
</g>
<g>
	<path fill="#FFFFFF" d="M16.707,19.091c-3.917,0-7.105-3.187-7.105-7.104s3.188-7.104,7.105-7.104c3.917,0,7.104,3.186,7.104,7.104
		S20.624,19.091,16.707,19.091z M16.707,6.725c-2.902,0-5.262,2.36-5.262,5.262c0,2.902,2.36,5.262,5.262,5.262
		c2.901,0,5.263-2.359,5.263-5.262C21.97,9.085,19.608,6.725,16.707,6.725z"/>
</g>
<g>
	<path fill="#FFFFFF" d="M27.598,6.725h-3.479c-0.508,0-0.921-0.412-0.921-0.921s0.413-0.921,0.921-0.921h3.479
		c0.509,0,0.921,0.412,0.921,0.921S28.106,6.725,27.598,6.725z"/>
</g>
</svg>
