<?xml version="1.0" encoding="utf-8"?>
<!-- Generator: Adobe Illustrator 16.0.0, SVG Export Plug-In . SVG Version: 6.00 Build 0)  -->
<!DOCTYPE svg PUBLIC "-//W3C//DTD SVG 1.1//EN" "http://www.w3.org/Graphics/SVG/1.1/DTD/svg11.dtd">
<svg version="1.1" id="Layer_1" xmlns="http://www.w3.org/2000/svg" xmlns:xlink="http://www.w3.org/1999/xlink" x="0px" y="0px"
	 width="33.979px" height="34.032px" viewBox="0 0 33.979 34.032" enable-background="new 0 0 33.979 34.032" xml:space="preserve">
<g>
	<path fill="#FFFFFF" d="M28.25,34.032H5.729C2.57,34.032,0,31.463,0,28.304V5.728C0,2.57,2.569,0,5.729,0H28.25
		c3.158,0,5.729,2.57,5.729,5.728v22.576C33.979,31.463,31.408,34.032,28.25,34.032z M5.729,1.838c-2.146,0-3.891,1.745-3.891,3.89
		v22.576c0,2.146,1.745,3.892,3.891,3.892H28.25c2.145,0,3.891-1.745,3.891-3.892V5.728c0-2.145-1.746-3.89-3.891-3.89H5.729z"/>
</g>
<path fill="#FFFFFF" d="M18.47,14.089l-0.153-1.408c-0.396-0.287-1.035-0.662-1.848-0.662c-1.299,0-2.024,0.64-2.024,1.718
	c0,2.532,7.283,1.894,7.283,6.403c0,2.947-2.091,4.642-5.632,4.642c-3.191,0-5.018-0.901-5.018-0.901l-0.066-4.006l2.42-0.154
	l0.287,2.355c0.615,0.176,1.297,0.308,2.024,0.308c1.98,0,2.641-0.814,2.641-1.804c0-2.355-7.262-1.584-7.262-6.49
	c0-2.553,1.958-4.401,4.818-4.401c1.035,0,2.025,0.462,2.751,0.923l0.44-0.704h1.915v4.182H18.47z"/>
</svg>
