<?xml version="1.0" encoding="utf-8"?>
<!-- Generator: Adobe Illustrator 16.0.0, SVG Export Plug-In . SVG Version: 6.00 Build 0)  -->
<!DOCTYPE svg PUBLIC "-//W3C//DTD SVG 1.1//EN" "http://www.w3.org/Graphics/SVG/1.1/DTD/svg11.dtd">
<svg version="1.1" id="Layer_1" xmlns="http://www.w3.org/2000/svg" xmlns:xlink="http://www.w3.org/1999/xlink" x="0px" y="0px"
	 width="34px" height="34px" viewBox="0.51 -1.927 34 34" enable-background="new 0.51 -1.927 34 34" xml:space="preserve">
<path fill="#FFFFFF" d="M8.477,29.662c-0.001,0-0.006,0-0.007,0c-0.968,0-1.564-0.414-1.893-0.764
	c-0.814-0.86-0.772-2.09-0.765-2.23L5.811,24.55l-0.267-0.007c-2.737,0-4.982-2.247-4.982-5.008v-7.865
	c0-2.76,2.246-5.006,5.007-5.006h17.718c2.76,0,5.006,2.247,5.006,5.006v7.866c0,2.777-2.246,5.036-5.006,5.036h-8.462l-3.356,3.446
	C10.977,28.551,9.951,29.659,8.477,29.662z M5.569,8.697c-1.64,0-2.973,1.335-2.973,2.974v7.866c0,1.64,1.333,2.974,2.973,2.974
	l1.283,0.028c0.551,0.014,0.992,0.465,0.992,1.018v3.169c-0.006,0.21,0.039,0.602,0.213,0.78c0.031,0.033,0.12,0.124,0.413,0.124
	v1.018l0.002-1.018c0.586-0.002,1.137-0.597,1.501-0.991l0.19-0.201l3.508-3.591c0.191-0.196,0.453-0.305,0.726-0.305h8.888
	c1.64,0,2.974-1.349,2.974-3.005v-7.866c0-1.638-1.334-2.974-2.974-2.974H5.569z"/>
<path fill="#FFFFFF" d="M30.005,16.162c-0.562,0-1.017-0.456-1.017-1.018c0-0.562,0.455-1.017,1.017-1.017
	c1.333,0,2.418-1.084,2.418-2.417V6.292c0-2.646-1.129-3.774-3.774-3.774H14.752c-1.332,0-2.417,1.085-2.417,2.418
	c0,0.562-0.457,1.016-1.018,1.016c-0.561,0-1.017-0.456-1.017-1.016c0-2.456,1.997-4.452,4.451-4.452h13.896
	c3.799,0,5.809,2.008,5.809,5.807v5.418C34.457,14.166,32.461,16.162,30.005,16.162z"/>
<path fill="#FFFFFF" d="M19.725,14.918H7.691c-0.561,0-1.018-0.456-1.018-1.018c0-0.561,0.457-1.017,1.018-1.017h12.034
	c0.562,0,1.017,0.457,1.017,1.017C20.741,14.462,20.287,14.918,19.725,14.918z"/>
<path fill="#FFFFFF" d="M14.428,19.325H7.691c-0.561,0-1.018-0.456-1.018-1.018s0.457-1.017,1.018-1.017h6.737
	c0.56,0,1.017,0.455,1.017,1.017S14.988,19.325,14.428,19.325z"/>
</svg>
