<?xml version="1.0" encoding="utf-8"?>
<!-- Generator: Adobe Illustrator 16.0.0, SVG Export Plug-In . SVG Version: 6.00 Build 0)  -->
<!DOCTYPE svg PUBLIC "-//W3C//DTD SVG 1.1//EN" "http://www.w3.org/Graphics/SVG/1.1/DTD/svg11.dtd">
<svg version="1.1" id="Layer_1" xmlns="http://www.w3.org/2000/svg" xmlns:xlink="http://www.w3.org/1999/xlink" x="0px" y="0px"
	 width="28px" height="27.996px" viewBox="0 0 28 27.996" enable-background="new 0 0 28 27.996" xml:space="preserve">
<g>
	<circle fill="#D42F33" cx="14" cy="14" r="14"/>
</g>
<g>
	<path fill="#FFFFFF" d="M9.757,18.911c-0.128,0-0.256-0.049-0.354-0.146c-0.195-0.195-0.195-0.512,0-0.707l8.484-8.485
		c0.195-0.195,0.512-0.195,0.707,0s0.195,0.512,0,0.707l-8.484,8.485C10.013,18.862,9.885,18.911,9.757,18.911z"/>
	<path fill="#FFFFFF" d="M18.241,18.911c-0.128,0-0.256-0.049-0.354-0.146l-8.484-8.485c-0.195-0.195-0.195-0.512,0-0.707
		s0.512-0.195,0.707,0l8.484,8.485c0.195,0.195,0.195,0.512,0,0.707C18.497,18.862,18.369,18.911,18.241,18.911z"/>
</g>
</svg>
