<?xml version="1.0" encoding="utf-8"?>
<!-- Generator: Adobe Illustrator 16.0.0, SVG Export Plug-In . SVG Version: 6.00 Build 0)  -->
<!DOCTYPE svg PUBLIC "-//W3C//DTD SVG 1.1//EN" "http://www.w3.org/Graphics/SVG/1.1/DTD/svg11.dtd">
<svg version="1.1" id="Layer_1" xmlns="http://www.w3.org/2000/svg" xmlns:xlink="http://www.w3.org/1999/xlink" x="0px" y="0px"
	 width="28px" height="28px" viewBox="0 0 28 28" enable-background="new 0 0 28 28" xml:space="preserve">
<g>
	<circle fill="#FFFFFF" cx="14" cy="14" r="14"/>
</g>
<g>
	<path fill="#D42F33" d="M19.999,17.106h-12c-0.276,0-0.5-0.224-0.5-0.5s0.224-0.5,0.5-0.5h12c0.276,0,0.5,0.224,0.5,0.5
		S20.275,17.106,19.999,17.106z"/>
	<path fill="#D42F33" d="M17.999,20.106h-8c-0.276,0-0.5-0.224-0.5-0.5s0.224-0.5,0.5-0.5h8c0.276,0,0.5,0.224,0.5,0.5
		S18.275,20.106,17.999,20.106z"/>
	<path fill="#D42F33" d="M19.999,11.106h-12c-0.276,0-0.5-0.224-0.5-0.5s0.224-0.5,0.5-0.5h12c0.276,0,0.5,0.224,0.5,0.5
		S20.275,11.106,19.999,11.106z"/>
	<path fill="#D42F33" d="M17.999,14.106h-8c-0.276,0-0.5-0.224-0.5-0.5s0.224-0.5,0.5-0.5h8c0.276,0,0.5,0.224,0.5,0.5
		S18.275,14.106,17.999,14.106z"/>
</g>
</svg>
