<?xml version="1.0" encoding="utf-8"?>
<!-- Generator: Adobe Illustrator 16.0.0, SVG Export Plug-In . SVG Version: 6.00 Build 0)  -->
<!DOCTYPE svg PUBLIC "-//W3C//DTD SVG 1.1//EN" "http://www.w3.org/Graphics/SVG/1.1/DTD/svg11.dtd">
<svg version="1.1" id="track" xmlns="http://www.w3.org/2000/svg" xmlns:xlink="http://www.w3.org/1999/xlink" x="0px" y="0px"
	 width="400px" height="695px" viewBox="-63.203 -248 400 695" enable-background="new -63.203 -248 400 695" xml:space="preserve">
 	<defs>
 		<link href="map.css" type="text/css" rel="stylesheet" xmlns="http://www.w3.org/1999/xhtml"/>
	  <style type="text/css">
	   <![CDATA[
	    @font-face {
	        font-family:OpenSans;
	        src: url('fonts/OpenSans-Regular.ttf');
	    }
	   ]]>
	 </style>
    </defs>
<path class="track" fill="none" stroke="#7B7B7B" stroke-miterlimit="10" d="M206.062-162.731
	c5.341-19.394,8.433-30.79,8.838-32.811c0.938-4.669-2.802-8.112-9.294-9.215c-6.491-1.103-47.8-13.948-51.069-15.276
	c-3.27-1.329-23.188-6.511-25.592-6.492c-2.402,0.019-4.305,0.226-5.981,4.734c-1.677,4.511-25.954,81.322-27.528,86.784
	c-1.573,5.461-18.48,71.498-18.48,71.498s-4.968,28.552-6.517,34.251C68.89-23.56,64.07-0.313,62.978,2.931
	c-1.092,3.245,0.063,5.043,4.468,6.853c4.404,1.808,44.473,14.308,47.085,15.109c2.609,0.799,5.99,0.914,4.708,5.744
	c-1.281,4.826-5.849,22.636-6.999,27.569c-1.149,4.934-2.642,18.923-3.211,23.673c-0.567,4.751-4.088,25.571-4.181,30.271
	s0.405,5.97,3.858,7.881c3.453,1.908,9.834,5.307,10.511,8.24c0.677,2.933-0.894,55.366-0.894,55.366s-1.058,42.553,0.096,48.796
	c0,0,3.278,4.384-4.926,1.906c-8.203-2.48-24.847-8.496-27.958-9.482c-3.111-0.985-14.85-5.007-17.144-6.201
	c-2.293-1.194-3.059-1.593-4.911,0.17c-1.854,1.763-7.935,4.466-9.575,5.965c-1.642,1.501-5.405,6.718-7.443,7.901
	c-2.036,1.181-5.259,1.409-6.734,1.088c-1.479-0.322-8.915-3.484-10.418-4.044s-3.552-1.34-4.82,1.764
	c-1.266,3.102-9.059,22.222-9.727,24.938c-0.668,2.719-3.639,16.386-4.576,21.056c-0.938,4.672-6.908,32.852-7.882,40.531
	c-0.973,7.682-3.061,17.285,2.245,26.331c5.308,9.046,24.604,37.378,27.34,40.448c2.738,3.071,4.896,5.243,7.744,7.1
	c2.844,1.856,39.283,27.495,41.498,29.059c2.215,1.566,5.08,4.741,10.976,2.54l38.279-16.282l8.618-3.698
	c0,0,21.688-12.926,25.413-14.05c3.727-1.125,10.104-5.541,5.649-17.807c-4.451-12.263-15.197-48.255-14.866-52.979
	c0.331-4.726-3.696-45.29-4.213-48.962c-0.517-3.673-2.847-9.673-6.877-13.565c-4.029-3.895-20.383-18.358-21.088-29.344
	c0,0,1.557-81.209,2.445-87.438c0.891-6.23,5.567-25.251,6.475-29.076c0.91-3.828,21.505-84.69,24.063-93.262
	c2.562-8.576,9.909-29.571,10.343-33.344c0.433-3.773,4.708-20.949,5.668-24.3c0.962-3.353,16.116-57.775,16.916-60.385
	c0.451-1.474,10.104-36.209,17.082-61.553L206.062-162.731z"/>
<path class="road" fill="none" stroke="#D42F33" stroke-width="5" stroke-miterlimit="10" d="M206.062-162.731
	c5.341-19.394,8.433-30.79,8.838-32.811c0.938-4.669-2.802-8.112-9.294-9.215c-6.491-1.103-47.8-13.948-51.069-15.276
	c-3.27-1.329-23.188-6.511-25.592-6.492c-2.402,0.019-4.305,0.226-5.981,4.734c-1.677,4.511-25.954,81.322-27.528,86.784
	c-1.573,5.461-18.48,71.498-18.48,71.498s-4.968,28.552-6.517,34.251C68.89-23.56,64.07-0.313,62.978,2.931
	c-1.092,3.245,0.063,5.043,4.468,6.853c4.404,1.808,44.473,14.308,47.085,15.109c2.609,0.799,5.99,0.914,4.708,5.744
	c-1.281,4.826-5.849,22.636-6.999,27.569c-1.149,4.934-2.642,18.923-3.211,23.673c-0.567,4.751-4.088,25.571-4.181,30.271
	s0.405,5.97,3.858,7.881c3.453,1.908,9.834,5.307,10.511,8.24c0.677,2.933-0.894,55.366-0.894,55.366s-1.058,42.553,0.096,48.796
	c0,0,3.278,4.384-4.926,1.906c-8.203-2.48-24.847-8.496-27.958-9.482c-3.111-0.985-14.85-5.007-17.144-6.201
	c-2.293-1.194-3.059-1.593-4.911,0.17c-1.854,1.763-7.935,4.466-9.575,5.965c-1.642,1.501-5.405,6.718-7.443,7.901
	c-2.036,1.181-5.259,1.409-6.734,1.088c-1.479-0.322-8.915-3.484-10.418-4.044s-3.552-1.34-4.82,1.764
	c-1.266,3.102-9.059,22.222-9.727,24.938c-0.668,2.719-3.639,16.386-4.576,21.056c-0.938,4.672-6.908,32.852-7.882,40.531
	c-0.973,7.682-3.061,17.285,2.245,26.331c5.308,9.046,24.604,37.378,27.34,40.448c2.738,3.071,4.896,5.243,7.744,7.1
	c2.844,1.856,39.283,27.495,41.498,29.059c2.215,1.566,5.08,4.741,10.976,2.54l38.279-16.282l8.618-3.698
	c0,0,21.688-12.926,25.413-14.05c3.727-1.125,10.104-5.541,5.649-17.807c-4.451-12.263-15.197-48.255-14.866-52.979
	c0.331-4.726-3.696-45.29-4.213-48.962c-0.517-3.673-2.847-9.673-6.877-13.565c-4.029-3.895-20.383-18.358-21.088-29.344
	c0,0,1.557-81.209,2.445-87.438c0.891-6.23,5.567-25.251,6.475-29.076c0.91-3.828,21.505-84.69,24.063-93.262
	c2.562-8.576,9.909-29.571,10.343-33.344c0.433-3.773,4.708-20.949,5.668-24.3c0.962-3.353,16.116-57.775,16.916-60.385
	c0.451-1.474,10.104-36.209,17.082-61.553L206.062-162.731z"/>
<g data-point="19">
	<text transform="matrix(1 0 0 1 202.9971 -119.4087)" fill="#7F7F7F" font-family="'OpenSans'" font-size="11">Baku Veterans’ Club</text>
	<path fill="#8E8E8E" stroke="#FFFFFF" stroke-width="2" stroke-miterlimit="10" d="M199.555-126.802
		c0.088,1.873-0.831,3.547-2.265,4.516c-0.819,0.555-2.87,2.878-2.87,2.878s-2.05-2.324-2.869-2.877
		c-1.372-0.918-2.264-2.491-2.265-4.267c0-2.892,2.391-5.22,5.298-5.132C197.241-131.597,199.417-129.458,199.555-126.802z"/>
</g>
<g data-point="18">
	<text transform="matrix(1 0 0 1 184.7876 -56.2085)" fill="#7F7F7F" font-family="'OpenSans'" font-size="11">Park Bulvar Mall</text>
	<path fill="#8E8E8E" stroke="#FFFFFF" stroke-width="2" stroke-miterlimit="10" d="M180.819-62.602
		c0.088,1.873-0.827,3.548-2.263,4.515c-0.819,0.555-2.87,2.878-2.87,2.878s-2.049-2.322-2.869-2.877
		c-1.37-0.919-2.264-2.491-2.265-4.267c0.001-2.892,2.392-5.221,5.298-5.132C178.507-67.397,180.684-65.258,180.819-62.602z"/>
</g>
<g data-point="17">
	<text transform="matrix(1 0 0 1 136.7969 125.0557)" fill="#7F7F7F" font-family="'OpenSans'" font-size="11">Sahil Grandstand</text>
	<path fill="#8E8E8E" stroke="#FFFFFF" stroke-width="2" stroke-miterlimit="10" d="M133.519,117.663
		c0.087,1.873-0.831,3.549-2.264,4.517c-0.818,0.555-2.869,2.875-2.869,2.875s-2.052-2.321-2.87-2.876
		c-1.37-0.917-2.264-2.489-2.265-4.264c-0.001-2.894,2.39-5.223,5.297-5.134C131.204,112.868,133.381,115.008,133.519,117.663z"/>
</g>
<g data-point="16">
	<text transform="matrix(1 0 0 1 162.0884 282.874)" fill="#7F7F7F" font-family="'OpenSans'" font-size="11">Maiden Tower Grandstand</text>
	<path fill="#8E8E8E" stroke="#FFFFFF" stroke-width="2" stroke-miterlimit="10" d="M157.439,278.592
		c0.088,1.875-0.834,3.548-2.265,4.518c-0.818,0.553-2.868,2.879-2.868,2.879s-2.051-2.327-2.868-2.879
		c-1.372-0.923-2.267-2.49-2.267-4.264c0-2.892,2.39-5.221,5.297-5.134C155.124,273.799,157.301,275.938,157.439,278.592z"/>
</g>
<g data-point="15_1_">
	<g>
		<text transform="matrix(1 0 0 1 179.4702 370.5879)" fill="#7F7F7F" font-family="'OpenSans'" font-size="11">Azneft Grandstand</text>
	</g>
	<path fill="#8E8E8E" stroke="#FFFFFF" stroke-width="2" stroke-miterlimit="10" d="M174.958,364.071
		c0.087,1.874-0.829,3.547-2.266,4.516c-0.818,0.554-2.867,2.878-2.867,2.878s-2.05-2.324-2.87-2.877
		c-1.371-0.921-2.265-2.493-2.265-4.267c0-2.888,2.391-5.22,5.298-5.13C172.642,359.279,174.818,361.418,174.958,364.071z"/>
</g>
<g data-point="14_1_">
	<g>
		<text transform="matrix(1 0 0 1 154.9702 404.7393)" fill="#7F7F7F" font-family="'OpenSans'" font-size="11">Heydar Aliyev Foundation</text>
	</g>
	<path fill="#8E8E8E" stroke="#FFFFFF" stroke-width="2" stroke-miterlimit="10" d="M141.885,397.346
		c0.089,1.873-0.83,3.547-2.264,4.516c-0.818,0.553-2.871,2.878-2.871,2.878s-2.048-2.324-2.866-2.878
		c-1.371-0.921-2.266-2.493-2.267-4.266c0.002-2.89,2.392-5.221,5.297-5.132C139.57,392.553,141.748,394.691,141.885,397.346z"/>
</g>
<g data-point="13_1_">
	<g>
		<text transform="matrix(1 0 0 1 17.5776 437.2549)" fill="#7F7F7F" font-family="'OpenSans'" font-size="11">Philharmonic Grandstand</text>
	</g>
	<path fill="#8E8E8E" stroke="#FFFFFF" stroke-width="2" stroke-miterlimit="10" d="M86.75,413.606
		c0.088,1.875-0.829,3.547-2.266,4.516c-0.816,0.553-2.869,2.878-2.869,2.878s-2.049-2.326-2.868-2.879
		c-1.371-0.919-2.265-2.489-2.263-4.265c-0.001-2.89,2.391-5.221,5.295-5.134C84.435,408.813,86.613,410.95,86.75,413.606z"/>
</g>
<g data-point="12_1_">
	<g>
		<text transform="matrix(1 0 0 1 -46.4219 377.7266)" fill="#7F7F7F" font-family="'OpenSans'" font-size="11">School № 34</text>
	</g>
	<path fill="#8E8E8E" stroke="#FFFFFF" stroke-width="2" stroke-miterlimit="10" d="M31.161,369.336
		c0.089,1.872-0.83,3.546-2.266,4.516c-0.818,0.555-2.869,2.875-2.869,2.875s-2.048-2.322-2.865-2.875
		c-1.373-0.921-2.267-2.491-2.268-4.266c0.001-2.895,2.393-5.221,5.297-5.134C28.845,364.541,31.023,366.68,31.161,369.336z"/>
</g>
<g data-point="11">
	<text transform="matrix(1 0 0 1 12.4409 314.8662)" fill="#7F7F7F" font-family="'OpenSans'" font-size="11">Municipal Authority</text>
	<path fill="#8E8E8E" stroke="#FFFFFF" stroke-width="2" stroke-miterlimit="10" d="M8.265,307.471
		c0.09,1.877-0.831,3.548-2.266,4.517c-0.816,0.554-2.866,2.879-2.866,2.879s-2.052-2.323-2.868-2.88
		C-1.107,311.07-2,309.498-2,307.723c-0.001-2.894,2.39-5.223,5.297-5.134C5.95,302.679,8.126,304.817,8.265,307.471z"/>
</g>
<g data-point="10">
	<text transform="matrix(1 0 0 1 -32.2095 255.8008)"><tspan x="0" y="0" fill="#7F7F7F" font-family="'OpenSans'" font-size="11">Nizam</tspan><tspan x="0" y="9.725" fill="#7F7F7F" font-family="'OpenSans'" font-size="11">Garden</tspan></text>
	<path fill="#8E8E8E" stroke="#FFFFFF" stroke-width="2" stroke-miterlimit="10" d="M17.572,256.686
		c0.087,1.873-0.831,3.547-2.266,4.516c-0.818,0.553-2.869,2.878-2.869,2.878s-2.048-2.325-2.868-2.878
		c-1.371-0.92-2.265-2.492-2.265-4.266c0-2.892,2.39-5.221,5.297-5.132C15.256,251.891,17.432,254.029,17.572,256.686z"/>
</g>
<g data-point="9">
	<text transform="matrix(1 0 0 1 -46.4224 220.2412)"><tspan x="0" y="0" fill="#7F7F7F" font-family="'OpenSans'" font-size="11">Icheri Sheher </tspan><tspan x="0" y="9.725" fill="#7F7F7F" font-family="'OpenSans'" font-size="11">Grandstand</tspan></text>
	<path fill="#8E8E8E" stroke="#FFFFFF" stroke-width="2" stroke-miterlimit="10" d="M33.801,221.667
		c0.089,1.873-0.832,3.545-2.266,4.516c-0.816,0.553-2.867,2.875-2.867,2.875s-2.048-2.322-2.87-2.877
		c-1.371-0.919-2.263-2.489-2.263-4.265c0.001-2.894,2.39-5.22,5.297-5.134C31.486,216.872,33.663,219.011,33.801,221.667z"/>
</g>
<g data-point="8">
	<text transform="matrix(1 0 0 1 36.1611 191.2417)"><tspan x="0" y="0" fill="#7F7F7F" font-family="'OpenSans'" font-size="11">Icheri Sheher</tspan><tspan x="0" y="9.725" fill="#7F7F7F" font-family="'OpenSans'" font-size="11">Fortress Wall</tspan></text>
	<path fill="#8E8E8E" stroke="#FFFFFF" stroke-width="2" stroke-miterlimit="10" d="M70.601,210.848
		c0.088,1.875-0.833,3.548-2.267,4.519c-0.818,0.555-2.869,2.875-2.869,2.875s-2.048-2.322-2.868-2.877
		c-1.37-0.917-2.263-2.489-2.263-4.265c0.001-2.894,2.388-5.222,5.297-5.134C68.285,206.055,70.464,208.193,70.601,210.848z"/>
</g>
<g data-point="7">
	<text transform="matrix(1 0 0 1 128.6177 214.103)"><tspan x="0" y="0" fill="#7F7F7F" font-family="'OpenSans'" font-size="11">Azerbaijan State</tspan><tspan x="0" y="9.724" fill="#7F7F7F" font-family="'OpenSans'" font-size="11">Puppet Theater</tspan></text>
	<path fill="#8E8E8E" stroke="#FFFFFF" stroke-width="2" stroke-miterlimit="10" d="M121.944,215.732
		c0.087,1.873-0.833,3.548-2.266,4.516c-0.818,0.555-2.869,2.878-2.869,2.878s-2.052-2.323-2.868-2.877
		c-1.371-0.919-2.266-2.493-2.266-4.267c0-2.889,2.391-5.22,5.298-5.132C119.63,210.938,121.805,213.077,121.944,215.732z"/>
</g>
<g data-point="6">
	<text transform="matrix(1 0 0 1 13.0581 29.5913)"><tspan x="0" y="0" fill="#7F7F7F" font-family="'OpenSans'" font-size="11">Sabayil Precinct</tspan><tspan x="0" y="9.725" fill="#7F7F7F" font-family="'OpenSans'" font-size="11">Police Station №39</tspan></text>
	<path fill="#8E8E8E" stroke="#FFFFFF" stroke-width="2" stroke-miterlimit="10" d="M118.584,17.515
		c0.087,1.873-0.831,3.546-2.266,4.516c-0.818,0.555-2.869,2.875-2.869,2.875s-2.052-2.321-2.87-2.876
		c-1.368-0.917-2.26-2.49-2.26-4.264c-0.001-2.895,2.388-5.222,5.296-5.136C116.27,12.72,118.446,14.858,118.584,17.515z"/>
</g>
<g data-point="5">
	<text transform="matrix(1 0 0 1 1.3965 -63.4087)" fill="#7F7F7F" font-family="'OpenSans'" font-size="11">Sahil Garden</text>
	<path fill="#8E8E8E" stroke="#FFFFFF" stroke-width="2" stroke-miterlimit="10" d="M80.982-68.53
		c0.088,1.875-0.831,3.549-2.266,4.518c-0.818,0.553-2.869,2.876-2.869,2.876s-2.051-2.322-2.869-2.877
		c-1.369-0.917-2.262-2.49-2.262-4.265c0-2.894,2.388-5.222,5.297-5.134C78.667-73.324,80.846-71.185,80.982-68.53z"/>
</g>
<g data-point="4">
	<text transform="matrix(1 0 0 1 -32.2095 -115.3481)" fill="#7F7F7F" font-family="'OpenSans'" font-size="11">Mari Vanna restaurant</text>
	<path fill="#8E8E8E" stroke="#FFFFFF" stroke-width="2" stroke-miterlimit="10" d="M94.978-122.743
		c0.088,1.875-0.831,3.548-2.266,4.518c-0.819,0.555-2.869,2.877-2.869,2.877s-2.052-2.324-2.87-2.877
		c-1.371-0.918-2.264-2.491-2.263-4.267c-0.001-2.893,2.39-5.22,5.296-5.133C92.661-127.538,94.839-125.397,94.978-122.743z"/>
</g>
<g data-point="3">
	<text transform="matrix(1 0 0 1 108.3188 -234.8213)" fill="#7F7F7F" font-family="'OpenSans'" font-size="11">Government House</text>
	<path fill="#8E8E8E" stroke="#FFFFFF" stroke-width="2" stroke-miterlimit="10" d="M162.988-225.744
		c0.088,1.875-0.827,3.55-2.264,4.517c-0.818,0.555-2.869,2.878-2.869,2.878s-2.05-2.322-2.87-2.877
		c-1.37-0.919-2.265-2.491-2.265-4.266c0-2.891,2.392-5.221,5.297-5.134C160.675-230.537,162.85-228.398,162.988-225.744z"/>
</g>
<g data-point="2">
	<text transform="matrix(1 0 0 1 221.0557 -210.5527)"><tspan x="0" y="0" fill="#7F7F7F" font-family="'OpenSans'" font-size="11">JW Marriott </tspan><tspan x="0" y="9.725" fill="#7F7F7F" font-family="'OpenSans'" font-size="11">Absheron Baku</tspan></text>
	<path fill="#8E8E8E" stroke="#FFFFFF" stroke-width="2" stroke-miterlimit="10" d="M215.18-211.164
		c0.088,1.875-0.829,3.548-2.263,4.517c-0.818,0.553-2.87,2.878-2.87,2.878s-2.05-2.324-2.869-2.877
		c-1.372-0.918-2.266-2.493-2.266-4.266c0-2.894,2.393-5.221,5.297-5.134C212.866-215.959,215.043-213.818,215.18-211.164z"/>
</g>
<g data-point="1">
	<g class="start">
		<circle fill="#8EC40A" cx="208.282" cy="-172.592" r="10.273"/>
		<g>
			<path fill="#FFFFFF" d="M208.231-180.299c-1.492,0-2.935,0.422-4.186,1.232c-1.201,0.779-2.172,1.88-2.789,3.18
				c-0.164,0.341-0.033,0.762,0.309,0.94c0.357,0.178,0.793,0.035,0.957-0.323c0.503-1.071,1.301-1.979,2.29-2.611
				c1.021-0.666,2.204-1.007,3.422-1.006c3.471,0,6.311,2.822,6.311,6.309c0,3.488-2.839,6.293-6.31,6.292
				c-3.244,0-5.924-2.446-6.262-5.595l0,0h4.573l-0.001,1.396c0,0.308,0.343,0.503,0.601,0.341l3.632-2.092
				c0.26-0.163,0.26-0.535,0-0.697l-3.633-2.11c-0.258-0.162-0.6,0.033-0.6,0.343l0,1.395h-5.402
				c-0.342-0.001-0.615,0.274-0.615,0.614l0,0c0,4.269,3.42,7.77,7.684,7.788c4.251,0.032,7.724-3.44,7.724-7.689
				C215.937-176.841,212.481-180.299,208.231-180.299z"/>
		</g>
	</g>
	<text transform="matrix(1 0 0 1 218.5557 -157.0527)" fill="#7F7F7F" font-family="'OpenSans'" font-size="11">Absheron Grandstand</text>
	<path fill="#8E8E8E" stroke="#FFFFFF" stroke-width="2" stroke-miterlimit="10" d="M198.303-168.081
		c0.088,1.875-0.834,3.548-2.265,4.518c-0.816,0.552-2.868,2.877-2.868,2.877s-2.051-2.326-2.869-2.877
		c-1.371-0.921-2.264-2.493-2.264-4.267c0-2.894,2.39-5.223,5.297-5.134C195.989-172.875,198.165-170.737,198.303-168.081z"/>
</g>
<g class="finish">
	<circle fill="#FFFFFF" cx="204.387" cy="-152.527" r="10.273"/>
	<g>
		<rect x="199.915" y="-150.89" fill="none" width="3.082" height="3.082"/>
		<rect x="206.079" y="-157.053" fill="none" width="3.083" height="3.082"/>
		<rect x="202.997" y="-153.972" fill="none" width="3.082" height="3.083"/>
		<rect x="199.915" y="-157.054" fill="none" width="3.082" height="3.082"/>
		<rect x="206.08" y="-150.889" fill="none" width="3.081" height="3.082"/>
		<path fill="#1E1E1E" d="M199.915-153.971l0-3.084l-1.764,0.001c-0.633,0.867-1.094,1.867-1.318,2.958l0,0.124L199.915-153.971z"/>
		<path fill="#1E1E1E" d="M202.997-157.053v-3.049c-1.133,0.205-2.179,0.659-3.083,1.303l0,1.745L202.997-157.053z"/>
		<rect x="202.997" y="-157.053" fill="#1E1E1E" width="3.082" height="3.081"/>
		<path fill="#1E1E1E" d="M209.161-157.053l0-1.508c-0.889-0.707-1.938-1.218-3.081-1.478l0,2.982L209.161-157.053L209.161-157.053z
			"/>
		<path fill="#1E1E1E" d="M209.161-157.053v3.082l2.781-0.001c-0.216-1.137-0.685-2.18-1.341-3.082L209.161-157.053z"/>
		<path fill="#1E1E1E" d="M199.915-150.889l-3.062-0.001c0.245,1.144,0.749,2.188,1.442,3.082l1.619,0.001V-150.889L199.915-150.889
			z"/>
		<rect x="199.914" y="-153.971" fill="#1E1E1E" width="3.083" height="3.082"/>
		<rect x="202.996" y="-150.89" fill="#1E1E1E" width="3.083" height="3.082"/>
		<rect x="206.079" y="-153.972" fill="#1E1E1E" width="3.082" height="3.082"/>
		<path fill="#1E1E1E" d="M199.915-147.808l0,1.553c0.901,0.644,1.948,1.095,3.082,1.303l0-2.857L199.915-147.808L199.915-147.808z"
			/>
		<path fill="#1E1E1E" d="M206.079-147.808l0,2.791c1.145-0.262,2.193-0.771,3.082-1.479l0-1.313L206.079-147.808L206.079-147.808z"
			/>
		<path fill="#1E1E1E" d="M209.161-147.808l1.301,0.001c0.691-0.895,1.193-1.939,1.441-3.083l-2.743,0.001V-147.808z"/>
	</g>
</g>
</svg>
