<?xml version="1.0" encoding="utf-8"?>
<!-- Generator: Adobe Illustrator 16.0.0, SVG Export Plug-In . SVG Version: 6.00 Build 0)  -->
<!DOCTYPE svg PUBLIC "-//W3C//DTD SVG 1.1//EN" "http://www.w3.org/Graphics/SVG/1.1/DTD/svg11.dtd">
<svg version="1.1" id="track" xmlns="http://www.w3.org/2000/svg" xmlns:xlink="http://www.w3.org/1999/xlink" x="0px" y="0px"
	 width="450px" height="713px" viewBox="-43.5 -10 450 713" enable-background="new -43.5 -10 450 713" xml:space="preserve">
	<defs>
 		<link href="map.css" type="text/css" rel="stylesheet" xmlns="http://www.w3.org/1999/xhtml"/>
	  <style type="text/css">
			<![CDATA[
				@font-face {
				    font-family:OpenSans;
				    src: url('fonts/OpenSans-Regular.ttf');
				}
			]]>
		 </style>
  </defs>
<path class="track" fill="none" stroke="#7B7B7B" stroke-miterlimit="10" d="M264.221,85.394
	c5.34-19.394,8.432-30.79,8.838-32.811c0.938-4.669-2.803-8.112-9.295-9.215c-6.49-1.103-47.799-13.948-51.068-15.276
	c-3.27-1.329-23.187-6.511-25.592-6.492c-2.402,0.019-4.305,0.226-5.981,4.734c-1.677,4.511-25.954,81.322-27.528,86.784
	c-1.573,5.461-18.48,71.498-18.48,71.498s-4.968,28.552-6.517,34.251c-1.549,5.698-6.369,28.945-7.461,32.189
	c-1.092,3.245,0.063,5.043,4.468,6.853c4.404,1.808,44.473,14.308,47.085,15.109c2.609,0.799,5.99,0.914,4.708,5.744
	c-1.281,4.826-5.849,22.636-6.999,27.569c-1.149,4.934-2.642,18.923-3.211,23.673c-0.567,4.751-4.088,25.571-4.181,30.272
	c-0.093,4.699,0.405,5.969,3.858,7.881c3.453,1.906,9.834,5.307,10.511,8.238c0.677,2.934-0.894,55.367-0.894,55.367
	s-1.058,42.553,0.096,48.795c0,0,3.278,4.385-4.926,1.906c-8.203-2.48-24.847-8.496-27.958-9.482
	c-3.111-0.984-14.85-5.006-17.144-6.199c-2.293-1.195-3.059-1.594-4.911,0.17c-1.854,1.762-7.935,4.465-9.575,5.965
	c-1.642,1.5-5.405,6.717-7.443,7.9c-2.036,1.182-5.259,1.408-6.734,1.088c-1.479-0.322-8.915-3.484-10.418-4.045
	c-1.503-0.559-3.552-1.34-4.82,1.766c-1.266,3.102-9.059,22.221-9.727,24.938c-0.668,2.719-3.639,16.387-4.576,21.057
	c-0.938,4.672-6.908,32.852-7.882,40.529c-0.973,7.684-3.061,17.285,2.245,26.332c5.308,9.047,24.604,37.379,27.34,40.449
	c2.738,3.07,4.896,5.242,7.744,7.1c2.844,1.855,39.283,27.494,41.498,29.059c2.215,1.566,5.08,4.74,10.976,2.539l38.279-16.281
	l8.617-3.697c0,0,21.689-12.926,25.414-14.051c3.727-1.125,10.104-5.541,5.648-17.807c-4.451-12.264-15.197-48.256-14.865-52.98
	c0.33-4.725-3.697-45.289-4.213-48.961c-0.518-3.674-2.848-9.674-6.877-13.564c-4.029-3.896-20.383-18.359-21.088-29.346
	c0,0,1.557-81.209,2.445-87.438c0.891-6.23,5.567-25.25,6.476-29.076c0.91-3.826,21.503-84.689,24.062-93.261
	c2.563-8.576,9.908-29.571,10.344-33.344c0.432-3.773,4.707-20.949,5.668-24.3c0.961-3.353,16.115-57.775,16.916-60.385
	c0.449-1.474,10.104-36.209,17.082-61.553L264.221,85.394z"/>
<path class="road" fill="none" stroke="#D42F33" stroke-width="5" stroke-miterlimit="10" d="M264.221,85.394
	c5.34-19.394,8.432-30.79,8.838-32.811c0.938-4.669-2.803-8.112-9.295-9.215c-6.49-1.103-47.799-13.948-51.068-15.276
	c-3.27-1.329-23.187-6.511-25.592-6.492c-2.402,0.019-4.305,0.226-5.981,4.734c-1.677,4.511-25.954,81.322-27.528,86.784
	c-1.573,5.461-18.48,71.498-18.48,71.498s-4.968,28.552-6.517,34.251c-1.549,5.698-6.369,28.945-7.461,32.189
	c-1.092,3.245,0.063,5.043,4.468,6.853c4.404,1.808,44.473,14.308,47.085,15.109c2.609,0.799,5.99,0.914,4.708,5.744
	c-1.281,4.826-5.849,22.636-6.999,27.569c-1.149,4.934-2.642,18.923-3.211,23.673c-0.567,4.751-4.088,25.571-4.181,30.272
	c-0.093,4.699,0.405,5.969,3.858,7.881c3.453,1.906,9.834,5.307,10.511,8.238c0.677,2.934-0.894,55.367-0.894,55.367
	s-1.058,42.553,0.096,48.795c0,0,3.278,4.385-4.926,1.906c-8.203-2.48-24.847-8.496-27.958-9.482
	c-3.111-0.984-14.85-5.006-17.144-6.199c-2.293-1.195-3.059-1.594-4.911,0.17c-1.854,1.762-7.935,4.465-9.575,5.965
	c-1.642,1.5-5.405,6.717-7.443,7.9c-2.036,1.182-5.259,1.408-6.734,1.088c-1.479-0.322-8.915-3.484-10.418-4.045
	c-1.503-0.559-3.552-1.34-4.82,1.766c-1.266,3.102-9.059,22.221-9.727,24.938c-0.668,2.719-3.639,16.387-4.576,21.057
	c-0.938,4.672-6.908,32.852-7.882,40.529c-0.973,7.684-3.061,17.285,2.245,26.332c5.308,9.047,24.604,37.379,27.34,40.449
	c2.738,3.07,4.896,5.242,7.744,7.1c2.844,1.855,39.283,27.494,41.498,29.059c2.215,1.566,5.08,4.74,10.976,2.539l38.279-16.281
	l8.617-3.697c0,0,21.689-12.926,25.414-14.051c3.727-1.125,10.104-5.541,5.648-17.807c-4.451-12.264-15.197-48.256-14.865-52.98
	c0.33-4.725-3.697-45.289-4.213-48.961c-0.518-3.674-2.848-9.674-6.877-13.564c-4.029-3.896-20.383-18.359-21.088-29.346
	c0,0,1.557-81.209,2.445-87.438c0.891-6.23,5.567-25.25,6.476-29.076c0.91-3.826,21.503-84.689,24.062-93.261
	c2.563-8.576,9.908-29.571,10.344-33.344c0.432-3.773,4.707-20.949,5.668-24.3c0.961-3.353,16.115-57.775,16.916-60.385
	c0.449-1.474,10.104-36.209,17.082-61.553L264.221,85.394z"/>
<g data-point="1">
	<g class="start">
		<circle fill="#8EC40A" cx="266.439" cy="75.532" r="10.273"/>
		<g>
			<path fill="#FFFFFF" d="M266.389,67.826c-1.492,0-2.936,0.422-4.186,1.232c-1.201,0.779-2.172,1.88-2.789,3.18
				c-0.164,0.341-0.033,0.762,0.309,0.94c0.357,0.178,0.793,0.035,0.957-0.323c0.504-1.071,1.301-1.979,2.291-2.611
				c1.02-0.666,2.203-1.007,3.422-1.006c3.471,0,6.311,2.822,6.311,6.309c0,3.488-2.84,6.293-6.311,6.292
				c-3.244,0-5.924-2.446-6.262-5.595l0,0h4.572v1.396c0,0.308,0.344,0.503,0.602,0.341l3.631-2.092c0.26-0.163,0.26-0.535,0-0.697
				l-3.633-2.11c-0.258-0.162-0.6,0.033-0.6,0.343v1.395h-5.402c-0.342-0.001-0.615,0.274-0.615,0.614l0,0
				c0,4.269,3.42,7.77,7.684,7.788c4.252,0.032,7.725-3.44,7.725-7.689C274.096,71.284,270.639,67.826,266.389,67.826z"/>
		</g>
	</g>
	<text transform="matrix(1 0 0 1 276.7148 91.0718)" fill="#7F7F7F" font-family="'OpenSans'" font-size="11">Absheron Grandstand</text>
	<path fill="#8E8E8E" stroke="#FFFFFF" stroke-width="2" stroke-miterlimit="10" d="M256.461,80.043
		c0.088,1.875-0.834,3.548-2.266,4.518c-0.814,0.552-2.867,2.877-2.867,2.877s-2.051-2.326-2.869-2.877
		c-1.371-0.921-2.264-2.493-2.264-4.267c0-2.894,2.389-5.223,5.297-5.134C254.146,75.25,256.322,77.388,256.461,80.043z"/>
</g>
<g data-point="2">
	<text transform="matrix(1 0 0 1 279.2148 37.5718)" enable-background="new    "><tspan x="0" y="0" fill="#7F7F7F" font-family="'OpenSans'" font-size="11">JW Marriott </tspan><tspan x="0" y="13.2" fill="#7F7F7F" font-family="'OpenSans'" font-size="11">Absheron Baku</tspan></text>
	<path fill="#8E8E8E" stroke="#FFFFFF" stroke-width="2" stroke-miterlimit="10" d="M273.338,36.96
		c0.088,1.875-0.828,3.548-2.264,4.517c-0.816,0.553-2.869,2.878-2.869,2.878s-2.051-2.324-2.869-2.877
		c-1.371-0.918-2.266-2.493-2.266-4.266c0-2.894,2.393-5.221,5.297-5.134C271.023,32.166,273.201,34.307,273.338,36.96z"/>
</g>
<g data-point="3">
	<text transform="matrix(1 0 0 1 166.4771 13.3032)" fill="#7F7F7F" font-family="'OpenSans'" font-size="11">Government House</text>
	<path fill="#8E8E8E" stroke="#FFFFFF" stroke-width="2" stroke-miterlimit="10" d="M221.146,22.38
		c0.088,1.875-0.828,3.55-2.264,4.517c-0.818,0.555-2.869,2.878-2.869,2.878s-2.051-2.322-2.871-2.877
		c-1.369-0.919-2.264-2.491-2.264-4.266c0-2.891,2.391-5.221,5.297-5.134C218.832,17.587,221.008,19.727,221.146,22.38z"/>
</g>
<g data-point="4">
	<text transform="matrix(1 0 0 1 25.9487 132.7769)" fill="#7F7F7F" font-family="'OpenSans'" font-size="11">Mari Vanna restaurant</text>
	<path fill="#8E8E8E" stroke="#FFFFFF" stroke-width="2" stroke-miterlimit="10" d="M153.137,125.381
		c0.088,1.875-0.831,3.548-2.266,4.518c-0.819,0.555-2.869,2.877-2.869,2.877s-2.052-2.324-2.87-2.877
		c-1.371-0.918-2.264-2.491-2.263-4.267c-0.001-2.893,2.39-5.22,5.296-5.133C150.82,120.586,152.998,122.728,153.137,125.381z"/>
</g>
<g data-point="5">
	<text transform="matrix(1 0 0 1 59.5552 184.7163)" fill="#7F7F7F" font-family="'OpenSans'" font-size="11">Sahil Garden</text>
	<path fill="#8E8E8E" stroke="#FFFFFF" stroke-width="2" stroke-miterlimit="10" d="M139.141,179.595
		c0.088,1.875-0.831,3.549-2.266,4.518c-0.818,0.553-2.869,2.876-2.869,2.876s-2.051-2.322-2.869-2.877
		c-1.369-0.917-2.262-2.49-2.262-4.265c0-2.894,2.388-5.222,5.297-5.134C136.826,174.8,139.005,176.939,139.141,179.595z"/>
</g>
<g data-point="6">
	<text transform="matrix(1 0 0 1 71.2173 277.7163)" enable-background="new    "><tspan x="0" y="0" fill="#7F7F7F" font-family="'OpenSans'" font-size="11">Sabayil Precinct</tspan><tspan x="0" y="13.2" fill="#7F7F7F" font-family="'OpenSans'" font-size="11">Police Station №39</tspan></text>
	<path fill="#8E8E8E" stroke="#FFFFFF" stroke-width="2" stroke-miterlimit="10" d="M176.743,265.64
		c0.087,1.873-0.831,3.546-2.266,4.516c-0.818,0.555-2.869,2.875-2.869,2.875s-2.052-2.321-2.87-2.876
		c-1.368-0.917-2.26-2.49-2.26-4.264c-0.001-2.895,2.388-5.222,5.296-5.136C174.429,260.845,176.604,262.982,176.743,265.64z"/>
</g>
<g data-point="7">
	<text transform="matrix(1 0 0 1 190.2769 462.2266)" enable-background="new    "><tspan x="0" y="0" fill="#7F7F7F" font-family="'OpenSans'" font-size="11">Azerbaijan State</tspan><tspan x="0" y="13.201" fill="#7F7F7F" font-family="'OpenSans'" font-size="11">Puppet Theater</tspan></text>
	<path fill="#8E8E8E" stroke="#FFFFFF" stroke-width="2" stroke-miterlimit="10" d="M180.103,463.855
		c0.087,1.873-0.833,3.549-2.266,4.518c-0.818,0.555-2.869,2.877-2.869,2.877s-2.052-2.322-2.868-2.877
		c-1.371-0.918-2.266-2.492-2.266-4.268c0-2.889,2.391-5.219,5.298-5.131C177.789,459.063,179.964,461.201,180.103,463.855z"/>
</g>
<g data-point="8">
	<text transform="matrix(1 0 0 1 91.9653 435.1172)" enable-background="new    "><tspan x="0" y="0" fill="#7F7F7F" font-family="'OpenSans'" font-size="11">Icheri Sheher</tspan><tspan x="0" y="13.199" fill="#7F7F7F" font-family="'OpenSans'" font-size="11">Fortress Wall</tspan></text>
	<path fill="#8E8E8E" stroke="#FFFFFF" stroke-width="2" stroke-miterlimit="10" d="M128.76,458.973
		c0.088,1.875-0.833,3.547-2.267,4.52c-0.818,0.555-2.869,2.875-2.869,2.875s-2.048-2.322-2.868-2.877
		c-1.37-0.918-2.263-2.49-2.263-4.266c0.001-2.895,2.388-5.223,5.297-5.135C126.444,454.18,128.623,456.316,128.76,458.973z"/>
</g>
<g data-point="9">
	<text transform="matrix(1 0 0 1 -9.0142 463.4043)" enable-background="new    "><tspan x="0" y="0" fill="#7F7F7F" font-family="'OpenSans'" font-size="11">Icheri Sheher </tspan><tspan x="0" y="13.201" fill="#7F7F7F" font-family="'OpenSans'" font-size="11">Grandstand</tspan></text>
	<path fill="#8E8E8E" stroke="#FFFFFF" stroke-width="2" stroke-miterlimit="10" d="M91.959,469.791
		c0.089,1.873-0.832,3.545-2.266,4.516c-0.816,0.553-2.867,2.875-2.867,2.875s-2.048-2.322-2.87-2.877
		c-1.371-0.918-2.263-2.488-2.263-4.264c0.001-2.895,2.39-5.221,5.297-5.135C89.645,464.996,91.822,467.135,91.959,469.791z"/>
</g>
<g data-point="10">
	<text transform="matrix(1 0 0 1 -12.5 511.2051)" fill="#7F7F7F" font-family="'OpenSans'" font-size="11">Nizam Garden</text>
	<path fill="#8E8E8E" stroke="#FFFFFF" stroke-width="2" stroke-miterlimit="10" d="M75.73,504.811
		c0.087,1.873-0.831,3.547-2.266,4.516c-0.818,0.553-2.869,2.879-2.869,2.879s-2.048-2.326-2.868-2.879
		c-1.371-0.92-2.265-2.492-2.265-4.266c0-2.893,2.39-5.221,5.297-5.133C73.415,500.016,75.591,502.152,75.73,504.811z"/>
</g>
<g data-point="11">
	<text transform="matrix(1 0 0 1 70.5991 562.9902)" fill="#7F7F7F" font-family="'OpenSans'" font-size="11">Municipal Authority</text>
	<path fill="#8E8E8E" stroke="#FFFFFF" stroke-width="2" stroke-miterlimit="10" d="M66.424,555.596
		c0.09,1.877-0.831,3.547-2.266,4.516c-0.816,0.555-2.866,2.881-2.866,2.881s-2.052-2.324-2.868-2.881
		c-1.372-0.918-2.265-2.488-2.265-4.264c-0.001-2.895,2.39-5.223,5.297-5.135C64.109,550.803,66.285,552.941,66.424,555.596z"/>
</g>
<g data-point="12">
	<g>
		<text transform="matrix(1 0 0 1 5.7368 625.8516)" fill="#7F7F7F" font-family="'OpenSans'" font-size="11">School № 34</text>
	</g>
	<path fill="#8E8E8E" stroke="#FFFFFF" stroke-width="2" stroke-miterlimit="10" d="M89.32,617.461
		c0.089,1.871-0.83,3.545-2.266,4.516c-0.818,0.555-2.869,2.875-2.869,2.875s-2.048-2.322-2.865-2.875
		c-1.373-0.92-2.267-2.49-2.268-4.266c0.001-2.895,2.393-5.221,5.297-5.135C87.004,612.666,89.182,614.805,89.32,617.461z"/>
</g>
<g data-point="13">
	<g>
		<text transform="matrix(1 0 0 1 75.7358 685.3789)" fill="#7F7F7F" font-family="'OpenSans'" font-size="11">Philharmonic Grandstand</text>
	</g>
	<path fill="#8E8E8E" stroke="#FFFFFF" stroke-width="2" stroke-miterlimit="10" d="M144.909,661.73
		c0.088,1.875-0.829,3.547-2.266,4.516c-0.816,0.553-2.869,2.879-2.869,2.879s-2.049-2.326-2.868-2.879
		c-1.371-0.92-2.265-2.49-2.263-4.266c-0.001-2.891,2.391-5.221,5.295-5.135C142.594,656.938,144.771,659.074,144.909,661.73z"/>
</g>
<g data-point="14">
	<g>
		<text transform="matrix(1 0 0 1 213.1289 652.8633)" fill="#7F7F7F" font-family="'OpenSans'" font-size="11">Heydar Aliyev Foundation</text>
	</g>
	<path fill="#8E8E8E" stroke="#FFFFFF" stroke-width="2" stroke-miterlimit="10" d="M200.043,645.471
		c0.09,1.873-0.83,3.547-2.264,4.516c-0.818,0.553-2.871,2.879-2.871,2.879s-2.049-2.324-2.867-2.879
		c-1.369-0.92-2.264-2.492-2.266-4.266c0.002-2.891,2.391-5.221,5.297-5.133C197.729,640.678,199.907,642.816,200.043,645.471z"/>
</g>
<g data-point="15">
	<g>
		<text transform="matrix(1 0 0 1 237.6289 618.7129)" fill="#7F7F7F" font-family="'OpenSans'" font-size="11">Azneft Grandstand</text>
	</g>
	<path fill="#8E8E8E" stroke="#FFFFFF" stroke-width="2" stroke-miterlimit="10" d="M233.115,612.195
		c0.088,1.875-0.828,3.547-2.266,4.516c-0.818,0.555-2.867,2.879-2.867,2.879s-2.049-2.324-2.869-2.877
		c-1.371-0.922-2.266-2.494-2.266-4.268c0-2.887,2.391-5.219,5.299-5.129C230.801,607.404,232.977,609.543,233.115,612.195z"/>
</g>
<g data-point="16">
	<text transform="matrix(1 0 0 1 220.248 530.998)" fill="#7F7F7F" font-family="'OpenSans'" font-size="11">Maiden Tower Grandstand</text>
	<path fill="#8E8E8E" stroke="#FFFFFF" stroke-width="2" stroke-miterlimit="10" d="M215.598,526.717
		c0.088,1.875-0.834,3.547-2.266,4.518c-0.818,0.553-2.867,2.879-2.867,2.879s-2.053-2.326-2.869-2.879
		c-1.371-0.924-2.268-2.49-2.268-4.264c0-2.893,2.391-5.221,5.297-5.135C213.281,521.924,215.459,524.063,215.598,526.717z"/>
</g>
<g data-point="17">
	<text transform="matrix(1 0 0 1 194.9556 373.1797)" fill="#7F7F7F" font-family="'OpenSans'" font-size="11">Sahil Grandstand</text>
	<path fill="#8E8E8E" stroke="#FFFFFF" stroke-width="2" stroke-miterlimit="10" d="M191.678,365.787
		c0.086,1.873-0.832,3.549-2.264,4.518c-0.819,0.555-2.87,2.875-2.87,2.875s-2.052-2.322-2.87-2.877
		c-1.37-0.916-2.264-2.488-2.265-4.264c-0.001-2.895,2.39-5.223,5.297-5.133C189.364,360.992,191.54,363.133,191.678,365.787z"/>
</g>
<g data-point="18">
	<text transform="matrix(1 0 0 1 242.9453 191.9155)" fill="#7F7F7F" font-family="'OpenSans'" font-size="11">Park Bulvar Mall</text>
	<path fill="#8E8E8E" stroke="#FFFFFF" stroke-width="2" stroke-miterlimit="10" d="M238.977,185.522
		c0.088,1.873-0.826,3.548-2.262,4.515c-0.82,0.555-2.871,2.878-2.871,2.878s-2.049-2.322-2.869-2.877
		c-1.369-0.919-2.264-2.491-2.266-4.267c0.002-2.892,2.393-5.221,5.299-5.132C236.664,180.728,238.842,182.867,238.977,185.522z"/>
</g>
<g data-point="19">
	<text transform="matrix(1 0 0 1 261.1563 128.7163)" fill="#7F7F7F" font-family="'OpenSans'" font-size="11">Baku Veterans’ Club</text>
	<path fill="#8E8E8E" stroke="#FFFFFF" stroke-width="2" stroke-miterlimit="10" d="M257.713,121.323
		c0.088,1.873-0.83,3.547-2.266,4.516c-0.818,0.555-2.869,2.878-2.869,2.878s-2.051-2.324-2.869-2.877
		c-1.371-0.918-2.264-2.491-2.266-4.267c0-2.892,2.391-5.22,5.299-5.132C255.398,116.527,257.574,118.667,257.713,121.323z"/>
</g>
<g data-point="20" class="finish">
	<circle fill="#FFFFFF" cx="262.545" cy="95.598" r="10.273"/>
	<g>
		<rect x="258.072" y="97.234" fill="none" width="3.082" height="3.082"/>
		<rect x="264.236" y="91.072" fill="none" width="3.084" height="3.082"/>
		<rect x="261.154" y="94.152" fill="none" width="3.082" height="3.083"/>
		<rect x="258.072" y="91.07" fill="none" width="3.082" height="3.082"/>
		<rect x="264.238" y="97.235" fill="none" width="3.08" height="3.082"/>
		<path fill="#8E8E8E" d="M258.072,94.153v-3.084l-1.764,0.001c-0.633,0.867-1.094,1.867-1.318,2.958v0.124L258.072,94.153z"/>
		<path fill="#8E8E8E" d="M261.154,91.072v-3.049c-1.133,0.205-2.178,0.659-3.082,1.303v1.745L261.154,91.072z"/>
		<rect x="261.154" y="91.072" fill="#8E8E8E" width="3.082" height="3.081"/>
		<path fill="#8E8E8E" d="M267.318,91.072v-1.508c-0.889-0.707-1.938-1.218-3.08-1.478v2.982L267.318,91.072L267.318,91.072z"/>
		<path fill="#8E8E8E" d="M267.318,91.072v3.082l2.781-0.001c-0.215-1.137-0.686-2.18-1.34-3.082L267.318,91.072z"/>
		<path fill="#8E8E8E" d="M258.072,97.235l-3.061-0.001c0.244,1.144,0.748,2.188,1.441,3.082l1.619,0.001V97.235L258.072,97.235z"/>
		<rect x="258.072" y="94.153" fill="#8E8E8E" width="3.082" height="3.082"/>
		<rect x="261.154" y="97.234" fill="#8E8E8E" width="3.082" height="3.082"/>
		<rect x="264.236" y="94.152" fill="#8E8E8E" width="3.082" height="3.082"/>
		<path fill="#8E8E8E" d="M258.072,100.316v1.553c0.902,0.644,1.949,1.095,3.082,1.303v-2.857L258.072,100.316L258.072,100.316z"/>
		<path fill="#8E8E8E" d="M264.236,100.316v2.791c1.146-0.262,2.193-0.771,3.082-1.479v-1.313L264.236,100.316L264.236,100.316z"/>
		<path fill="#8E8E8E" d="M267.318,100.316l1.301,0.001c0.691-0.895,1.193-1.939,1.441-3.083l-2.742,0.001V100.316L267.318,100.316z
			"/>
	</g>
</g>
</svg>
