<?xml version="1.0" encoding="utf-8"?>
<!-- Generator: Adobe Illustrator 16.0.0, SVG Export Plug-In . SVG Version: 6.00 Build 0)  -->
<!DOCTYPE svg PUBLIC "-//W3C//DTD SVG 1.1//EN" "http://www.w3.org/Graphics/SVG/1.1/DTD/svg11.dtd">
<svg version="1.1" id="Layer_1" xmlns="http://www.w3.org/2000/svg" xmlns:xlink="http://www.w3.org/1999/xlink" x="0px" y="0px"
	 width="12px" height="15px" viewBox="0 0 12 15" enable-background="new 0 0 12 15" xml:space="preserve">
<g>
	<g>
		<path fill="#262626" d="M10.994,6.023c0.086,1.824-0.808,3.453-2.205,4.396c-0.796,0.539-2.792,2.801-2.792,2.801
			s-1.996-2.262-2.792-2.801C1.87,9.525,1,7.995,1,6.268c0-2.816,2.327-5.082,5.156-4.997C8.741,1.356,10.859,3.438,10.994,6.023z"
			/>
		<path fill="#FFFFFF" d="M5.997,14.731l-0.75-0.849c-0.74-0.838-2.101-2.294-2.604-2.634C0.99,10.14,0,8.277,0,6.268
			c0-3.308,2.692-6,6.002-6l0.184,0.003c3.096,0.103,5.646,2.607,5.807,5.7c0.1,2.121-0.888,4.092-2.644,5.277
			c-0.501,0.34-1.863,1.796-2.603,2.634L5.997,14.731z M6.002,2.268C3.795,2.268,2,4.062,2,6.268C2,7.608,2.658,8.85,3.761,9.589
			c0.571,0.386,1.543,1.392,2.236,2.141c0.692-0.749,1.664-1.753,2.232-2.138c1.173-0.792,1.833-2.108,1.766-3.521
			c-0.107-2.06-1.808-3.732-3.872-3.8L6.002,2.268z"/>
	</g>
</g>
</svg>
