<?xml version="1.0" encoding="utf-8"?>
<!-- Generator: Adobe Illustrator 16.0.0, SVG Export Plug-In . SVG Version: 6.00 Build 0)  -->
<!DOCTYPE svg PUBLIC "-//W3C//DTD SVG 1.1//EN" "http://www.w3.org/Graphics/SVG/1.1/DTD/svg11.dtd">
<svg version="1.1" id="Layer_1" xmlns="http://www.w3.org/2000/svg" xmlns:xlink="http://www.w3.org/1999/xlink" x="0px" y="0px"
	 width="32px" height="32px" viewBox="-2 -2.002 32 32" enable-background="new -2 -2.002 32 32" xml:space="preserve">
<g>
	<circle fill="#D42F33" cx="14" cy="14" r="15.5"/>
</g>
<g>
	<path fill="#FFFFFF" d="M9.302,19.438c-0.142,0-0.283-0.056-0.392-0.161c-0.216-0.217-0.216-0.567,0-0.783l9.393-9.394
		c0.217-0.216,0.567-0.216,0.783,0c0.216,0.215,0.216,0.566,0,0.782l-9.393,9.395C9.586,19.382,9.444,19.438,9.302,19.438z"/>
	<path fill="#FFFFFF" d="M18.695,19.438c-0.142,0-0.284-0.056-0.393-0.161L8.91,9.881c-0.216-0.216-0.216-0.567,0-0.782
		c0.216-0.216,0.567-0.216,0.783,0l9.393,9.394c0.216,0.216,0.216,0.566,0,0.783C18.979,19.382,18.837,19.438,18.695,19.438z"/>
</g>
</svg>
