<?xml version="1.0" encoding="utf-8"?>
<!-- Generator: Adobe Illustrator 16.0.0, SVG Export Plug-In . SVG Version: 6.00 Build 0)  -->
<!DOCTYPE svg PUBLIC "-//W3C//DTD SVG 1.1//EN" "http://www.w3.org/Graphics/SVG/1.1/DTD/svg11.dtd">
<svg version="1.1" id="Layer_1" xmlns="http://www.w3.org/2000/svg" xmlns:xlink="http://www.w3.org/1999/xlink" x="0px" y="0px"
	 width="32px" height="32px" viewBox="-2 -2 32 32" enable-background="new -2 -2 32 32" xml:space="preserve">
<g>
	<circle fill="#D42F33" cx="14" cy="14" r="15.5"/>
</g>
<g>
	<path fill="#FFFFFF" d="M19.999,16.105h-12c-0.276,0-0.5-0.224-0.5-0.5c0-0.275,0.224-0.5,0.5-0.5h12c0.276,0,0.5,0.225,0.5,0.5
		C20.499,15.882,20.275,16.105,19.999,16.105z"/>
	<path fill="#FFFFFF" d="M17.999,19.105h-8c-0.276,0-0.5-0.224-0.5-0.5c0-0.275,0.224-0.5,0.5-0.5h8c0.276,0,0.5,0.225,0.5,0.5
		C18.499,18.882,18.275,19.105,17.999,19.105z"/>
	<path fill="#FFFFFF" d="M19.999,10.106h-12c-0.276,0-0.5-0.224-0.5-0.5s0.224-0.5,0.5-0.5h12c0.276,0,0.5,0.224,0.5,0.5
		S20.275,10.106,19.999,10.106z"/>
	<path fill="#FFFFFF" d="M17.999,13.106h-8c-0.276,0-0.5-0.224-0.5-0.5s0.224-0.5,0.5-0.5h8c0.276,0,0.5,0.224,0.5,0.5
		S18.275,13.106,17.999,13.106z"/>
</g>
</svg>
