<?xml version="1.0" encoding="utf-8"?>
<!-- Generator: Adobe Illustrator 16.0.0, SVG Export Plug-In . SVG Version: 6.00 Build 0)  -->
<!DOCTYPE svg PUBLIC "-//W3C//DTD SVG 1.1//EN" "http://www.w3.org/Graphics/SVG/1.1/DTD/svg11.dtd">
<svg version="1.1" id="Layer_1" xmlns="http://www.w3.org/2000/svg" xmlns:xlink="http://www.w3.org/1999/xlink" x="0px" y="0px"
	 width="24.997px" height="45.003px" viewBox="0 0 24.997 45.003" enable-background="new 0 0 24.997 45.003" xml:space="preserve">
<path fill="#FFFFFF" d="M22.853,0l-7.862,7.741c-0.044,0.04-0.084,0.08-0.123,0.12l-0.438,0.43c0,0,0,0.003-0.003,0.003
	l-0.123,0.123c-0.027,0.028-0.059,0.058-0.09,0.089l-0.069,0.068c-0.019,0.018-0.033,0.033-0.052,0.052l-0.037,0.037
	c-0.025,0.021-0.047,0.046-0.071,0.07L2.141,20.393L0,22.503l2.141,2.107l11.916,11.729c0.01,0.009,0.018,0.019,0.031,0.027
	l0.113,0.113c0.039,0.04,0.082,0.083,0.125,0.123l0.086,0.086c0.012,0.012,0.027,0.027,0.039,0.04l0.074,0.073
	c0.018,0.016,0.03,0.031,0.049,0.047l0.07,0.07c0.135,0.135,0.27,0.264,0.402,0.396l0.178,0.179c0.027,0.024,0.052,0.045,0.076,0.07
	l0.086,0.089c0.039,0.036,0.083,0.076,0.119,0.116l0.15,0.146c0.01,0.01,0.022,0.021,0.031,0.03l0.208,0.203
	c0.009,0.013,0.019,0.022,0.026,0.031l0.047,0.043c0.07,0.069,0.137,0.138,0.207,0.204l0.123,0.123
	c0.318,0.314,0.632,0.619,0.938,0.924l5.615,5.529l2.144-2.11L4.284,22.503L24.997,2.11L22.853,0z"/>
</svg>
