<?xml version="1.0" encoding="utf-8"?>
<!-- Generator: Adobe Illustrator 16.0.0, SVG Export Plug-In . SVG Version: 6.00 Build 0)  -->
<!DOCTYPE svg PUBLIC "-//W3C//DTD SVG 1.1//EN" "http://www.w3.org/Graphics/SVG/1.1/DTD/svg11.dtd">
<svg version="1.1"
	 id="svg2" shape-rendering="auto" text-rendering="auto" image-rendering="auto" color-rendering="auto" color-interpolation="auto" xmlns:svg="http://www.w3.org/2000/svg" xmlns:sodipodi="http://sodipodi.sourceforge.net/DTD/sodipodi-0.dtd" xmlns:inkscape="http://www.inkscape.org/namespaces/inkscape" xmlns:cc="http://creativecommons.org/ns#" xmlns:dc="http://purl.org/dc/elements/1.1/" xmlns:rdf="http://www.w3.org/1999/02/22-rdf-syntax-ns#" inkscape:version="0.48.4 r9939" sodipodi:docname="clipboard.svg"
	 xmlns="http://www.w3.org/2000/svg" xmlns:xlink="http://www.w3.org/1999/xlink" x="0px" y="0px" width="18.006px" height="18px"
	 viewBox="88.731 126.562 18.006 18" enable-background="new 88.731 126.562 18.006 18" xml:space="preserve">
<sodipodi:namedview  id="namedview11" gridtolerance="10" inkscape:cx="240.66829" borderopacity="1" showgrid="false" fit-margin-top="0" inkscape:cy="138.77866" pagecolor="#ffffff" bordercolor="#666666" inkscape:zoom="1.2685914" objecttolerance="10" fit-margin-left="0" guidetolerance="10" fit-margin-bottom="0" inkscape:pageopacity="0" inkscape:window-x="49" fit-margin-right="0" inkscape:window-width="1551" inkscape:window-maximized="1" inkscape:current-layer="svg2" inkscape:window-height="876" inkscape:pageshadow="2" inkscape:window-y="24">
	</sodipodi:namedview>
<g id="g5" transform="translate(-11.5312,-68.4844)">
	<g id="g7">
		<path id="path9" inkscape:connector-curvature="0" d="M115.628,211.389c0,0.115-0.062,0.309-0.184,0.577
			c-0.086,0.188-0.262,0.387-0.531,0.595c-0.268,0.208-0.497,0.312-0.686,0.312h-9.923c-0.11,0-0.269-0.054-0.476-0.16
			c-0.207-0.107-0.409-0.295-0.604-0.563c-0.213-0.287-0.32-0.544-0.32-0.769v-12.396c0-0.098,0.05-0.281,0.151-0.549
			c0.101-0.269,0.3-0.502,0.6-0.701c0.299-0.198,0.592-0.297,0.878-0.297h2.582c0.092,0,0.153-0.034,0.183-0.101
			c0.019-0.037,0.028-0.177,0.028-0.42c0-0.227,0.076-0.373,0.229-0.44c0.08-0.036,0.253-0.058,0.522-0.064h0.101
			c0.018-0.153,0.039-0.305,0.064-0.458c0.024-0.152,0.089-0.29,0.192-0.411c0.055-0.062,0.18-0.131,0.375-0.207
			c0.195-0.076,0.339-0.115,0.43-0.115c0.134,0,0.311,0.057,0.53,0.169c0.22,0.113,0.354,0.224,0.404,0.334
			c0.072,0.171,0.106,0.391,0.1,0.659c0.018,0.006,0.153,0.009,0.402,0.009c0.318,0,0.478,0.229,0.478,0.686
			c0,0.238,0.075,0.357,0.228,0.357h2.618c0.324,0,0.633,0.112,0.93,0.339c0.296,0.226,0.492,0.491,0.591,0.796
			c0.072,0.238,0.109,0.372,0.109,0.403V211.389z M113.293,199.277v-0.906c0-0.104-0.085-0.219-0.256-0.344
			c-0.171-0.125-0.311-0.188-0.42-0.188h-1.145c-0.532,0-0.809-0.305-0.833-0.916h-0.165c-0.257,0.006-0.419-0.04-0.486-0.137
			c-0.036-0.049-0.103-0.293-0.2-0.732c-0.062-0.269-0.245-0.403-0.55-0.403c-0.324,0-0.526,0.215-0.609,0.646
			c-0.083,0.43-0.276,0.645-0.581,0.645c-0.067,0-0.141-0.006-0.22-0.018c-0.019,0.61-0.293,0.916-0.824,0.916h-1.117
			c-0.14,0-0.293,0.065-0.458,0.196c-0.165,0.131-0.247,0.264-0.247,0.399v0.842H113.293z M114.85,211.509v-12.68
			c0-0.134-0.095-0.284-0.284-0.449c-0.188-0.165-0.351-0.248-0.484-0.248h-0.468c0.037,0.074,0.056,0.138,0.056,0.192v1.419h-8.861
			v-1.611h-0.357c-0.134,0-0.295,0.085-0.485,0.256s-0.284,0.321-0.284,0.449v12.66c0,0.141,0.101,0.293,0.302,0.458
			c0.201,0.164,0.375,0.247,0.522,0.247h9.521c0.14,0,0.312-0.084,0.517-0.252C114.748,211.784,114.85,211.637,114.85,211.509z
			 M109.641,196.375c0,0.25-0.131,0.375-0.394,0.375c-0.256,0-0.384-0.131-0.384-0.394c0-0.256,0.128-0.384,0.384-0.384
			C109.51,195.973,109.641,196.107,109.641,196.375z"/>
	</g>
</g>
</svg>
