<?xml version="1.0" encoding="utf-8"?>
<!-- Generator: Adobe Illustrator 16.0.0, SVG Export Plug-In . SVG Version: 6.00 Build 0)  -->
<!DOCTYPE svg PUBLIC "-//W3C//DTD SVG 1.1//EN" "http://www.w3.org/Graphics/SVG/1.1/DTD/svg11.dtd">
<svg version="1.1" id="Layer_1" xmlns="http://www.w3.org/2000/svg" xmlns:xlink="http://www.w3.org/1999/xlink" x="0px" y="0px"
	 width="27px" height="27px" viewBox="36.5 36.5 27 27" enable-background="new 36.5 36.5 27 27" xml:space="preserve">
<path fill="#282828" d="M50.102,57.502c-0.002,0-0.008,0.002-0.016,0.002C50.092,57.502,50.096,57.502,50.102,57.502"/>
<polyline fill="#282828" points="49.234,42.615 49.227,42.625 49.234,42.615 "/>
<path fill="#282828" d="M59.337,44.189c-0.217-0.378-0.545-0.675-0.941-0.836c-0.214-0.086-0.444-0.14-0.687-0.14H42.494
	c-0.243,0-0.471,0.054-0.687,0.14c-0.396,0.162-0.725,0.458-0.942,0.838c-0.17,0.296-0.273,0.64-0.273,1.011v9.599
	c0,0.326,0.082,0.63,0.218,0.902c0.19,0.389,0.499,0.702,0.877,0.891c0.244,0.12,0.515,0.193,0.807,0.193h15.215
	c0.291,0,0.562-0.073,0.807-0.193c0.378-0.188,0.685-0.502,0.877-0.891c0.136-0.272,0.218-0.578,0.218-0.902v-9.599
	C59.61,44.831,59.506,44.487,59.337,44.189L59.337,44.189z M57.109,44.447l-7.009,5.967l-7.006-5.967H57.109L57.109,44.447z
	 M41.859,54.681v-9.479c0-0.051,0.016-0.098,0.025-0.146l5.263,4.48L41.859,54.681L41.859,54.681z M42.756,55.553l5.344-5.202
	l2,1.704l2.001-1.704l5.346,5.202H42.756L42.756,55.553z M58.345,54.681l-5.288-5.145l5.263-4.48
	c0.009,0.048,0.025,0.095,0.025,0.145V54.681L58.345,54.681z"/>
</svg>
