<?xml version="1.0" encoding="utf-8"?>
<!-- Generator: Adobe Illustrator 16.0.0, SVG Export Plug-In . SVG Version: 6.00 Build 0)  -->
<!DOCTYPE svg PUBLIC "-//W3C//DTD SVG 1.1//EN" "http://www.w3.org/Graphics/SVG/1.1/DTD/svg11.dtd">
<svg version="1.1" id="Layer_1" xmlns="http://www.w3.org/2000/svg" xmlns:xlink="http://www.w3.org/1999/xlink" x="0px" y="0px"
	 width="199.857px" height="52.756px" viewBox="-77.328 -9.395 199.857 52.756"
	 enable-background="new -77.328 -9.395 199.857 52.756" xml:space="preserve">
<g>
	<path fill="none" d="M-35.542-4.376c-1.644,2.171-3.299,4.337-4.916,6.509C-38.841-0.039-37.185-2.205-35.542-4.376z"/>
	<path fill="none" d="M-36.339,11.705c-0.297-0.822-1.312-2.75-1.418-2.917c-0.631-1.024-1.368-1.924-2.187-2.748
		c-0.652-0.657-1.376-1.214-2.116-1.734c-1.102-0.774-2.275-1.426-3.533-1.885c-1.693-0.631-3.472-0.954-5.287-0.963l0.028-5.427
		l-0.028,5.426c-1.614-0.012-3.233,0.167-4.816,0.68c-0.591,0.186-1.16,0.483-1.735,0.746c-0.404,0.188-2.431,1.368-2.999,1.809
		c-0.362,0.279-0.731,0.542-1.059,0.849c-0.135,0.125-0.247,0.266-0.374,0.396c-0.714,0.707-1.348,1.464-1.905,2.281
		c-1.126,1.656-1.917,3.489-2.34,5.427c-0.388,1.758-0.501,3.572-0.258,5.389c0.153,1.149,0.472,2.284,0.892,3.397
		c0.159,0.424,0.349,0.835,0.547,1.241c0.116,0.242,0.195,0.488,0.325,0.726c0.046,0.085,0.063,0.178,0.113,0.262
		c1.116,1.96,2.61,3.569,4.317,4.821c1.88,1.387,4.039,2.273,6.306,2.709c2.16,0.415,4.391,0.368,6.583-0.166
		c1.371-0.334,2.732-0.794,4.026-1.527l0.006-0.002c0.95-0.542,1.814-1.174,2.608-1.87c0.704-0.62,1.336-1.306,1.903-2.03
		c1.418-1.8,2.382-3.87,2.901-6.07v-0.004c0.413-1.755,0.563-3.571,0.347-5.389c-0.025-0.267-0.077-0.527-0.126-0.799
		C-35.763,13.448-36.023,12.57-36.339,11.705z"/>
	<path fill="#C32E30" d="M-61.863,5.937c0.127-0.129,0.239-0.271,0.374-0.396l-7.337-7.949c-0.289,0.263-0.391,0.356-0.667,0.629
		c-1.144,1.142-2.323,2.551-3.23,3.887l8.955,6.109C-63.21,7.401-62.577,6.644-61.863,5.937z"/>
	<path fill="#F6B72D" d="M-63.768,8.218l-8.955-6.109c-2.062,3.016-3.201,5.661-3.972,9.227c-0.003,0.003-0.003,0.003-0.003,0.003
		l10.59,2.307C-65.685,11.707-64.894,9.874-63.768,8.218z"/>
	<path fill="#EB5D30" d="M-66.108,13.645l-10.59-2.307c-0.004,0-0.004,0-0.004,0c-0.691,3.17-0.805,5.928-0.365,9.141l10.701-1.445
		C-66.61,17.217-66.496,15.403-66.108,13.645z"/>
	<path fill="#C32E30" d="M-66.366,19.034l-10.701,1.445l-0.002,0.002c0.268,2.001,0.751,3.887,1.461,5.782l10.134-3.832
		C-65.895,21.318-66.213,20.184-66.366,19.034z"/>
	<path fill="#EE5E2D" d="M-65.474,22.432l-10.134,3.832c0.283,0.742,0.562,1.39,0.907,2.11l9.774-4.701
		C-65.125,23.267-65.315,22.855-65.474,22.432z"/>
	<path fill="#C32E30" d="M-64.927,23.673l-9.774,4.701c0.226,0.464,0.461,0.923,0.708,1.361c3.096-1.759,6.089-3.46,9.391-5.337
		C-64.732,24.161-64.811,23.915-64.927,23.673z"/>
	<path fill="#F6B72D" d="M-64.489,24.66c-0.049-0.084-0.066-0.177-0.113-0.262c-3.302,1.877-6.295,3.578-9.391,5.337
		c1.851,3.386,4.257,6.11,7.434,8.441l6.388-8.695C-61.878,28.229-63.373,26.62-64.489,24.66z"/>
	<path fill="#C32E30" d="M-60.171,29.481l-6.388,8.695l0.003,0.005c3.192,2.34,6.583,3.89,10.126,4.643
		c0.854-3.549,1.709-7.09,2.564-10.634C-56.133,31.755-58.292,30.868-60.171,29.481z"/>
	<path fill="#F6B72D" d="M-53.866,32.19c-0.855,3.544-1.71,7.085-2.564,10.634c3.738,0.795,7.658,0.711,11.71-0.28l-2.563-10.52
		C-49.475,32.559-51.706,32.605-53.866,32.19z"/>
	<path fill="#C32E30" d="M-43.251,30.495c1.767,3.108,3.533,6.214,5.331,9.378c1.577-0.886,3.053-1.936,4.425-3.164
		c-2.385-2.699-4.763-5.389-7.147-8.084C-41.437,29.321-42.301,29.953-43.251,30.495z"/>
	<path fill="#EB5D30" d="M-43.257,30.497c-1.294,0.733-2.655,1.193-4.026,1.527l2.563,10.52c2.466-0.599,4.726-1.498,6.8-2.671
		c-1.798-3.164-3.564-6.27-5.331-9.378L-43.257,30.497z"/>
	<path fill="#F6B72D" d="M-40.643,28.625c2.385,2.695,4.763,5.385,7.147,8.084c1.136-1.025,2.207-2.16,3.208-3.433l-8.453-6.682
		C-39.307,27.319-39.938,28.005-40.643,28.625z"/>
	<path fill="#C32E30" d="M-38.739,26.595l8.453,6.682c2.514-3.187,4.03-6.316,4.965-10.265l-10.516-2.487
		C-36.357,22.725-37.321,24.795-38.739,26.595z"/>
	<path fill="#F6B72D" d="M-24.798,13.872l-10.693,1.26c0.217,1.817,0.066,3.634-0.347,5.389l10.512,2.484l0.004,0.007
		C-24.581,19.847-24.42,17.101-24.798,13.872z"/>
	<polygon fill="#909293" points="-35.838,20.521 -35.838,20.524 -25.322,23.012 -25.326,23.005 	"/>
	<path fill="#C32E30" d="M-35.491,15.132l10.693-1.26c-0.046-0.384-0.135-0.976-0.196-1.361l-10.623,1.822
		C-35.568,14.604-35.516,14.865-35.491,15.132z"/>
	<path fill="#EE5E2D" d="M-35.617,14.333l10.623-1.822c-0.272-1.595-0.629-2.922-1.17-4.445l-10.174,3.639
		C-36.023,12.57-35.763,13.448-35.617,14.333z"/>
	<path fill="#F6B72D" d="M-36.339,11.705l10.174-3.639c-0.676-1.901-1.323-3.237-2.382-4.961l-9.21,5.684
		C-37.651,8.956-36.636,10.883-36.339,11.705z"/>
	<path fill="#EE5E2D" d="M-37.757,8.789l9.21-5.684c-1.063-1.719-2.277-3.234-3.701-4.677l-7.696,7.613
		C-39.125,6.864-38.389,7.764-37.757,8.789z"/>
	<path fill="#C32E30" d="M-42.06,4.307c0.739,0.52,1.464,1.077,2.116,1.734l7.696-7.613c-1.068-1.08-2.165-1.978-3.294-2.804
		c-1.643,2.171-3.299,4.337-4.916,6.509C-40.997,2.856-41.531,3.582-42.06,4.307z"/>
	<path fill="#EE5E2D" d="M-42.06,4.307c0.529-0.725,1.062-1.45,1.602-2.174c1.617-2.171,3.271-4.338,4.916-6.509
		c-1.892-1.383-3.895-2.503-6.276-3.385l-3.774,10.183C-44.335,2.88-43.162,3.533-42.06,4.307z"/>
	<path fill="#F6B72D" d="M-50.852-3.969l-0.028,5.427c1.815,0.009,3.594,0.332,5.287,0.963l3.774-10.183
		c-3.048-1.124-5.766-1.617-9.006-1.634v0.001l0,0L-50.852-3.969z"/>
	<path fill="#EB5D30" d="M-50.879,1.458l0.028-5.426l0.027-5.425l0,0c-2.836-0.014-5.448,0.379-8.146,1.243l3.274,10.289
		C-54.112,1.625-52.494,1.446-50.879,1.458z"/>
	<path fill="#C32E30" d="M-55.696,2.138L-58.97-8.151c-1.152,0.373-1.9,0.663-3,1.164l4.539,9.87
		C-56.855,2.621-56.287,2.324-55.696,2.138z"/>
	<path fill="#F6B72D" d="M-57.431,2.883l-4.539-9.87c-1.839,0.852-3.506,1.851-5.104,3.091l6.644,8.588
		C-59.862,4.251-57.835,3.072-57.431,2.883z"/>
	<path fill="#EB5D30" d="M-60.43,4.692l-6.644-8.588c-0.633,0.488-1.169,0.943-1.752,1.489l7.337,7.949
		C-61.161,5.235-60.792,4.971-60.43,4.692z"/>
</g>
<g>
	<g>
		<g>
			<path fill="#C32E30" d="M-16.589,29.218c-0.962,0-1.628-0.106-2.24-0.213v-2.986c0.427,0.16,1.013,0.268,1.652,0.268
				c1.253,0,1.974-0.535,1.974-2.48V5.705h3.465v18.235C-11.738,26.898-12.938,29.218-16.589,29.218z"/>
			<path fill="#C32E30" d="M1.083,23.725c0-0.611,0.027-1.625,0.159-2.372l-0.053-0.025c-0.774,1.574-2.319,2.666-4.479,2.666
				c-3.012,0-3.972-1.92-3.972-4.237v-6.692c-0.64-0.107-1.52-0.215-2.293-0.268v-2.133c1.76-0.213,3.866-0.292,5.705-0.239v8.505
				c0,1.386,0.375,2.212,1.626,2.212c1.733,0,3.093-1.974,3.093-4.292V10.45h3.387v10.638c0.64,0.104,1.545,0.213,2.319,0.265v2.135
				C4.896,23.699,2.843,23.779,1.083,23.725z"/>
			<path fill="#C32E30" d="M25.527,23.699v-8.397c0-1.414-0.319-2.293-1.574-2.293c-1.49,0-3.038,1.76-3.038,4.346v6.345h-3.359
				v-8.397c0-1.307-0.267-2.293-1.573-2.293c-1.573,0-3.039,1.866-3.039,4.346v6.345H9.558V13.063
				c-0.64-0.107-1.545-0.215-2.32-0.268v-2.133c1.68-0.213,3.759-0.292,5.519-0.239c0,0.64-0.055,1.626-0.16,2.397h0.026
				c0.8-1.625,2.399-2.665,4.374-2.665c2.343,0,3.331,1.387,3.652,2.665c0.613-1.305,2.077-2.665,4.317-2.665
				c2.561,0,3.973,1.414,3.973,4.426v9.117H25.527z"/>
			<path fill="#C32E30" d="M31.174,12.796v-2.133c1.682-0.213,3.706-0.292,5.465-0.239c0,0.665-0.024,1.545-0.131,2.239h0.052
				c0.748-1.547,2.16-2.48,4.159-2.48c3.145,0,4.854,2.267,4.854,6.184c0,4.613-2.4,7.521-6.985,7.521
				c-0.642,0-1.148-0.027-1.707-0.107v6.346h-3.387V13.063C32.855,12.956,31.948,12.848,31.174,12.796z M39.732,12.982
				c-1.787,0-2.853,2.081-2.853,4.346v3.68c0.533,0.158,1.092,0.239,1.785,0.239c1.948,0,3.333-1.228,3.333-4.506
				C41.998,14.262,41.28,12.982,39.732,12.982z"/>
			<path fill="#C32E30" d="M51.727,23.993c-1.279,0-2.561-0.134-3.678-0.426l0.212-3.227c1.012,0.346,2.455,0.639,3.761,0.639
				c1.759,0,3.119-0.72,3.119-2.371c0-3.439-7.548-1.867-7.548-7.785c0-3.2,2.535-5.412,6.854-5.412
				c1.013,0,2.185,0.133,3.251,0.319l-0.187,3.041c-1.014-0.294-2.133-0.48-3.225-0.48c-2,0-3.013,0.905-3.013,2.186
				c0,3.225,7.57,2.026,7.57,7.651C58.845,21.514,56.151,23.993,51.727,23.993z"/>
			<path fill="#C32E30" d="M66.227,23.968c-2.932,0-3.839-1.066-3.839-4.16v-6.719h-2.291V10.45h2.266V6.372l3.412-0.909v4.987
				h3.227v2.639h-3.227v5.813c0,1.705,0.4,2.186,1.571,2.186c0.562,0,1.176-0.08,1.655-0.215v2.747
				C68.147,23.833,67.159,23.968,66.227,23.968z"/>
			<path fill="#C32E30" d="M78.862,23.725c0-0.771,0.027-1.57,0.131-2.264l-0.024-0.027c-0.64,1.491-2.266,2.534-4.238,2.534
				c-2.398,0-3.788-1.359-3.788-3.494c0-3.172,3.148-4.853,7.654-4.853v-0.72c0-1.386-0.669-2.105-2.587-2.105
				c-1.198,0-2.8,0.4-3.921,1.039l-0.293-2.851c1.333-0.48,3.04-0.827,4.747-0.827c4.266,0,5.463,1.707,5.463,4.612v6.319
				c0.642,0.104,1.55,0.213,2.32,0.265v2.135C82.647,23.699,80.595,23.779,78.862,23.725z M78.597,17.835
				c-3.601,0-4.4,1.039-4.4,2.106c0,0.853,0.584,1.411,1.574,1.411c1.678,0,2.826-1.597,2.826-3.199V17.835z"/>
			<path fill="#C32E30" d="M90.051,13.116h0.052c0.642-1.681,1.921-3.145,4.213-2.959l-0.159,3.359
				c-2.455-0.507-3.678,1.093-3.678,4.771v5.412h-3.387V13.063c-0.64-0.107-1.547-0.215-2.319-0.268v-2.133
				c1.68-0.213,3.733-0.292,5.52-0.239C90.292,11.116,90.211,12.183,90.051,13.116z"/>
			<path fill="#C32E30" d="M101.632,23.968c-2.933,0-3.84-1.066-3.84-4.16v-6.719h-2.293V10.45h2.268V6.372l3.41-0.909v4.987h3.227
				v2.639h-3.227v5.813c0,1.705,0.4,2.186,1.574,2.186c0.559,0,1.173-0.08,1.652-0.215v2.747
				C103.55,23.833,102.563,23.968,101.632,23.968z"/>
		</g>
	</g>
	<path fill="#C32E30" d="M114.311,5.367c-0.785-0.306-1.687-0.494-2.6-0.494c-1.934,0-3.324,1.22-3.324,3.413
		c0,2.076,1.129,3.296,3.12,3.296c0.466,0,0.87-0.06,1.25-0.175v-3.41h1.884v4.674c-0.97,0.391-2.176,0.609-3.35,0.609
		c-3.108,0-4.954-1.829-4.954-4.819c0-3.08,2.093-5.27,5.49-5.27c0.972,0,1.929,0.174,2.772,0.421L114.311,5.367z"/>
	<path fill="#C32E30" d="M122.471,9.825h-4.473c-0.012,1.351,0.654,2.004,1.989,2.004c0.713,0,1.48-0.161,2.108-0.45l0.172,1.436
		c-0.771,0.307-1.682,0.465-2.583,0.465c-2.295,0-3.571-1.146-3.571-3.688c0-2.207,1.219-3.832,3.382-3.832
		c2.104,0,3.034,1.437,3.034,3.223C122.529,9.229,122.513,9.52,122.471,9.825z M119.438,7.123c-0.771,0-1.307,0.568-1.406,1.439
		h2.654C120.712,7.661,120.221,7.123,119.438,7.123z"/>
</g>
</svg>
