<?xml version="1.0" encoding="utf-8"?>
<!-- Generator: Adobe Illustrator 16.0.0, SVG Export Plug-In . SVG Version: 6.00 Build 0)  -->
<!DOCTYPE svg PUBLIC "-//W3C//DTD SVG 1.1//EN" "http://www.w3.org/Graphics/SVG/1.1/DTD/svg11.dtd">
<svg version="1.1" id="Layer_1" xmlns="http://www.w3.org/2000/svg" xmlns:xlink="http://www.w3.org/1999/xlink" x="0px" y="0px"
	 width="27px" height="27px" viewBox="36.5 36.5 27 27" enable-background="new 36.5 36.5 27 27" xml:space="preserve">
<path fill="#292929" d="M54.267,42.119c1.186,0,3.943,0.455,3.943,4.664c0.001,6.336-6.583,11.155-8.481,12.413
	c-1.898-1.258-8.482-6.076-8.482-12.413c0-4.209,2.759-4.664,3.945-4.664c3.345,0,4.537,3.35,4.537,3.788l0,0
	C49.728,45.297,50.973,42.119,54.267,42.119 M54.267,41.119c-2.301,0-4.538,1.363-4.538,3.177c0-1.814-2.237-3.177-4.539-3.177
	c-2.436,0-4.944,1.528-4.944,5.664c0,8.043,9.482,13.597,9.482,13.597s9.482-5.554,9.481-13.597
	C59.21,42.646,56.702,41.119,54.267,41.119L54.267,41.119z"/>
</svg>
