<?xml version="1.0" encoding="utf-8"?>
<!-- Generator: Adobe Illustrator 16.0.0, SVG Export Plug-In . SVG Version: 6.00 Build 0)  -->
<!DOCTYPE svg PUBLIC "-//W3C//DTD SVG 1.1//EN" "http://www.w3.org/Graphics/SVG/1.1/DTD/svg11.dtd">
<svg version="1.1" id="Layer_1" xmlns="http://www.w3.org/2000/svg" xmlns:xlink="http://www.w3.org/1999/xlink" x="0px" y="0px"
	 width="27px" height="27px" viewBox="34.188 0 27 27" enable-background="new 34.188 0 27 27" xml:space="preserve">
<g>
	<path fill="none" d="M50.461,12.666c0.005,0.14,0.018,0.279,0.018,0.418c0,0.721-0.058,1.439-0.159,2.15
		c-0.002,0.016-0.005,0.032-0.008,0.049c-0.002,0.016-0.005,0.031-0.007,0.047c-0.036,0.24-0.075,0.479-0.123,0.717
		c-0.003,0.017-0.007,0.033-0.01,0.05c-0.004,0.017-0.008,0.033-0.012,0.05c-0.22,1.073-0.552,2.121-0.997,3.12
		c-0.295,0.086-0.6,0.148-0.91,0.19c0.535-1.088,0.926-2.24,1.173-3.43c0.003-0.017,0.005-0.033,0.009-0.049
		c0.003-0.017,0.006-0.033,0.009-0.049c0.048-0.238,0.097-0.476,0.132-0.716c0.003-0.017,0.007-0.032,0.01-0.049
		c0.002-0.017,0.006-0.032,0.009-0.049c0.095-0.673,0.157-1.35,0.157-2.032c0-0.222-0.016-0.443-0.028-0.665
		c-0.656-0.293-1.215-0.753-1.644-1.32c-0.233,0.013-0.467,0.03-0.703,0.03c-0.71,0-1.409-0.065-2.102-0.161
		c0.036-0.24,0.086-0.477,0.133-0.714c0.648,0.088,1.304,0.148,1.969,0.148c0.091,0,0.181-0.009,0.271-0.011
		c-0.267-0.555-0.43-1.168-0.43-1.825c0-0.728,0.201-1.403,0.525-2.001C47.62,6.559,47.5,6.545,47.376,6.545
		c-0.239,0-0.476,0.015-0.708,0.04c-0.003,0-0.006,0.001-0.009,0.001C46.62,6.591,46.583,6.6,46.545,6.604
		c-0.299,0.038-0.59,0.097-0.874,0.174c-0.031,0.008-0.063,0.015-0.095,0.024c-0.02,0.005-0.041,0.01-0.061,0.016
		c-1.402,0.417-2.604,1.293-3.441,2.453c-0.003,0.004-0.006,0.009-0.01,0.013c-0.017,0.024-0.036,0.046-0.053,0.071
		c-0.141,0.202-0.272,0.409-0.391,0.626c-0.007,0.014-0.013,0.03-0.021,0.044c-0.008,0.015-0.015,0.03-0.021,0.045
		c-0.472,0.903-0.742,1.926-0.742,3.014c0,1.086,0.271,2.111,0.741,3.013c0.002,0.003,0.003,0.005,0.004,0.008
		c0.014,0.026,0.024,0.055,0.039,0.08c0.117,0.218,0.249,0.426,0.39,0.627c0.011,0.015,0.022,0.028,0.032,0.043
		s0.021,0.027,0.031,0.041c0.837,1.161,2.041,2.038,3.444,2.455c0.02,0.006,0.04,0.01,0.06,0.016c0.02,0.005,0.04,0.01,0.061,0.016
		c0.295,0.081,0.599,0.144,0.909,0.183c0.021,0.003,0.042,0.008,0.063,0.01c0.021,0.003,0.039,0.007,0.06,0.009
		c0.231,0.025,0.467,0.04,0.705,0.04s0.474-0.015,0.705-0.04c0.003,0,0.006-0.001,0.009-0.001c0.039-0.004,0.076-0.013,0.114-0.018
		c0.311-0.039,0.614-0.102,0.91-0.184c0.02-0.005,0.04-0.01,0.061-0.016c0.02-0.005,0.04-0.009,0.06-0.015
		c1.402-0.417,2.606-1.294,3.443-2.454c0.011-0.015,0.021-0.028,0.031-0.042c0.011-0.015,0.021-0.028,0.031-0.042
		c0.141-0.202,0.273-0.41,0.391-0.628c0.008-0.014,0.014-0.029,0.021-0.043c0.008-0.015,0.014-0.03,0.021-0.045
		c0.471-0.902,0.741-1.926,0.741-3.013c0-0.351-0.038-0.693-0.092-1.029c-0.679,0.464-1.497,0.737-2.381,0.737
		C51.103,12.792,50.777,12.742,50.461,12.666z M42.107,9.393c0.771,0.302,1.557,0.548,2.363,0.712
		c-0.047,0.237-0.086,0.476-0.121,0.715c-0.9-0.182-1.777-0.457-2.635-0.802C41.832,9.801,41.967,9.594,42.107,9.393z
		 M42.107,16.775c-0.142-0.201-0.275-0.408-0.394-0.626c0.857-0.346,1.734-0.621,2.635-0.804c0.036,0.24,0.075,0.479,0.122,0.717
		C43.663,16.227,42.877,16.473,42.107,16.775z M45.59,19.267c-0.445-0.999-0.778-2.047-0.998-3.12
		c-0.004-0.017-0.008-0.032-0.011-0.049c-0.004-0.017-0.008-0.034-0.011-0.051c-0.048-0.237-0.087-0.477-0.123-0.717
		c-0.002-0.018-0.006-0.035-0.008-0.053c-0.002-0.015-0.005-0.029-0.007-0.043c-0.102-0.711-0.159-1.429-0.159-2.15
		s0.067-1.438,0.169-2.149c0.002-0.017,0.007-0.033,0.009-0.049s0.006-0.032,0.009-0.048c0.036-0.239,0.084-0.476,0.131-0.713
		c0.004-0.018,0.007-0.037,0.011-0.055c0.003-0.015,0.005-0.031,0.008-0.046c0.222-1.079,0.561-2.125,1.009-3.129
		c0.285-0.081,0.578-0.141,0.878-0.183c-0.534,1.088-0.924,2.24-1.17,3.428c-0.004,0.016-0.006,0.032-0.009,0.047
		c-0.004,0.017-0.006,0.034-0.01,0.051c-0.047,0.237-0.095,0.474-0.131,0.714c-0.002,0.017-0.007,0.033-0.009,0.049
		c-0.003,0.017-0.007,0.033-0.009,0.049c-0.096,0.673-0.158,1.351-0.158,2.033s0.062,1.359,0.157,2.032
		c0.002,0.016,0.007,0.03,0.009,0.046c0.003,0.018,0.007,0.034,0.01,0.052c0.035,0.24,0.084,0.478,0.132,0.716
		c0.003,0.016,0.006,0.032,0.009,0.049c0.004,0.016,0.006,0.032,0.009,0.049c0.247,1.189,0.638,2.342,1.173,3.43
		C46.188,19.415,45.885,19.353,45.59,19.267z M47.376,15.766c-0.666,0-1.319,0.061-1.968,0.147
		c-0.048-0.237-0.099-0.475-0.134-0.715c0.692-0.096,1.391-0.161,2.102-0.161s1.41,0.065,2.102,0.161
		c-0.035,0.24-0.086,0.478-0.134,0.715C48.695,15.826,48.042,15.766,47.376,15.766z M52.645,16.775
		c-0.77-0.303-1.557-0.549-2.363-0.713c0.047-0.237,0.086-0.477,0.121-0.717c0.901,0.183,1.778,0.458,2.636,0.804
		C52.92,16.367,52.786,16.574,52.645,16.775z"/>
	<path d="M44.471,10.105c-0.807-0.164-1.593-0.41-2.363-0.712c-0.141,0.201-0.275,0.408-0.393,0.625
		c0.857,0.345,1.734,0.621,2.635,0.802C44.385,10.582,44.424,10.343,44.471,10.105z"/>
	<path d="M45.407,10.255c-0.047,0.237-0.097,0.474-0.133,0.714c0.692,0.096,1.392,0.161,2.102,0.161c0.236,0,0.47-0.017,0.703-0.03
		c-0.166-0.221-0.312-0.457-0.433-0.708c-0.09,0.002-0.18,0.011-0.271,0.011C46.711,10.403,46.056,10.343,45.407,10.255z"/>
	<path d="M50.281,16.062c0.807,0.164,1.594,0.41,2.363,0.713c0.142-0.201,0.275-0.408,0.394-0.626
		c-0.857-0.346-1.734-0.621-2.636-0.804C50.367,15.586,50.328,15.825,50.281,16.062z"/>
	<path d="M41.714,16.149c0.118,0.218,0.252,0.425,0.394,0.626c0.77-0.303,1.556-0.549,2.363-0.713
		c-0.047-0.237-0.086-0.477-0.122-0.717C43.448,15.528,42.571,15.804,41.714,16.149z"/>
	<path d="M49.478,15.198c-0.691-0.096-1.391-0.161-2.102-0.161s-1.409,0.065-2.102,0.161c0.035,0.24,0.086,0.478,0.134,0.715
		c0.648-0.087,1.302-0.147,1.968-0.147s1.319,0.061,1.968,0.147C49.392,15.676,49.442,15.438,49.478,15.198z"/>
	<path d="M45.317,15.979c-0.003-0.017-0.006-0.033-0.009-0.049c-0.048-0.238-0.097-0.476-0.132-0.716
		c-0.003-0.018-0.007-0.034-0.01-0.052c-0.002-0.016-0.007-0.03-0.009-0.046c-0.095-0.673-0.157-1.35-0.157-2.032
		s0.062-1.36,0.158-2.033c0.002-0.016,0.006-0.032,0.009-0.049c0.002-0.017,0.007-0.033,0.009-0.049
		c0.036-0.24,0.084-0.477,0.131-0.714c0.004-0.017,0.006-0.034,0.01-0.051c0.003-0.016,0.005-0.032,0.009-0.047
		c0.246-1.188,0.636-2.34,1.17-3.428c-0.3,0.042-0.593,0.102-0.878,0.183c-0.448,1.004-0.787,2.051-1.009,3.129
		c-0.003,0.015-0.005,0.031-0.008,0.046c-0.004,0.018-0.007,0.037-0.011,0.055c-0.047,0.237-0.095,0.474-0.131,0.713
		c-0.003,0.016-0.007,0.032-0.009,0.048s-0.007,0.032-0.009,0.049c-0.102,0.711-0.169,1.428-0.169,2.149s0.058,1.439,0.159,2.15
		c0.002,0.014,0.005,0.028,0.007,0.043c0.002,0.018,0.006,0.035,0.008,0.053c0.036,0.24,0.075,0.479,0.123,0.717
		c0.003,0.017,0.007,0.034,0.011,0.051c0.003,0.017,0.007,0.032,0.011,0.049c0.22,1.073,0.553,2.121,0.998,3.12
		c0.295,0.086,0.599,0.148,0.909,0.19c-0.535-1.088-0.926-2.24-1.173-3.43C45.323,16.011,45.321,15.994,45.317,15.979z"/>
	<path d="M49.594,15.116c-0.003,0.017-0.007,0.032-0.009,0.049c-0.003,0.017-0.007,0.032-0.01,0.049
		c-0.035,0.24-0.084,0.478-0.132,0.716c-0.003,0.016-0.006,0.032-0.009,0.049c-0.004,0.016-0.006,0.032-0.009,0.049
		c-0.247,1.189-0.638,2.342-1.173,3.43c0.311-0.042,0.615-0.104,0.91-0.19c0.445-0.999,0.777-2.047,0.997-3.12
		c0.004-0.017,0.008-0.033,0.012-0.05c0.003-0.017,0.007-0.033,0.01-0.05c0.048-0.237,0.087-0.477,0.123-0.717
		c0.002-0.016,0.005-0.031,0.007-0.047c0.003-0.017,0.006-0.033,0.008-0.049c0.102-0.711,0.159-1.429,0.159-2.15
		c0-0.14-0.013-0.279-0.018-0.418c-0.256-0.061-0.503-0.141-0.738-0.246c0.013,0.221,0.028,0.442,0.028,0.665
		C49.751,13.767,49.688,14.443,49.594,15.116z"/>
	<path d="M53.823,12.056c0.054,0.336,0.092,0.678,0.092,1.029c0,1.087-0.271,2.111-0.741,3.013c-0.008,0.015-0.014,0.03-0.021,0.045
		c-0.008,0.014-0.014,0.029-0.021,0.043c-0.117,0.218-0.25,0.426-0.391,0.628c-0.01,0.014-0.021,0.027-0.031,0.042
		c-0.01,0.014-0.021,0.027-0.031,0.042c-0.837,1.16-2.041,2.037-3.443,2.454c-0.02,0.006-0.04,0.01-0.06,0.015
		c-0.021,0.006-0.041,0.011-0.061,0.016c-0.296,0.082-0.6,0.145-0.91,0.184c-0.038,0.005-0.075,0.014-0.114,0.018
		c-0.003,0-0.006,0.001-0.009,0.001c-0.231,0.025-0.467,0.04-0.705,0.04s-0.474-0.015-0.705-0.04
		c-0.021-0.002-0.039-0.006-0.06-0.009c-0.021-0.002-0.042-0.007-0.063-0.01c-0.311-0.039-0.614-0.102-0.909-0.183
		c-0.021-0.006-0.041-0.011-0.061-0.016c-0.02-0.006-0.04-0.01-0.06-0.016c-1.403-0.417-2.607-1.294-3.444-2.455
		c-0.01-0.014-0.021-0.026-0.031-0.041s-0.021-0.028-0.032-0.043c-0.141-0.201-0.272-0.409-0.39-0.627
		c-0.015-0.025-0.025-0.054-0.039-0.08c-0.001-0.003-0.002-0.005-0.004-0.008c-0.471-0.902-0.741-1.927-0.741-3.013
		c0-1.087,0.271-2.111,0.742-3.014c0.007-0.015,0.014-0.03,0.021-0.045c0.008-0.014,0.014-0.03,0.021-0.044
		c0.118-0.217,0.25-0.425,0.391-0.626c0.017-0.024,0.036-0.047,0.053-0.071c0.004-0.004,0.007-0.009,0.01-0.013
		c0.837-1.159,2.039-2.036,3.441-2.453c0.02-0.006,0.041-0.01,0.061-0.016c0.031-0.009,0.063-0.016,0.095-0.024
		c0.284-0.077,0.575-0.136,0.874-0.174c0.038-0.005,0.075-0.014,0.114-0.018c0.003,0,0.006-0.001,0.009-0.001
		c0.232-0.025,0.469-0.04,0.708-0.04c0.124,0,0.244,0.013,0.366,0.021c0.153-0.283,0.334-0.546,0.546-0.786
		c-0.3-0.037-0.603-0.062-0.912-0.062c-4.062,0-7.366,3.305-7.366,7.367c0,3.586,2.579,6.58,5.979,7.231
		c0.013,0.002,0.026,0.003,0.039,0.006c0.438,0.081,0.887,0.129,1.348,0.129s0.911-0.048,1.349-0.13
		c0.013-0.002,0.026-0.003,0.039-0.006c3.399-0.651,5.979-3.644,5.979-7.23c0-0.574-0.072-1.131-0.197-1.668
		C54.326,11.654,54.09,11.873,53.823,12.056z"/>
	<path fill="#FFFFFF" d="M47.217,8.567c0,0.657,0.163,1.271,0.43,1.825c0.121,0.251,0.267,0.487,0.433,0.708
		c0.429,0.567,0.987,1.026,1.644,1.32c0.235,0.105,0.482,0.185,0.738,0.246c0.316,0.076,0.642,0.126,0.981,0.126
		c0.884,0,1.702-0.273,2.381-0.737c0.267-0.183,0.503-0.402,0.722-0.639c0.691-0.752,1.123-1.748,1.123-2.85
		c0-2.333-1.892-4.226-4.226-4.226c-1.261,0-2.38,0.563-3.154,1.439c-0.212,0.24-0.393,0.502-0.546,0.786
		C47.418,7.164,47.217,7.839,47.217,8.567z"/>
</g>
<g>
	<polygon points="53.34,6.933 52.877,6.497 51.588,7.855 50.299,6.497 49.836,6.933 51.145,8.323 49.836,9.701 50.307,10.155 
		51.588,8.794 52.869,10.155 53.34,9.701 52.031,8.323 	"/>
</g>
</svg>
