<?xml version="1.0" encoding="UTF-8" standalone="no"?>
<!-- Generator: Adobe Illustrator 16.0.0, SVG Export Plug-In . SVG Version: 6.00 Build 0)  -->

<svg
   xmlns:dc="http://purl.org/dc/elements/1.1/"
   xmlns:cc="http://creativecommons.org/ns#"
   xmlns:rdf="http://www.w3.org/1999/02/22-rdf-syntax-ns#"
   xmlns:svg="http://www.w3.org/2000/svg"
   xmlns="http://www.w3.org/2000/svg"
   xmlns:sodipodi="http://sodipodi.sourceforge.net/DTD/sodipodi-0.dtd"
   xmlns:inkscape="http://www.inkscape.org/namespaces/inkscape"
   version="1.1"
   id="Layer_1"
   x="0px"
   y="0px"
   width="27.700001"
   height="18.57"
   viewBox="0 0 27.700001 18.57"
   enable-background="new 0 0 17.701 18.57"
   xml:space="preserve"
   inkscape:version="0.48.4 r9939"
   sodipodi:docname="search.svg"><metadata
     id="metadata12"><rdf:RDF><cc:Work
         rdf:about=""><dc:format>image/svg+xml</dc:format><dc:type
           rdf:resource="http://purl.org/dc/dcmitype/StillImage" /></cc:Work></rdf:RDF></metadata><defs
     id="defs10" /><sodipodi:namedview
     pagecolor="#ffffff"
     bordercolor="#666666"
     borderopacity="1"
     objecttolerance="10"
     gridtolerance="10"
     guidetolerance="10"
     inkscape:pageopacity="0"
     inkscape:pageshadow="2"
     inkscape:window-width="1871"
     inkscape:window-height="1056"
     id="namedview8"
     showgrid="false"
     inkscape:zoom="12.70867"
     inkscape:cx="8.8505001"
     inkscape:cy="9.2849998"
     inkscape:window-x="1649"
     inkscape:window-y="24"
     inkscape:window-maximized="1"
     inkscape:current-layer="Layer_1" /><g
     id="Your_Icon"><g
       id="g4"><path
         d="M 17.136,15.191 L 13.972,12.027 C 14.831,10.789 15.337,9.286 15.337,7.668 C 15.337,3.439 11.896,0 7.668,0 C 3.44,0 0,3.439 0,7.667 C 0,11.896 3.44,15.336 7.668,15.336 C 8.834,15.336 9.939,15.074 10.929,14.607 L 14.325,18.003 C 14.691,18.367 15.179,18.568 15.7,18.568 C 16.232,18.568 16.734,18.358 17.116,17.979 C 17.89,17.206 17.897,15.954 17.136,15.191 z M 3.067,7.667 C 3.067,5.131 5.131,3.066 7.668,3.066 C 10.206,3.066 12.271,5.13 12.271,7.667 C 12.271,10.204 10.208,12.271 7.668,12.271 C 5.131,12.27 3.067,10.205 3.067,7.667 z"
         id="path6"
         inkscape:connector-curvature="0"
         style="fill:#5b5b5b" /></g></g></svg>