<?xml version="1.0" encoding="utf-8"?>
<!-- Generator: Adobe Illustrator 16.0.0, SVG Export Plug-In . SVG Version: 6.00 Build 0)  -->
<!DOCTYPE svg PUBLIC "-//W3C//DTD SVG 1.1//EN" "http://www.w3.org/Graphics/SVG/1.1/DTD/svg11.dtd">
<svg version="1.1" id="Layer_1" xmlns="http://www.w3.org/2000/svg" xmlns:xlink="http://www.w3.org/1999/xlink" x="0px" y="0px"
	 width="27px" height="27px" viewBox="36.5 36.5 27 27" enable-background="new 36.5 36.5 27 27" xml:space="preserve">
<path fill="#282828" d="M54.761,56.915H43.435c-0.238,0-0.434-0.203-0.434-0.453V44.594c0-0.25,0.229-0.678,0.999-0.678h4
	c0.552-0.061,0.676,0.427,0.676,0.678c0,0.25-0.438,0.323-0.676,0.323h-4l-0.132,11.09L54,55.918v-5.001
	c0.297,0,0.763,0.005,1.001,0.005v5.89C54.928,56.865,54.852,56.915,54.761,56.915L54.761,56.915z M57.873,44.937l-3.137,3.287
	c-0.162,0.17-0.446,0.17-0.611,0c-0.17-0.177-0.17-0.465-0.002-0.644l2.4-2.511h-1.377c-3.096,0-5.615,2.639-5.615,5.883
	c0,0.25-0.195,0.455-0.434,0.455s-0.433-0.205-0.433-0.455c0-3.744,2.908-6.79,6.482-6.79h1.377l-2.398-2.511
	c-0.17-0.177-0.17-0.465-0.002-0.642c0.165-0.171,0.451-0.171,0.613,0l3.137,3.286C58.042,44.472,58.042,44.76,57.873,44.937
	L57.873,44.937z"/>
</svg>
