<?xml version="1.0" encoding="utf-8"?>
<!-- Generator: Adobe Illustrator 16.0.0, SVG Export Plug-In . SVG Version: 6.00 Build 0)  -->
<!DOCTYPE svg PUBLIC "-//W3C//DTD SVG 1.1//EN" "http://www.w3.org/Graphics/SVG/1.1/DTD/svg11.dtd">
<svg version="1.1" id="Ebene_1" xmlns="http://www.w3.org/2000/svg" xmlns:xlink="http://www.w3.org/1999/xlink" x="0px" y="0px"
	 width="27px" height="27px" viewBox="0 0 27 27" enable-background="new 0 0 27 27" xml:space="preserve">
<rect x="13.053" y="6.395" fill="#FFFFFF" width="0.894" height="7.229"/>
<path fill="#FFFFFF" d="M17.551,8.343l-0.516,0.729c1.49,1.115,2.375,2.871,2.375,4.729c0,3.261-2.652,5.911-5.911,5.911
	c-3.26,0-5.911-2.65-5.911-5.911c0-1.858,0.885-3.616,2.375-4.731L9.447,8.341c-1.727,1.282-2.75,3.312-2.75,5.46
	c0,3.751,3.052,6.805,6.804,6.805c3.751,0,6.802-3.054,6.802-6.805C20.303,11.654,19.279,9.626,17.551,8.343z"/>
</svg>
