<?xml version="1.0" encoding="utf-8"?>
<!-- Generator: Adobe Illustrator 16.0.0, SVG Export Plug-In . SVG Version: 6.00 Build 0)  -->
<!DOCTYPE svg PUBLIC "-//W3C//DTD SVG 1.1//EN" "http://www.w3.org/Graphics/SVG/1.1/DTD/svg11.dtd">
<svg version="1.1" id="Layer_1" xmlns="http://www.w3.org/2000/svg" xmlns:xlink="http://www.w3.org/1999/xlink" x="0px" y="0px"
	 width="27px" height="27px" viewBox="36.5 36.5 27 27" enable-background="new 36.5 36.5 27 27" xml:space="preserve">
<path fill="#282828" d="M56.516,56.285c0,0-0.578,0.221-0.809-0.254c-0.244-0.598,0.246-0.834,0.246-0.834
	c1.708-0.949,3.209-2.771,3.313-4.917c0.126-2.592-1.408-4.772-3.618-5.686c0,0-0.562-0.378-0.154-1.065
	c0.28-0.419,0.83-0.169,0.83-0.169c2.607,1.146,4.319,3.892,4.168,6.984C60.363,52.994,58.645,55.148,56.516,56.285L56.516,56.285z"
	/>
<path fill="#282828" d="M56.505,50.287c-0.147,1.401-1.019,2.625-2.183,3.157c0,0-0.811,0.193-0.996-0.324
	c-0.317-0.801,0.539-0.992,0.516-1.002c0.734-0.371,1.348-1.066,1.441-1.965c0.135-1.283-0.586-2.457-1.771-2.746
	c0,0-0.517-0.101-0.32-0.887c0.191-0.583,0.857-0.328,0.857-0.328C55.615,46.767,56.69,48.507,56.505,50.287L56.505,50.287z"/>
<path fill="#282828" d="M50.102,57.502c-0.002,0-0.008,0.002-0.016,0.002C50.092,57.502,50.096,57.502,50.102,57.502"/>
<path fill="#282828" d="M50.429,42.204c0-0.589,0.356-0.717-0.626-0.717c-0.983,0-1.369,0.532-1.369,0.532l-4.639,4.609v0.018
	c-0.058-0.01-0.115-0.018-0.174-0.018h-3.092c-0.57,0-1.031,0.477-1.031,1.063v4.487c0,0.588,0.461,1.064,1.031,1.064h3.092
	c0.059,0,0.116-0.008,0.174-0.018v0.018l4.639,4.738c0,0,0.358,0.533,1.344,0.533c0.982,0,0.651-0.129,0.651-0.717V42.204z
	 M49.428,57.469c-0.147-0.043-0.207-0.102-0.211-0.105c0,0,0.008,0.008,0.01,0.012c-0.027-0.033-0.059-0.074-0.078-0.094
	c0,0-4.438-4.531-4.57-4.668c-0.041-0.053-0.09-0.102-0.141-0.146c-0.182-0.156-0.418-0.238-0.654-0.238
	c-0.054,0-0.105,0.004-0.158,0.012c0,0-0.008,0-0.014,0.002c-0.02,0-3.082,0-3.082,0c-0.006,0-0.029-0.021-0.029-0.064v-4.487
	c0-0.043,0.023-0.062,0.029-0.062c0,0,3.062,0,3.082,0c0.008,0.002,0.014,0.002,0.014,0.002c0.053,0.008,0.104,0.012,0.158,0.012
	c0.236,0,0.473-0.083,0.654-0.238c0.049-0.041,0.094-0.089,0.133-0.139c0.141-0.137,4.568-4.538,4.568-4.538
	c0.016-0.016,0.041-0.045,0.064-0.073c0.004-0.004,0.069-0.069,0.225-0.116C49.428,43.165,49.428,56.854,49.428,57.469z"/>
<polyline fill="#282828" points="49.234,42.615 49.227,42.625 49.234,42.615 "/>
</svg>
