<?xml version="1.0" encoding="utf-8"?>
<!-- Generator: Adobe Illustrator 16.0.0, SVG Export Plug-In . SVG Version: 6.00 Build 0)  -->
<!DOCTYPE svg PUBLIC "-//W3C//DTD SVG 1.1//EN" "http://www.w3.org/Graphics/SVG/1.1/DTD/svg11.dtd">
<svg version="1.1" id="Ebene_1" xmlns="http://www.w3.org/2000/svg" xmlns:xlink="http://www.w3.org/1999/xlink" x="0px" y="0px"
	 width="27px" height="27px" viewBox="0 0 27 27" enable-background="new 0 0 27 27" xml:space="preserve">
<g>
	<path fill="#FFFFFF" d="M18.609,13.526c0.652-0.545,1.074-1.436,1.074-2.438c0-1.653-1.15-2.997-2.565-2.997
		c-0.896,0-1.688,0.542-2.147,1.36c-0.318-1.882-1.731-3.304-3.424-3.304c-1.691,0-3.104,1.422-3.421,3.304
		c-0.166,1.239,0.003,1.802,0.282,2.591c0.302,0.73,0.783,1.344,1.38,1.752c-0.358,0.109-0.702,0.253-1.028,0.427
		c-0.018,0.012-0.033,0.023-0.053,0.033c-0.148,0.076-0.311,0.139-0.449,0.234c-0.046,0.029-0.088,0.062-0.135,0.098
		c-0.059,0.082-0.139,0.15-0.232,0.195c-0.765,0.592-1.383,1.365-1.787,2.256c-0.088,0.27-0.203,0.512-0.351,0.984
		C5.631,18.5,5.564,19,5.564,19.514c0,0.229,0.185,0.412,0.412,0.412h11.145c0.229,0,0.413-0.186,0.413-0.412
		c0-0.527-0.069-1.041-0.198-1.529h3.688c0.228,0,0.412-0.186,0.412-0.414C21.432,15.719,20.255,14.135,18.609,13.526z
		 M17.118,8.917c0.959,0,1.739,0.974,1.739,2.17c0,1.197-0.78,2.172-1.739,2.172c-0.958,0-1.739-0.975-1.739-2.172
		C15.379,9.891,16.16,8.917,17.118,8.917z M15.628,13.526c-0.452,0.162-0.874,0.406-1.25,0.718
		c-0.339-0.184-0.696-0.333-1.071-0.449c0.594-0.408,1.078-1.02,1.379-1.752C14.857,12.645,15.191,13.164,15.628,13.526z
		 M8.885,10.253c0-1.81,1.193-3.278,2.661-3.278s2.665,1.469,2.665,3.278c0,1.808-1.197,3.277-2.665,3.277
		S8.885,12.061,8.885,10.253z M6.405,19.104c0.211-2.65,2.437-4.746,5.142-4.746c2.706,0,4.93,2.096,5.143,4.746H6.405z
		 M17.049,17.16c-0.42-0.975-1.089-1.816-1.93-2.443c0.582-0.41,1.277-0.631,1.999-0.631c1.782,0,3.257,1.344,3.463,3.074H17.049z"
		/>
</g>
</svg>
