<?xml version="1.0" encoding="utf-8"?>
<!-- Generator: Adobe Illustrator 16.0.0, SVG Export Plug-In . SVG Version: 6.00 Build 0)  -->
<!DOCTYPE svg PUBLIC "-//W3C//DTD SVG 1.1//EN" "http://www.w3.org/Graphics/SVG/1.1/DTD/svg11.dtd">
<svg version="1.1" id="Layer_1" xmlns="http://www.w3.org/2000/svg" xmlns:xlink="http://www.w3.org/1999/xlink" x="0px" y="0px"
	 width="30px" height="30px" viewBox="0 0 30 30" enable-background="new 0 0 30 30" xml:space="preserve">
<path fill="#292929" d="M25.595,24.721l-2.828-2.828c-0.057-0.055-0.645-0.645-1.269-1.268l-2.974-2.975
	c-0.052-0.051-0.545-0.543-1.104-1.102l0.005-0.006l-1.787-1.787L28.78,1.613l-0.006-0.006c0,0,0,0,0-0.002l-0.004-0.002
	c0,0,0,0,0-0.002h-0.002c0,0,0-0.002-0.002-0.002c-0.002-0.004-0.008-0.008-0.012-0.012V1.586c-0.006-0.004-0.01-0.008-0.015-0.014
	h-0.002c-0.004-0.004-0.01-0.01-0.016-0.016V1.555c-0.002,0-0.004-0.002-0.004-0.002V1.551c-0.002,0-0.004-0.002-0.004-0.004h-0.002
	c-0.002-0.004-0.006-0.006-0.008-0.01h-0.002c-0.002-0.004-0.006-0.006-0.008-0.008l-0.004-0.004l-0.002-0.002l-0.034-0.034V1.487
	l-0.041-0.039l-0.461-0.461l-0.078-0.081l-2.203,2.202c-0.461,0.461-1.012,1.013-1.414,1.414L21.63,7.352
	c-0.461,0.461-1.012,1.012-1.414,1.414l-2.828,2.828c-0.461,0.461-1.014,1.013-1.415,1.414l-1.042,1.042l-0.004,0.004l-0.004-0.004
	l-1.041-1.042c-0.402-0.401-0.954-0.953-1.415-1.414L9.638,8.766C9.236,8.363,8.685,7.812,8.224,7.352L5.396,4.522
	C4.994,4.121,4.442,3.569,3.981,3.108L1.779,0.906L1.701,0.987L1.24,1.448L1.198,1.487v0.002L1.165,1.523L1.163,1.525L1.159,1.529
	C1.157,1.531,1.153,1.533,1.151,1.537H1.149c-0.002,0.004-0.006,0.006-0.008,0.01H1.139c0,0.002-0.002,0.004-0.004,0.004v0.002
	c0,0-0.002,0.002-0.004,0.002v0.002C1.125,1.562,1.12,1.568,1.116,1.572H1.114C1.109,1.578,1.105,1.582,1.1,1.586v0.002
	C1.096,1.592,1.09,1.596,1.088,1.6c-0.002,0-0.002,0.002-0.002,0.002H1.084c0,0.002,0,0.002,0,0.002L1.08,1.605
	c0,0.002,0,0.002,0,0.002L1.074,1.613l13.142,13.143l-1.786,1.787l0.005,0.006c-0.56,0.559-1.053,1.051-1.104,1.102l-2.974,2.975
	c-0.625,0.623-1.211,1.213-1.269,1.268l-2.828,2.828c-0.676,0.678-1.354,1.354-1.415,1.416l-1.771,1.77l0.707,0.707l9.484-9.486
	c0.408-0.406,0.725-0.725,0.767-0.766l1.539-1.539l0.004,0.004l1.008-1.006c0.049-0.049,0.094-0.096,0.137-0.137
	c0.063-0.064,0.117-0.117,0.154-0.154c0.033-0.035,0.05-0.051,0.053-0.053c0.003,0.002,0.021,0.018,0.053,0.053
	c0.038,0.037,0.092,0.09,0.154,0.154c0.043,0.041,0.088,0.088,0.138,0.137l1.007,1.006l0.005-0.004l1.539,1.539
	c0.042,0.041,0.358,0.359,0.767,0.766l9.484,9.486l0.707-0.707l-1.771-1.77C26.948,26.074,26.271,25.398,25.595,24.721z"/>
</svg>
