<?xml version="1.0" encoding="utf-8"?>
<!-- Generator: Adobe Illustrator 16.0.0, SVG Export Plug-In . SVG Version: 6.00 Build 0)  -->
<!DOCTYPE svg PUBLIC "-//W3C//DTD SVG 1.1//EN" "http://www.w3.org/Graphics/SVG/1.1/DTD/svg11.dtd">
<svg version="1.1" id="Layer_1" xmlns="http://www.w3.org/2000/svg" xmlns:xlink="http://www.w3.org/1999/xlink" x="0px" y="0px"
	 width="27px" height="27px" viewBox="0 0 27 27" enable-background="new 0 0 27 27" xml:space="preserve">
<path fill="#FFFFFF" d="M14.471,6.005h-1.698C13.9,6.005,14.5,7.4,14.5,8.771c0,1.148-0.626,1.756-1.513,2.459
	c-0.865,0.688-1.03,0.974-1.03,1.559c0,0.496,0.928,1.344,1.412,1.691c1.415,1.02,1.874,1.992,1.874,3.57
	c0,1.965-1.874,3.953-5.266,3.953c-2.974,0-5.481-1.168-5.481-3.135c0-1.994,2.289-3.795,5.261-3.795c0.325,0,0.622,0,0.93,0
	c-0.406-0.404-0.729-0.995-0.729-1.602c0-0.36,0.112-0.792,0.272-1.1c-0.164,0.012-0.329,0.096-0.499,0.096
	c-2.442,0-4.079-1.607-4.079-3.799c0-2.139,2.261-3.673,4.662-3.673c1.339,0,5.356,0,5.356,0L14.471,6.005L14.471,6.005z
	 M10.323,15.33c-2.054-0.023-3.896,1.272-3.896,2.828c0,1.59,1.487,2.912,3.542,2.912c2.89,0,3.896-1.242,3.896-2.831
	c0-0.188-0.023-0.378-0.065-0.558c-0.227-0.9-1.026-1.348-2.143-2.135C11.25,15.412,10.804,15.335,10.323,15.33L10.323,15.33z
	 M12.574,8.495c-0.238-1.84-1.55-3.021-2.929-3.063C8.267,5.388,7.341,6.503,7.579,8.343c0.236,1.842,1.548,3.37,2.929,3.409
	C11.887,11.796,12.811,10.336,12.574,8.495L12.574,8.495z M19.773,9.027v2.846h-1.279V9.027h-2.732V7.83h2.732V5.02h1.279v2.81h2.73
	v1.197H19.773L19.773,9.027z"/>
</svg>
