<?xml version="1.0" encoding="utf-8"?>
<!-- Generator: Adobe Illustrator 16.0.0, SVG Export Plug-In . SVG Version: 6.00 Build 0)  -->
<!DOCTYPE svg PUBLIC "-//W3C//DTD SVG 1.1//EN" "http://www.w3.org/Graphics/SVG/1.1/DTD/svg11.dtd">
<svg version="1.1" id="Layer_1" xmlns="http://www.w3.org/2000/svg" xmlns:xlink="http://www.w3.org/1999/xlink" x="0px" y="0px"
	 width="34px" height="34px" viewBox="0 0 34 34" enable-background="new 0 0 34 34" xml:space="preserve">
<path d="M16.556,7.245l-0.02,8.4l-0.008,3.583l3.054-1.874l7.154-4.391c2.615,4.696,1.506,10.747-2.85,14.172
	c-1.982,1.559-4.361,2.383-6.877,2.383c-3.445,0-6.642-1.551-8.768-4.256c-3.797-4.828-2.958-11.846,1.871-15.643
	C11.982,8.151,14.201,7.334,16.556,7.245 M16.995,5.236c-2.844,0-5.708,0.918-8.117,2.812C3.173,12.534,2.185,20.797,6.67,26.5
	c2.592,3.297,6.447,5.02,10.34,5.02c2.842,0,5.706-0.918,8.114-2.811c5.703-4.486,6.691-12.75,2.205-18.454l-8.793,5.395
	L18.56,5.329C18.042,5.267,17.518,5.236,16.995,5.236L16.995,5.236z"/>
<path d="M22.587,4.31c1.199,0.413,2.307,1.036,3.283,1.843l-3.291,2.019L22.587,4.31 M20.593,1.812l-0.021,9.938l8.467-5.194
	C26.878,3.807,23.81,2.198,20.593,1.812L20.593,1.812z"/>
</svg>
