<?xml version="1.0" encoding="utf-8"?>
<!-- Generator: Adobe Illustrator 16.0.0, SVG Export Plug-In . SVG Version: 6.00 Build 0)  -->
<!DOCTYPE svg PUBLIC "-//W3C//DTD SVG 1.1//EN" "http://www.w3.org/Graphics/SVG/1.1/DTD/svg11.dtd">
<svg version="1.1" id="Layer_1" xmlns="http://www.w3.org/2000/svg" xmlns:xlink="http://www.w3.org/1999/xlink" x="0px" y="0px"
	 width="24.997px" height="45.003px" viewBox="0 0 24.997 45.003" enable-background="new 0 0 24.997 45.003" xml:space="preserve">
<path fill="#FFFFFF" d="M0,2.11l20.713,20.393L0.002,42.891l2.145,2.11l5.615-5.529c0.306-0.305,0.619-0.61,0.938-0.924l0.123-0.123
	c0.07-0.066,0.137-0.135,0.207-0.204l0.047-0.044c0.008-0.008,0.018-0.018,0.026-0.03l0.208-0.203
	c0.01-0.009,0.021-0.021,0.031-0.03l0.15-0.146c0.035-0.04,0.08-0.08,0.118-0.116l0.087-0.089c0.023-0.024,0.049-0.046,0.075-0.069
	l0.179-0.18c0.131-0.132,0.267-0.262,0.401-0.396l0.069-0.069c0.02-0.017,0.031-0.031,0.05-0.048l0.073-0.072
	c0.013-0.014,0.027-0.027,0.039-0.04l0.086-0.086c0.043-0.04,0.086-0.083,0.125-0.123l0.113-0.112
	c0.014-0.009,0.021-0.019,0.031-0.027L22.856,24.61l2.141-2.107l-2.141-2.11L11.012,8.733c-0.023-0.024-0.046-0.049-0.071-0.07
	l-0.036-0.037c-0.02-0.019-0.033-0.034-0.053-0.052l-0.068-0.068c-0.031-0.031-0.063-0.061-0.091-0.089l-0.122-0.123
	c-0.004,0-0.004-0.003-0.004-0.003l-0.438-0.43c-0.039-0.04-0.079-0.08-0.123-0.12L2.144,0L0,2.11z"/>
</svg>
