<?xml version="1.0" encoding="UTF-8" standalone="no"?>
<svg
   xmlns:dc="http://purl.org/dc/elements/1.1/"
   xmlns:cc="http://creativecommons.org/ns#"
   xmlns:rdf="http://www.w3.org/1999/02/22-rdf-syntax-ns#"
   xmlns:svg="http://www.w3.org/2000/svg"
   xmlns="http://www.w3.org/2000/svg"
   xmlns:sodipodi="http://sodipodi.sourceforge.net/DTD/sodipodi-0.dtd"
   xmlns:inkscape="http://www.inkscape.org/namespaces/inkscape"
   color-rendering="auto"
   color-interpolation="auto"
   text-rendering="auto"
   stroke-miterlimit="10"
   shape-rendering="auto"
   font-weight="normal"
   font-style="normal"
   font-size="12"
   image-rendering="auto"
   id="svg2"
   version="1.1"
   inkscape:version="0.48.4 r9939"
   width="195.4688"
   height="271.125"
   sodipodi:docname="clipboard.svg"
   style="font-size:12px;font-style:normal;font-weight:normal;fill:#000000;fill-opacity:1;stroke:#000000;stroke-width:1;stroke-linecap:square;stroke-linejoin:miter;stroke-miterlimit:10;stroke-opacity:1;stroke-dasharray:none;stroke-dashoffset:0;font-family:Dialog">
  <metadata
     id="metadata13">
    <rdf:RDF>
      <cc:Work
         rdf:about="">
        <dc:format>image/svg+xml</dc:format>
        <dc:type
           rdf:resource="http://purl.org/dc/dcmitype/StillImage" />
      </cc:Work>
    </rdf:RDF>
  </metadata>
  <sodipodi:namedview
     pagecolor="#ffffff"
     bordercolor="#666666"
     borderopacity="1"
     objecttolerance="10"
     gridtolerance="10"
     guidetolerance="10"
     inkscape:pageopacity="0"
     inkscape:pageshadow="2"
     inkscape:window-width="1551"
     inkscape:window-height="876"
     id="namedview11"
     showgrid="false"
     fit-margin-top="0"
     fit-margin-left="0"
     fit-margin-right="0"
     fit-margin-bottom="0"
     inkscape:zoom="1.2685914"
     inkscape:cx="240.66829"
     inkscape:cy="138.77866"
     inkscape:window-x="49"
     inkscape:window-y="24"
     inkscape:window-maximized="1"
     inkscape:current-layer="svg2" />
  <!--Unicode Character 'CLIPBOARD' (U+1F4CB)-->
  <defs
     id="genericDefs" />
  <g
     id="g5"
     transform="translate(-11.5312,-68.4844)">
    <g
       id="g7">
      <path
         d="M 207,316.8281 Q 207,319.5 204.1875,325.6875 Q 202.2188,330.0469 196.0312,334.8281 Q 189.8438,339.6094 185.4844,339.6094 L 33.0469,339.6094 Q 30.5156,339.6094 25.7344,337.1484 Q 20.9531,334.6875 16.4531,328.5 Q 11.5312,321.8906 11.5312,316.6875 L 11.5312,126.2812 Q 11.5312,124.0312 13.8516,117.8438 Q 16.1719,111.6562 23.0625,107.0859 Q 29.9531,102.5156 36.5625,102.5156 L 76.2188,102.5156 Q 78.3281,102.5156 79.0312,100.9688 Q 79.4531,100.125 79.4531,94.5 Q 79.4531,89.2969 82.9688,87.75 Q 84.7969,86.9062 90.9844,86.7656 L 92.5312,86.7656 Q 92.9531,83.25 93.5156,79.7344 Q 94.0781,76.2188 96.4688,73.4062 Q 97.7344,72 102.2344,70.2422 Q 106.7344,68.4844 108.8438,68.4844 Q 111.9375,68.4844 117,71.0859 Q 122.0625,73.6875 123.1875,76.2188 Q 124.875,80.1562 124.7344,86.3438 Q 125.1562,86.4844 130.9219,86.4844 Q 138.2344,86.4844 138.2344,97.0312 Q 138.2344,102.5156 141.75,102.5156 L 181.9688,102.5156 Q 189.4219,102.5156 196.2422,107.7188 Q 203.0625,112.9219 205.3125,119.9531 Q 207,125.4375 207,126.1406 L 207,316.8281 z M 171.1406,130.7812 L 171.1406,116.8594 Q 171.1406,114.4688 167.2031,111.5859 Q 163.2656,108.7031 160.7344,108.7031 L 143.1562,108.7031 Q 130.9219,108.7031 130.3594,94.6406 L 127.8281,94.6406 Q 121.9219,94.7812 120.375,92.5312 Q 119.5312,91.4062 117.2812,81.2812 Q 115.875,75.0938 108.8438,75.0938 Q 101.3906,75.0938 99.4922,85.0078 Q 97.5938,94.9219 90.5625,94.9219 Q 89.0156,94.9219 87.1875,94.6406 Q 86.7656,108.7031 74.5312,108.7031 L 57.375,108.7031 Q 54.1406,108.7031 50.3438,111.7266 Q 46.5469,114.75 46.5469,117.8438 L 46.5469,130.7812 L 171.1406,130.7812 z M 195.0469,318.6562 L 195.0469,123.8906 Q 195.0469,120.7969 190.6875,117 Q 186.3281,113.2031 183.2344,113.2031 L 176.0625,113.2031 Q 176.9062,114.8906 176.9062,116.1562 L 176.9062,137.9531 L 40.7812,137.9531 L 40.7812,113.2031 L 35.2969,113.2031 Q 32.2031,113.2031 27.8438,117.1406 Q 23.4844,121.0781 23.4844,124.0312 L 23.4844,318.5156 Q 23.4844,321.75 28.125,325.5469 Q 32.7656,329.3438 36.1406,329.3438 L 182.3906,329.3438 Q 185.625,329.3438 190.3359,325.4766 Q 195.0469,321.6094 195.0469,318.6562 z M 115.0312,86.2031 Q 115.0312,91.9688 108.9844,91.9688 Q 103.0781,91.9688 103.0781,85.9219 Q 103.0781,80.0156 108.9844,80.0156 Q 115.0312,80.0156 115.0312,86.2031 z"
         id="path9"
         inkscape:connector-curvature="0"
         style="stroke:none" />
    </g>
  </g>
</svg>
