<?xml version="1.0" encoding="utf-8"?>
<!-- Generator: Adobe Illustrator 16.0.0, SVG Export Plug-In . SVG Version: 6.00 Build 0)  -->
<!DOCTYPE svg PUBLIC "-//W3C//DTD SVG 1.1//EN" "http://www.w3.org/Graphics/SVG/1.1/DTD/svg11.dtd">
<svg version="1.1" id="Layer_1" xmlns="http://www.w3.org/2000/svg" xmlns:xlink="http://www.w3.org/1999/xlink" x="0px" y="0px"
	 width="27px" height="27px" viewBox="36.5 36.5 27 27" enable-background="new 36.5 36.5 27 27" xml:space="preserve">
<path fill="#282828" d="M50.102,57.502c-0.002,0-0.008,0.002-0.016,0.002C50.092,57.502,50.096,57.502,50.102,57.502"/>
<polyline fill="#282828" points="49.234,42.615 49.227,42.625 49.234,42.615 "/>
<path fill="#282828" d="M40.358,58.514l2.176-3.949c-1.643-1.33-2.541-3.03-2.541-4.818c0-3.993,4.489-7.239,10.006-7.239
	c5.515,0,10.004,3.246,10.006,7.239c0,3.99-4.489,7.238-10.006,7.238c-1.712,0-3.404-0.322-4.905-0.934L40.358,58.514L40.358,58.514
	z M50,43.303c-5.084,0-9.218,2.889-9.218,6.443c0,1.627,0.884,3.188,2.494,4.391l0.28,0.207l-1.243,2.259l2.75-1.431l0.167,0.073
	c1.446,0.616,3.096,0.942,4.771,0.942c5.084,0,9.22-2.891,9.22-6.441C59.218,46.192,55.082,43.303,50,43.303L50,43.303z"/>
</svg>
