<?xml version="1.0" encoding="utf-8"?>
<!-- Generator: Adobe Illustrator 16.0.0, SVG Export Plug-In . SVG Version: 6.00 Build 0)  -->
<!DOCTYPE svg PUBLIC "-//W3C//DTD SVG 1.1//EN" "http://www.w3.org/Graphics/SVG/1.1/DTD/svg11.dtd">
<svg version="1.1" id="Layer_1" xmlns="http://www.w3.org/2000/svg" xmlns:xlink="http://www.w3.org/1999/xlink" x="0px" y="0px"
	 width="27px" height="27px" viewBox="15.542 9.5 27 27" enable-background="new 15.542 9.5 27 27" xml:space="preserve">
<rect x="-76.5" y="16" width="11.011" height="2.013"/>
<rect x="-79.489" y="19.996" width="14" height="2.013"/>
<rect x="-79.489" y="23.992" width="14" height="2.013"/>
<rect x="-79.489" y="27.987" width="14" height="2.013"/>
<g>
	<polygon points="21.542,23.269 21.935,23.504 26.113,26.123 26.113,24.125 23.209,22.313 26.113,20.502 26.113,18.505 
		25.787,18.716 21.542,21.359 	"/>
	<polygon points="29.049,27.966 30.929,16.659 29.192,16.659 27.312,27.966 	"/>
	<polygon points="32.127,18.505 32.127,20.502 35.031,22.313 32.127,24.125 32.127,26.123 32.453,25.912 36.698,23.269 
		36.698,21.359 36.306,21.124 	"/>
</g>
</svg>
