<?xml version="1.0" encoding="utf-8"?>
<!-- Generator: Adobe Illustrator 16.0.0, SVG Export Plug-In . SVG Version: 6.00 Build 0)  -->
<!DOCTYPE svg PUBLIC "-//W3C//DTD SVG 1.1//EN" "http://www.w3.org/Graphics/SVG/1.1/DTD/svg11.dtd">
<svg version="1.1" id="Layer_1" xmlns="http://www.w3.org/2000/svg" xmlns:xlink="http://www.w3.org/1999/xlink" x="0px" y="0px"
	 width="27px" height="27px" viewBox="15.542 9.5 27 27" enable-background="new 15.542 9.5 27 27" xml:space="preserve">
<rect x="-76.5" y="16" width="11.011" height="2.013"/>
<rect x="-79.489" y="19.996" width="14" height="2.013"/>
<rect x="-79.489" y="23.992" width="14" height="2.013"/>
<rect x="-79.489" y="27.987" width="14" height="2.013"/>
<polygon points="22.506,16.516 22.506,21.391 24.225,19.671 26.224,21.67 27.661,20.234 25.662,18.235 27.38,16.516 "/>
<polygon points="35.506,16.516 30.63,16.516 32.351,18.235 30.351,20.234 31.788,21.67 33.787,19.671 35.506,21.391 "/>
<polygon points="35.506,29.516 35.506,24.64 33.787,26.36 31.788,24.361 30.351,25.797 32.35,27.796 30.631,29.516 "/>
<polygon points="22.506,29.516 27.381,29.516 25.662,27.796 27.661,25.797 26.224,24.361 24.225,26.36 22.506,24.64 "/>
</svg>
