<?xml version="1.0" encoding="utf-8"?>
<!-- Generator: Adobe Illustrator 16.0.0, SVG Export Plug-In . SVG Version: 6.00 Build 0)  -->
<!DOCTYPE svg PUBLIC "-//W3C//DTD SVG 1.1//EN" "http://www.w3.org/Graphics/SVG/1.1/DTD/svg11.dtd">
<svg version="1.1" id="Layer_1" xmlns="http://www.w3.org/2000/svg" xmlns:xlink="http://www.w3.org/1999/xlink" x="0px" y="0px"
	 width="27px" height="27px" viewBox="0 0 27 27" enable-background="new 0 0 27 27" xml:space="preserve">
<polygon fill="#FFFFFF" points="7.464,7 7.464,11.875 9.183,10.155 11.183,12.154 12.619,10.719 10.62,8.719 12.338,7 "/>
<polygon fill="#FFFFFF" points="20.464,7 15.588,7 17.31,8.719 15.31,10.719 16.746,12.154 18.745,10.155 20.464,11.875 "/>
<polygon fill="#FFFFFF" points="20.464,20 20.464,15.125 18.745,16.844 16.746,14.846 15.31,16.281 17.308,18.28 15.589,20 "/>
<polygon fill="#FFFFFF" points="7.464,20 12.339,20 10.62,18.28 12.619,16.281 11.183,14.846 9.183,16.844 7.464,15.125 "/>
</svg>
