<?xml version="1.0" encoding="utf-8"?>
<!-- Generator: Adobe Illustrator 16.0.0, SVG Export Plug-In . SVG Version: 6.00 Build 0)  -->
<!DOCTYPE svg PUBLIC "-//W3C//DTD SVG 1.1//EN" "http://www.w3.org/Graphics/SVG/1.1/DTD/svg11.dtd">
<svg version="1.1" id="Layer_1" xmlns="http://www.w3.org/2000/svg" xmlns:xlink="http://www.w3.org/1999/xlink" x="0px" y="0px"
	 width="27px" height="27px" viewBox="-4.497 -4.997 27 27" enable-background="new -4.497 -4.997 27 27" xml:space="preserve">
<path fill="#5E5E5E" d="M9.975,1.009H8.277c1.126,0,1.727,1.395,1.727,2.766c0,1.148-0.625,1.756-1.512,2.459
	c-0.865,0.688-1.03,0.974-1.03,1.559c0,0.496,0.928,1.344,1.412,1.691c1.416,1.02,1.875,1.992,1.875,3.57
	c0,1.965-1.875,3.953-5.267,3.953C2.507,17.007,0,15.839,0,13.873c0-1.994,2.289-3.795,5.261-3.795c0.325,0,0.622,0,0.93,0
	C5.785,9.673,5.462,9.082,5.462,8.476c0-0.36,0.112-0.792,0.272-1.1C5.57,7.388,5.405,7.472,5.235,7.472
	c-2.442,0-4.079-1.607-4.079-3.799C1.156,1.534,3.417,0,5.818,0c1.339,0,5.355,0,5.355,0L9.975,1.009L9.975,1.009z M5.826,10.333
	C3.772,10.31,1.93,11.605,1.93,13.162c0,1.59,1.487,2.912,3.542,2.912c2.89,0,3.896-1.242,3.896-2.832
	c0-0.188-0.023-0.377-0.065-0.558c-0.227-0.899-1.026-1.349-2.143-2.136C6.754,10.416,6.307,10.339,5.826,10.333L5.826,10.333z
	 M8.078,3.498c-0.238-1.84-1.55-3.021-2.929-3.063C3.77,0.392,2.844,1.507,3.083,3.347c0.236,1.842,1.548,3.37,2.929,3.409
	C7.39,6.8,8.314,5.34,8.078,3.498L8.078,3.498z M15.276,4.03v2.846h-1.278V4.03h-2.732V2.833h2.732v-2.81h1.278v2.81h2.729V4.03
	H15.276L15.276,4.03z"/>
</svg>
