<?xml version="1.0" encoding="utf-8"?>
<!-- Generator: Adobe Illustrator 16.0.0, SVG Export Plug-In . SVG Version: 6.00 Build 0)  -->
<!DOCTYPE svg PUBLIC "-//W3C//DTD SVG 1.1//EN" "http://www.w3.org/Graphics/SVG/1.1/DTD/svg11.dtd">
<svg version="1.1" id="Layer_1" xmlns="http://www.w3.org/2000/svg" xmlns:xlink="http://www.w3.org/1999/xlink" x="0px" y="0px"
	 width="56.723px" height="59.587px" viewBox="22.671 18.79 56.723 59.587" enable-background="new 22.671 18.79 56.723 59.587"
	 xml:space="preserve">
<g>
	<path fill="#FFFFFF" d="M74.956,78.377H27.108c-2.448,0-4.438-2.092-4.438-4.661V23.451c0-2.57,1.99-4.661,4.438-4.661h47.848
		c2.445,0,4.438,2.091,4.438,4.661v50.265C79.394,76.285,77.401,78.377,74.956,78.377z M27.108,20.222
		c-1.696,0-3.075,1.449-3.075,3.229v50.265c0,1.78,1.379,3.229,3.075,3.229h47.848c1.694,0,3.074-1.448,3.074-3.229V23.451
		c0-1.781-1.38-3.229-3.074-3.229H27.108z"/>
</g>
<g>
	<path fill="#FFFFFF" d="M45.728,31.82V30.25c0-0.296,0.24-0.537,0.536-0.537s0.536,0.24,0.536,0.537v1.571
		c0,0.296-0.24,0.537-0.536,0.537S45.728,32.117,45.728,31.82z"/>
</g>
<g>
	<path fill="#FFFFFF" d="M42.812,32.89c0.1,0.171,0.28,0.268,0.465,0.268c0.091,0,0.183-0.023,0.268-0.073
		c0.256-0.148,0.344-0.476,0.196-0.732l-1.007-1.746c-0.148-0.257-0.477-0.344-0.733-0.196c-0.256,0.148-0.344,0.476-0.196,0.732
		L42.812,32.89z"/>
</g>
<g>
	<path fill="#FFFFFF" d="M38.451,33.902l2.372,1.37c0.084,0.049,0.176,0.072,0.268,0.072c0.185,0,0.365-0.096,0.464-0.268
		c0.149-0.256,0.061-0.584-0.196-0.732l-2.372-1.369c-0.256-0.148-0.583-0.061-0.732,0.196
		C38.106,33.426,38.194,33.754,38.451,33.902z"/>
</g>
<g>
	<path fill="#FFFFFF" d="M38.718,38.33h1.572c0.296,0,0.536-0.24,0.536-0.536c0-0.297-0.24-0.537-0.536-0.537h-1.572
		c-0.295,0-0.536,0.24-0.536,0.537C38.183,38.089,38.423,38.33,38.718,38.33z"/>
</g>
<g>
	<path fill="#FFFFFF" d="M51.701,37.794c0,0.295,0.24,0.536,0.536,0.536l1.965,0c0.297,0,0.536-0.24,0.536-0.536
		c0-0.297-0.239-0.537-0.536-0.537h-1.965C51.941,37.257,51.701,37.497,51.701,37.794z"/>
</g>
<g>
	<path fill="#FFFFFF" d="M50.973,35.075c0.099,0.171,0.279,0.269,0.466,0.269c0.091,0,0.183-0.023,0.267-0.073l1.697-0.979
		c0.257-0.147,0.343-0.476,0.195-0.732c-0.147-0.257-0.476-0.345-0.731-0.196l-1.696,0.979
		C50.913,34.49,50.824,34.818,50.973,35.075z"/>
</g>
<g>
	<path fill="#FFFFFF" d="M48.982,33.084c0.084,0.049,0.176,0.072,0.268,0.072c0.184,0,0.366-0.095,0.464-0.268l1.748-3.028
		c0.149-0.256,0.062-0.584-0.195-0.732c-0.258-0.149-0.586-0.061-0.732,0.196l-1.749,3.028
		C48.638,32.609,48.726,32.937,48.982,33.084z"/>
</g>
<g>
	<g>
		<path fill="#FFFFFF" d="M57.264,61.423c-0.043,0.11-0.213,0.472-0.459,0.472H46.413c-0.134,0-0.219-0.006-0.273-0.012
			c-0.007-0.1-0.007-0.255-0.007-0.35c0-0.144,0-0.303,0-0.468h11.273C57.331,61.26,57.279,61.388,57.264,61.423z M59.91,47.297
			v7.211c-0.494,1.298-1.475,3.868-2.094,5.486H46.113c-0.043-0.406-0.175-0.823-0.367-1.139c-0.728-1.194-4.417-7.248-5.61-9.17
			c-0.655-1.053-0.928-1.841-0.81-2.341c0.042-0.182,0.158-0.46,0.668-0.776c0.652-0.403,1.325-0.821,3.572,2.194
			c0.003,0.004,0.007,0.007,0.009,0.01V51.1c0,0.296,0.24,0.537,0.536,0.537c0.297,0,0.537-0.241,0.537-0.537V37.573
			c0-0.891,0.725-1.616,1.616-1.616c0.891,0,1.617,0.725,1.617,1.616v8.854c0,0.296,0.24,0.536,0.536,0.536
			c0.295,0,0.536-0.24,0.536-0.536v-4.061h1.637c0.892,0,1.617,0.725,1.617,1.617v2.445c0,0.296,0.239,0.536,0.536,0.536
			s0.536-0.24,0.536-0.536v-2.326h1.198c0.892,0,1.615,0.725,1.615,1.616v2.089c0,0.295,0.241,0.536,0.536,0.536
			c0.297,0,0.538-0.241,0.538-0.536v-2.089c0-0.013-0.003-0.024-0.003-0.037h1.132C59.186,45.681,59.911,46.406,59.91,47.297
			L59.91,47.297z"/>
	</g>
</g>
</svg>
