<?xml version="1.0" encoding="utf-8"?>
<!-- Generator: Adobe Illustrator 16.0.0, SVG Export Plug-In . SVG Version: 6.00 Build 0)  -->
<!DOCTYPE svg PUBLIC "-//W3C//DTD SVG 1.1//EN" "http://www.w3.org/Graphics/SVG/1.1/DTD/svg11.dtd">
<svg version="1.1" id="Layer_1" xmlns="http://www.w3.org/2000/svg" xmlns:xlink="http://www.w3.org/1999/xlink" x="0px" y="0px"
	 width="27px" height="27px" viewBox="0 0 27 27" enable-background="new 0 0 27 27" xml:space="preserve">
<g>
	<path d="M21.444,23.394H5.555c-0.813,0-1.474-0.694-1.474-1.549V5.153c0-0.854,0.661-1.548,1.474-1.548h15.89
		c0.812,0,1.475,0.693,1.475,1.548v16.692C22.919,22.699,22.257,23.394,21.444,23.394z M5.555,4.081
		c-0.563,0-1.021,0.48-1.021,1.072v16.692c0,0.592,0.458,1.074,1.021,1.074h15.89c0.562,0,1.021-0.482,1.021-1.074V5.153
		c0-0.592-0.459-1.072-1.021-1.072H5.555z"/>
</g>
<g>
	<path d="M11.739,7.932V7.411c0-0.098,0.08-0.179,0.178-0.179c0.098,0,0.178,0.081,0.178,0.179v0.521
		c0,0.099-0.08,0.179-0.178,0.179C11.818,8.111,11.739,8.031,11.739,7.932z"/>
</g>
<g>
	<path d="M10.77,8.287c0.034,0.057,0.094,0.089,0.154,0.089c0.031,0,0.061-0.008,0.09-0.025c0.084-0.049,0.114-0.158,0.064-0.243
		l-0.334-0.58c-0.049-0.085-0.158-0.114-0.244-0.065c-0.084,0.05-0.114,0.158-0.065,0.243L10.77,8.287z"/>
</g>
<g>
	<path d="M9.322,8.624l0.788,0.455c0.028,0.016,0.059,0.024,0.089,0.024c0.061,0,0.122-0.032,0.154-0.088
		c0.05-0.086,0.021-0.195-0.065-0.244L9.5,8.315C9.415,8.266,9.306,8.295,9.257,8.38C9.207,8.466,9.237,8.574,9.322,8.624z"/>
</g>
<g>
	<path d="M9.41,10.094h0.522c0.098,0,0.178-0.08,0.178-0.178c0-0.099-0.08-0.178-0.178-0.178H9.41c-0.098,0-0.178,0.079-0.178,0.178
		C9.232,10.014,9.312,10.094,9.41,10.094z"/>
</g>
<g>
	<path d="M13.722,9.916c0,0.098,0.079,0.178,0.178,0.178h0.654c0.098,0,0.177-0.08,0.177-0.178c0-0.099-0.079-0.178-0.177-0.178
		H13.9C13.801,9.737,13.722,9.816,13.722,9.916z"/>
</g>
<g>
	<path d="M13.48,9.013c0.033,0.057,0.093,0.09,0.155,0.09c0.03,0,0.061-0.008,0.089-0.024l0.563-0.325
		c0.086-0.049,0.114-0.158,0.064-0.243c-0.049-0.085-0.157-0.114-0.242-0.065L13.546,8.77C13.461,8.819,13.431,8.928,13.48,9.013z"
		/>
</g>
<g>
	<path d="M12.819,8.352c0.028,0.016,0.059,0.024,0.089,0.024c0.061,0,0.122-0.032,0.154-0.089l0.58-1.005
		c0.049-0.085,0.021-0.195-0.064-0.244c-0.085-0.049-0.195-0.02-0.243,0.066l-0.581,1.005C12.705,8.194,12.734,8.303,12.819,8.352z"
		/>
</g>
<g>
	<g>
		<path d="M15.569,17.763c-0.015,0.036-0.07,0.158-0.152,0.158h-3.451c-0.045,0-0.074-0.003-0.091-0.005
			c-0.002-0.033-0.002-0.085-0.002-0.117c0-0.047,0-0.1,0-0.155h3.743C15.592,17.71,15.573,17.752,15.569,17.763z M16.449,13.072
			v2.394c-0.164,0.433-0.49,1.284-0.696,1.823h-3.887c-0.014-0.137-0.058-0.274-0.122-0.378c-0.242-0.396-1.466-2.407-1.863-3.046
			c-0.217-0.35-0.308-0.611-0.268-0.777c0.014-0.06,0.052-0.153,0.222-0.257c0.216-0.135,0.439-0.273,1.186,0.728
			c0.001,0.001,0.003,0.002,0.003,0.003v0.773c0,0.1,0.08,0.179,0.178,0.179c0.099,0,0.178-0.079,0.178-0.179V9.842
			c0-0.296,0.24-0.536,0.537-0.536c0.295,0,0.537,0.24,0.537,0.536v2.94c0,0.099,0.08,0.178,0.179,0.178
			c0.097,0,0.177-0.08,0.177-0.178v-1.348h0.543c0.296,0,0.537,0.241,0.537,0.537v0.812c0,0.099,0.078,0.178,0.178,0.178
			c0.099,0,0.178-0.079,0.178-0.178v-0.772h0.399c0.294,0,0.534,0.241,0.534,0.537v0.694c0,0.098,0.08,0.178,0.18,0.178
			c0.098,0,0.177-0.08,0.177-0.178v-0.694c0-0.004,0-0.008,0-0.012h0.375C16.208,12.536,16.449,12.776,16.449,13.072L16.449,13.072z
			"/>
	</g>
</g>
</svg>
