<?xml version="1.0" encoding="utf-8"?>
<!-- Generator: Adobe Illustrator 16.0.0, SVG Export Plug-In . SVG Version: 6.00 Build 0)  -->
<!DOCTYPE svg PUBLIC "-//W3C//DTD SVG 1.1//EN" "http://www.w3.org/Graphics/SVG/1.1/DTD/svg11.dtd">
<svg version="1.1" id="Layer_1" xmlns="http://www.w3.org/2000/svg" xmlns:xlink="http://www.w3.org/1999/xlink" x="0px" y="0px"
	 width="141.358px" height="26.934px" viewBox="-18.829 3.191 141.358 26.934"
	 enable-background="new -18.829 3.191 141.358 26.934" xml:space="preserve">
<g>
	<g>
		<g>
			<path fill="#FFFFFF" d="M-16.589,29.218c-0.962,0-1.628-0.106-2.24-0.213v-2.986c0.427,0.16,1.013,0.268,1.652,0.268
				c1.253,0,1.974-0.535,1.974-2.48V5.705h3.465v18.235C-11.738,26.898-12.938,29.218-16.589,29.218z"/>
			<path fill="#FFFFFF" d="M1.083,23.725c0-0.611,0.027-1.625,0.159-2.372l-0.053-0.025c-0.774,1.574-2.319,2.666-4.479,2.666
				c-3.012,0-3.972-1.92-3.972-4.237v-6.692c-0.64-0.107-1.52-0.215-2.293-0.268v-2.133c1.76-0.213,3.866-0.292,5.705-0.239v8.505
				c0,1.386,0.375,2.212,1.626,2.212c1.733,0,3.093-1.974,3.093-4.292V10.45h3.387v10.638c0.64,0.104,1.545,0.213,2.319,0.265v2.135
				C4.896,23.699,2.843,23.779,1.083,23.725z"/>
			<path fill="#FFFFFF" d="M25.527,23.699v-8.397c0-1.414-0.319-2.293-1.574-2.293c-1.49,0-3.038,1.76-3.038,4.346v6.345h-3.359
				v-8.397c0-1.307-0.267-2.293-1.573-2.293c-1.573,0-3.039,1.866-3.039,4.346v6.345H9.558V13.063
				c-0.64-0.107-1.545-0.215-2.32-0.268v-2.133c1.68-0.213,3.759-0.292,5.519-0.239c0,0.64-0.055,1.626-0.16,2.397h0.026
				c0.8-1.625,2.399-2.665,4.374-2.665c2.343,0,3.331,1.387,3.652,2.665c0.613-1.305,2.077-2.665,4.317-2.665
				c2.561,0,3.973,1.414,3.973,4.426v9.117H25.527z"/>
			<path fill="#FFFFFF" d="M31.174,12.796v-2.133c1.682-0.213,3.706-0.292,5.465-0.239c0,0.665-0.024,1.545-0.131,2.239h0.052
				c0.748-1.547,2.16-2.48,4.159-2.48c3.145,0,4.854,2.267,4.854,6.184c0,4.613-2.4,7.521-6.985,7.521
				c-0.642,0-1.148-0.027-1.707-0.107v6.346h-3.387V13.063C32.855,12.956,31.948,12.848,31.174,12.796z M39.732,12.982
				c-1.787,0-2.853,2.081-2.853,4.346v3.68c0.533,0.158,1.092,0.239,1.785,0.239c1.948,0,3.333-1.228,3.333-4.506
				C41.998,14.262,41.28,12.982,39.732,12.982z"/>
			<path fill="#FFFFFF" d="M51.727,23.993c-1.279,0-2.561-0.134-3.678-0.426l0.212-3.227c1.012,0.346,2.455,0.639,3.761,0.639
				c1.759,0,3.119-0.72,3.119-2.371c0-3.439-7.548-1.867-7.548-7.785c0-3.2,2.535-5.412,6.854-5.412
				c1.013,0,2.185,0.133,3.251,0.319l-0.187,3.041c-1.014-0.294-2.133-0.48-3.225-0.48c-2,0-3.013,0.905-3.013,2.186
				c0,3.225,7.57,2.026,7.57,7.651C58.845,21.514,56.151,23.993,51.727,23.993z"/>
			<path fill="#FFFFFF" d="M66.227,23.968c-2.932,0-3.839-1.066-3.839-4.16v-6.719h-2.291V10.45h2.266V6.372l3.412-0.909v4.987
				h3.227v2.639h-3.227v5.813c0,1.705,0.4,2.186,1.571,2.186c0.562,0,1.176-0.08,1.655-0.215v2.747
				C68.147,23.833,67.159,23.968,66.227,23.968z"/>
			<path fill="#FFFFFF" d="M78.862,23.725c0-0.771,0.027-1.57,0.131-2.264l-0.024-0.027c-0.64,1.491-2.266,2.534-4.238,2.534
				c-2.398,0-3.788-1.359-3.788-3.494c0-3.172,3.148-4.853,7.654-4.853v-0.72c0-1.386-0.669-2.105-2.587-2.105
				c-1.198,0-2.8,0.4-3.921,1.039l-0.293-2.851c1.333-0.48,3.04-0.827,4.747-0.827c4.266,0,5.463,1.707,5.463,4.612v6.319
				c0.642,0.104,1.55,0.213,2.32,0.265v2.135C82.647,23.699,80.595,23.779,78.862,23.725z M78.597,17.835
				c-3.601,0-4.4,1.039-4.4,2.106c0,0.853,0.584,1.411,1.574,1.411c1.678,0,2.826-1.597,2.826-3.199V17.835z"/>
			<path fill="#FFFFFF" d="M90.051,13.116h0.052c0.642-1.681,1.921-3.145,4.213-2.959l-0.159,3.359
				c-2.455-0.507-3.678,1.093-3.678,4.771v5.412h-3.387V13.063c-0.64-0.107-1.547-0.215-2.319-0.268v-2.133
				c1.68-0.213,3.733-0.292,5.52-0.239C90.292,11.116,90.211,12.183,90.051,13.116z"/>
			<path fill="#FFFFFF" d="M101.632,23.968c-2.933,0-3.84-1.066-3.84-4.16v-6.719h-2.293V10.45h2.268V6.372l3.41-0.909v4.987h3.227
				v2.639h-3.227v5.813c0,1.705,0.4,2.186,1.574,2.186c0.559,0,1.173-0.08,1.652-0.215v2.747
				C103.55,23.833,102.563,23.968,101.632,23.968z"/>
		</g>
	</g>
	<path fill="#FFFFFF" d="M114.311,5.367c-0.785-0.306-1.687-0.494-2.6-0.494c-1.934,0-3.324,1.22-3.324,3.413
		c0,2.076,1.129,3.296,3.12,3.296c0.466,0,0.87-0.06,1.25-0.175v-3.41h1.884v4.674c-0.97,0.391-2.176,0.609-3.35,0.609
		c-3.108,0-4.954-1.829-4.954-4.819c0-3.08,2.093-5.27,5.49-5.27c0.972,0,1.929,0.174,2.772,0.421L114.311,5.367z"/>
	<path fill="#FFFFFF" d="M122.471,9.825h-4.473c-0.012,1.351,0.654,2.004,1.989,2.004c0.713,0,1.48-0.161,2.108-0.45l0.172,1.436
		c-0.771,0.307-1.682,0.465-2.583,0.465c-2.295,0-3.571-1.146-3.571-3.688c0-2.207,1.219-3.832,3.382-3.832
		c2.104,0,3.034,1.437,3.034,3.223C122.529,9.229,122.513,9.52,122.471,9.825z M119.438,7.123c-0.771,0-1.307,0.568-1.406,1.439
		h2.654C120.712,7.661,120.221,7.123,119.438,7.123z"/>
</g>
</svg>
