<?xml version="1.0" encoding="utf-8"?>
<!-- Generator: Adobe Illustrator 16.0.0, SVG Export Plug-In . SVG Version: 6.00 Build 0)  -->
<!DOCTYPE svg PUBLIC "-//W3C//DTD SVG 1.1//EN" "http://www.w3.org/Graphics/SVG/1.1/DTD/svg11.dtd">
<svg version="1.1" id="Layer_1" xmlns="http://www.w3.org/2000/svg" xmlns:xlink="http://www.w3.org/1999/xlink" x="0px" y="0px"
	 width="172.129px" height="29.32px" viewBox="0 0 172.129 29.32" enable-background="new 0 0 172.129 29.32" xml:space="preserve">
<g>
	<path fill="#FFFFFF" d="M9.754,8.143L9.553,6.302C9.035,5.928,8.2,5.438,7.136,5.438c-1.698,0-2.646,0.835-2.646,2.245
		c0,3.311,9.524,2.476,9.524,8.374c0,3.856-2.734,6.071-7.366,6.071c-4.172,0-6.561-1.18-6.561-1.18L0,15.711l3.165-0.202
		l0.375,3.079c0.805,0.23,1.697,0.403,2.647,0.403c2.589,0,3.453-1.065,3.453-2.36c0-3.079-9.496-2.071-9.496-8.488
		c0-3.338,2.561-5.755,6.302-5.755c1.353,0,2.647,0.604,3.597,1.208l0.576-0.92h2.503v5.467H9.754z"/>
	<path fill="#FFFFFF" d="M21.177,10.387v6.101c0,1.555,0.461,2.331,1.641,2.331c0.892,0,1.957-0.173,1.957-0.173v2.676
		c0,0-0.978,0.576-3.28,0.576c-3.021,0-4.546-1.15-4.546-4.402v-7.108h-1.612V7.395l1.64-0.145l0.604-4.373h3.597v4.315h3.798v3.193
		L21.177,10.387L21.177,10.387z"/>
	<path fill="#FFFFFF" d="M26.184,14.244c0-4.777,2.733-7.567,7.74-7.567c5.007,0,7.74,2.791,7.74,7.567
		c0,4.775-2.935,7.884-7.74,7.884C28.917,22.127,26.184,19.02,26.184,14.244z M37.291,14.301c0-2.993-0.921-4.69-3.367-4.69
		c-2.446,0-3.367,1.728-3.367,4.69c0,2.992,0.921,4.892,3.367,4.892C36.37,19.193,37.291,17.293,37.291,14.301z"/>
	<path fill="#FFFFFF" d="M43.275,21.581l-0.201-2.993l1.611-0.172v-8.058l-1.754-0.172l0.201-2.992h4.834l0.432,1.728h0.086
		c0,0,1.094-2.273,3.684-2.273c1.755,0,2.82,0.547,2.82,0.547l0.029,5.237h-3.021l-0.23-2.475h-0.432
		c-1.755,0-2.359,1.438-2.417,1.583v7.106l2.014,0.116l-0.172,2.82h-7.484V21.581z"/>
	<path fill="#FFFFFF" d="M56.683,25.523c0,0,1.295,0.46,2.331,0.46c1.266,0,2.475-1.381,3.481-4.374L57.777,10.33l-2.072-0.145
		l0.173-2.992h5.323l3.51,9.812h0.058l2.273-6.705l-1.41-0.115V7.194h6.992v2.992l-1.899,0.172l-4.431,11.799
		c-1.784,4.718-4,7.164-6.791,7.164c-2.877,0-3.194-0.893-3.194-0.893L56.683,25.523z"/>
	<path fill="#FFFFFF" d="M73.465,21.581l-0.173-2.993l2.158-0.172V5.841l-2.187-0.172l0.201-2.791h8.689
		c5.122,0,6.935,2.215,6.935,4.775c0,1.697-1.006,2.964-2.186,3.827c1.985,0.777,3.137,2.273,3.137,4.23
		c0,3.251-2.244,5.87-7.711,5.87H73.465z M82.76,10.646c0.979,0,2.187-0.719,2.187-2.589c0-1.669-1.093-2.129-3.021-2.129h-2.532
		v4.718H82.76z M79.394,13.438v5.064h2.705c2.503,0,3.655-1.036,3.655-2.791c0-1.698-0.979-2.273-2.764-2.273H79.394z"/>
	<path fill="#FFFFFF" d="M102.702,10.358l-1.498-0.172l0.203-2.992h5.553v11.452l1.582,0.116l-0.201,2.82h-5.094l-0.316-0.979
		h-0.057c0,0-1.295,1.525-4.633,1.525c-3.426,0-5.268-2.072-5.268-5.467v-6.303l-1.496-0.172l0.201-2.992h5.555v8.689
		c0,1.583,0.662,2.763,2.502,2.763c1.9,0,2.965-1.036,2.965-1.036v-7.253H102.702z"/>
	<path fill="#FFFFFF" d="M110.124,21.581l-0.201-2.993l1.611-0.172v-8.058l-1.496-0.172l0.172-2.992h5.553v11.452l1.582,0.116
		l-0.172,2.82h-7.049V21.581z M113.663,5.093c-1.555,0-2.477-1.007-2.477-2.273c0-1.237,0.865-2.243,2.447-2.243
		c1.639,0,2.445,1.035,2.445,2.272C116.081,4.172,115.159,5.093,113.663,5.093z"/>
	<path fill="#FFFFFF" d="M118.698,21.581l-0.172-2.993l1.582-0.172V3.165l-1.496-0.172L118.813,0h5.525v18.646l1.611,0.116
		l-0.203,2.82L118.698,21.581L118.698,21.581z"/>
	<path fill="#FFFFFF" d="M138.495,21.581l-0.346-1.008c0,0-1.15,1.554-4.402,1.554c-4,0-6.648-3.366-6.648-7.74
		c0-4.719,2.504-7.711,6.648-7.711c2.877,0,4.086,1.035,4.086,1.035h0.143V3.165l-1.523-0.172L136.651,0h5.525v18.646l1.584,0.116
		l-0.174,2.82L138.495,21.581L138.495,21.581z M137.975,17.523v-6.704c0,0-0.891-1.064-2.762-1.064c-2.646,0-3.711,1.41-3.711,4.518
		c0,3.108,1.094,4.72,3.539,4.72C136.94,18.991,137.889,17.639,137.975,17.523z"/>
	<path fill="#FFFFFF" d="M149.254,15.596c0.346,2.475,1.67,3.453,3.828,3.453c2.244,0,3.625-1.583,3.625-1.583l1.928,2.073
		c0,0-1.754,2.589-5.754,2.589c-4.893,0-7.914-2.647-7.914-7.798c0-5.094,3.137-7.653,7.367-7.653s6.533,2.272,6.533,6.387
		c0,1.497-0.576,2.532-0.576,2.532H149.254z M149.225,12.862h5.756c0,0,0.029-0.374,0.029-0.633c0-1.554-0.748-2.619-2.676-2.619
		S149.485,10.704,149.225,12.862z"/>
	<path fill="#FFFFFF" d="M160.391,21.581l-0.201-2.993l1.611-0.172v-8.058l-1.756-0.172l0.201-2.992h4.834l0.432,1.728h0.086
		c0,0,1.092-2.273,3.684-2.273c1.756,0,2.82,0.547,2.82,0.547l0.027,5.237h-3.021l-0.229-2.475h-0.432
		c-1.756,0-2.359,1.438-2.418,1.583v7.106l2.016,0.116l-0.172,2.82h-7.482V21.581z"/>
</g>
</svg>
