<?xml version="1.0" encoding="utf-8"?>
<!-- Generator: Adobe Illustrator 17.0.2, SVG Export Plug-In . SVG Version: 6.00 Build 0)  -->
<!DOCTYPE svg PUBLIC "-//W3C//DTD SVG 1.1//EN" "http://www.w3.org/Graphics/SVG/1.1/DTD/svg11.dtd">
<svg version="1.1" id="Capa_1" xmlns="http://www.w3.org/2000/svg" xmlns:xlink="http://www.w3.org/1999/xlink" x="0px" y="0px"
	 width="64px" height="64px" viewBox="0 0 64 64" enable-background="new 0 0 64 64" xml:space="preserve">
<g>
	<polygon points="43.236,45.368 61.093,28.403 49.955,16.679 	"/>
	<polygon points="37.131,27.281 37.47,28.339 41.918,42.225 47.373,18.93 47.789,17.156 48.182,15.478 48.118,15.463 32.294,11.757 
		32.236,12.004 36.792,26.224 	"/>
	<polygon points="30.756,13.938 30.163,12.087 29.995,11.564 14.456,16.542 15.026,18.32 26.108,29.402 26.94,30.235 27.772,31.067 
		29.683,32.978 30.391,33.685 31.098,34.393 40.192,43.486 40.207,43.438 35.859,29.869 35.521,28.811 35.182,27.754 31.35,15.791 	
		"/>
	<path d="M12.656,17.365l-0.028,0.028l-11.51,11.51l20.343,20.343l0.832,0.832l0.832,0.832l0.354,0.354l0.255,0.255l1.064,1.064
		l0.226,0.226l0.837,0.837l0.709,0.709l0.794,0.794l0.741,0.741l0.741,0.741l1.118,1.118l3.573-3.573l0.08-0.08l0.157-0.157
		l0.789-0.789l0.401-0.401l0.546-0.546l0.394-0.394l0.25-0.25l2.118-2.118l0.109-0.109l1.517-1.517l0.929-0.929l0.588-0.588
		l0.087-0.087l-0.046-0.046l-0.373-0.373l-0.427-0.427l-0.799-0.799l-9.484-9.484l-0.707-0.707l-0.707-0.707l-1.454-1.454
		l-0.832-0.832l-0.832-0.832L15.692,20.401l-1.545-1.545L12.656,17.365z M31.253,44.703c1.643,0,2.975,1.332,2.975,2.975
		c0,1.643-1.332,2.974-2.975,2.974s-2.975-1.332-2.975-2.974C28.278,46.035,29.61,44.703,31.253,44.703z"/>
</g>
</svg>
