<?xml version="1.0" encoding="utf-8"?>
<!-- Generator: Adobe Illustrator 16.0.0, SVG Export Plug-In . SVG Version: 6.00 Build 0)  -->
<!DOCTYPE svg PUBLIC "-//W3C//DTD SVG 1.1//EN" "http://www.w3.org/Graphics/SVG/1.1/DTD/svg11.dtd">
<svg version="1.1" id="Ebene_1" xmlns="http://www.w3.org/2000/svg" xmlns:xlink="http://www.w3.org/1999/xlink" x="0px" y="0px"
	 width="27px" height="27px" viewBox="0.355 -0.229 27 27" enable-background="new 0.355 -0.229 27 27" xml:space="preserve">
<path d="M6.875,19.667c0-0.349,0-0.683,0-1.031c5.454,0,8.484,0,13.951,0c0,0.343,0,0.681,0,1.031
	C15.383,19.667,12.354,19.667,6.875,19.667z"/>
<path d="M20.836,6.948c0,0.35,0,0.685,0,1.031c-3.26,0-2.754,0-6.02,0c0-0.338,0-0.677,0-1.031
	C18.068,6.948,17.564,6.948,20.836,6.948z"/>
<path d="M10.861,7.908v2.845H7.875V7.908H10.861 M11.861,6.876c-1.412,0-3.582,0-4.986,0c0,1.68,0,3.294,0,4.908
	c1.411,0,3.58,0,4.986,0C11.861,10.126,11.861,8.533,11.861,6.876L11.861,6.876z"/>
<path d="M20.836,10.753c0,0.346,0,0.683,0,1.031c-3.258,0-2.754,0-6.02,0c0-0.338,0-0.679,0-1.031
	C18.068,10.753,17.564,10.753,20.836,10.753z"/>
<path d="M6.884,15.758c0-0.347,0-0.684,0-1.031c5.451,0,8.483,0,13.95,0c0,0.338,0,0.68,0,1.031
	C15.393,15.758,12.359,15.758,6.884,15.758z"/>
</svg>
