<?xml version="1.0" encoding="utf-8"?>
<!-- Generator: Adobe Illustrator 15.0.0, SVG Export Plug-In . SVG Version: 6.00 Build 0)  -->
<!DOCTYPE svg PUBLIC "-//W3C//DTD SVG 1.1//EN" "http://www.w3.org/Graphics/SVG/1.1/DTD/svg11.dtd">
<svg version="1.1" id="Layer_1" xmlns="http://www.w3.org/2000/svg" xmlns:xlink="http://www.w3.org/1999/xlink" x="0px" y="0px"
	 width="26px" height="26px" viewBox="0 0 26 26" enable-background="new 0 0 26 26" xml:space="preserve">
<g>
	<path d="M1699.026,809.747v-5.441c0-1.105-0.896-2-2-2h-16.861c-1.104,0-2,0.895-2,2v5.441c0,1.105,0.896,2,2,2h16.861
		C1698.131,811.747,1699.026,810.853,1699.026,809.747z M1688.857,811.068l-0.624-2.075h-2.314l-0.576,2.075h-1.895l2.471-8.084
		h2.398l2.507,8.084H1688.857z M1693.743,811.068h-1.835v-8.084h1.835V811.068z"/>
	<path d="M1687.058,804.353h-0.023c-0.12,0.479-0.24,1.091-0.372,1.559l-0.479,1.715h1.787l-0.504-1.715
		C1687.322,805.432,1687.178,804.832,1687.058,804.353z"/>
	<path d="M1707.277,796.237h-21.77c-0.46,0-0.833,0.373-0.833,0.834v3.98h2.501v-2.727h18.309v19.592l-4.965-0.004
		c-0.246,0-0.48,0.098-0.654,0.271c-0.173,0.172-0.27,0.408-0.27,0.654l0.018,6.213h-12.438v-12.084h-2.501v13.457
		c0,0.459,0.373,0.832,0.833,0.832h16.236c0.237,0,0.463-0.102,0.621-0.277l5.533-6.195c0.136-0.152,0.211-0.35,0.211-0.555v-23.158
		C1708.109,796.61,1707.736,796.237,1707.277,796.237z"/>
</g>
<g>
	<path d="M18.265,6.535h-0.113c-0.114,0-0.224,0.045-0.304,0.126l-0.917,0.916l-0.917-0.916c-0.08-0.081-0.19-0.126-0.304-0.126
		h-0.05c-0.114,0-0.224,0.045-0.305,0.126l-0.917,0.916l-0.916-0.916c-0.081-0.081-0.19-0.126-0.305-0.126h-0.05
		c-0.114,0-0.224,0.045-0.304,0.126l-0.917,0.916l-0.916-0.916C10.95,6.58,10.84,6.535,10.727,6.535h-0.05
		c-0.114,0-0.224,0.045-0.304,0.126L9.456,7.577L8.539,6.661C8.458,6.58,8.349,6.535,8.235,6.535H7.993
		c-0.555,0-1.006,0.451-1.006,1.005v10.921c0,0.554,0.451,1.005,1.006,1.005h10.272c0.554,0,1.005-0.451,1.005-1.005V7.54
		C19.27,6.986,18.818,6.535,18.265,6.535z M18.408,18.461c0,0.079-0.064,0.144-0.144,0.144H7.993c-0.079,0-0.144-0.064-0.144-0.144
		V7.54c0-0.079,0.065-0.144,0.144-0.144h0.063l1.095,1.095c0.168,0.168,0.441,0.168,0.609,0l0.941-0.941l0.941,0.941
		c0.169,0.168,0.441,0.168,0.609,0l0.941-0.941l0.941,0.941c0.168,0.168,0.44,0.168,0.609,0l0.94-0.941l0.941,0.941
		c0.168,0.168,0.441,0.168,0.609,0l1.084-1.083c0.052,0.021,0.089,0.073,0.089,0.132V18.461z"/>
	<rect x="8.836" y="9.348" width="8.583" height="1.401"/>
	<path d="M12.393,11.637H8.836v3.556h3.556V11.637z M11.742,13.964c-0.014-0.101-0.031-0.355-0.169-0.38
		c-0.093-0.017-0.194,0.079-0.251,0.141c-0.146,0.155-0.273,0.335-0.357,0.532c-0.031,0.072-0.177,0.192-0.213,0.057
		c-0.089-0.335-0.121-0.826-0.384-1.079c-0.362-0.348-0.744,0.478-0.895,0.723c-0.076,0.122-0.273,0.088-0.182-0.062
		c0.182-0.294,0.602-1.175,1.085-0.971c0.354,0.15,0.455,0.633,0.537,1.021c0.127-0.217,0.296-0.423,0.502-0.533
		c0.353-0.19,0.502,0.122,0.545,0.437C11.977,13.963,11.763,14.109,11.742,13.964z"/>
	<path d="M17.15,11.924h-3.698c-0.238,0-0.432,0.193-0.432,0.432c0,0.237,0.193,0.431,0.432,0.431h3.698
		c0.238,0,0.432-0.193,0.432-0.431C17.582,12.117,17.389,11.924,17.15,11.924z"/>
	<path d="M17.15,13.936h-3.698c-0.238,0-0.432,0.192-0.432,0.431s0.193,0.431,0.432,0.431h3.698c0.238,0,0.432-0.192,0.432-0.431
		S17.389,13.936,17.15,13.936z"/>
	<path d="M17.15,16.27H9.429c-0.238,0-0.431,0.193-0.431,0.431c0,0.238,0.193,0.432,0.431,0.432h7.721
		c0.238,0,0.432-0.193,0.432-0.432C17.582,16.463,17.389,16.27,17.15,16.27z"/>
</g>
</svg>
