<?xml version="1.0" encoding="utf-8"?>
<!-- Generator: Adobe Illustrator 16.0.0, SVG Export Plug-In . SVG Version: 6.00 Build 0)  -->
<!DOCTYPE svg PUBLIC "-//W3C//DTD SVG 1.1//EN" "http://www.w3.org/Graphics/SVG/1.1/DTD/svg11.dtd">
<svg version="1.1" id="Layer_1" xmlns="http://www.w3.org/2000/svg" xmlns:xlink="http://www.w3.org/1999/xlink" x="0px" y="0px"
	 width="30px" height="30px" viewBox="0 0 30 30" enable-background="new 0 0 30 30" xml:space="preserve">
<g>
	<path fill="#292929" d="M27.16,14.548c-0.223-0.338-1.438-2.115-3.451-3.891c-0.365-0.324-0.752-0.634-1.205-0.973l-0.016-0.011
		l-1.139,1.159l-0.096,0.096l-0.182,0.182l0.122,0.09c1.856,1.368,3.229,3.017,3.885,3.879c-1.438,1.847-5.28,6.134-9.933,6.134
		c-1.114,0-2.268-0.256-3.428-0.75l-0.463,0.463l-0.092,0.094l-0.969,0.967l0.238,0.109c1.56,0.73,3.146,1.102,4.712,1.102
		c3.54,0,6.571-1.996,8.491-3.67c2.187-1.912,3.504-3.875,3.513-3.887C27.374,15.307,27.379,14.88,27.16,14.548z"/>
	<path fill="#292929" d="M9.168,19.26l0.082-0.084l-0.16-0.111c-2.098-1.475-3.619-3.342-4.181-4.08
		c1.068-1.441,4.927-6.116,9.94-6.116c1.248,0,2.529,0.305,3.81,0.899l0.533-0.534l0.086-0.086l0.86-0.876l-0.236-0.119
		c-1.672-0.841-3.371-1.268-5.053-1.268c-7.157,0-11.822,7.275-12.016,7.582c-0.21,0.326-0.207,0.746,0.006,1.067
		c0.076,0.119,1.936,2.926,4.943,5.074l0.018,0.014l1.278-1.275L9.168,19.26z"/>
	<path fill="#292929" d="M15.207,11.089c-2.148,0-3.898,1.723-3.898,3.84c0,0.598,0.15,1.184,0.445,1.745l0.498-0.5l0.092-0.092
		l0.636-0.633l0.094-0.094l0.308-0.308c-0.002-0.037-0.021-0.082-0.021-0.118c0-1,0.829-1.813,1.849-1.813
		c0.027,0,0.062,0.014,0.09,0.016l0.293-0.294l0.098-0.099l0.639-0.637l0.092-0.091l0.512-0.513l-0.016-0.008
		C16.36,11.223,15.787,11.089,15.207,11.089z"/>
	<path fill="#292929" d="M15.207,18.768c2.15,0,3.9-1.723,3.9-3.839c0-0.516-0.104-1.018-0.307-1.491l-0.017-0.038l-0.508,0.508
		L18.184,14l-0.649,0.649l-0.094,0.094l-0.406,0.406c-0.103,0.811-0.745,1.453-1.567,1.568l-0.463,0.463l-0.092,0.09l-0.648,0.648
		l-0.09,0.09l-0.461,0.461l0.057,0.021C14.238,18.674,14.723,18.768,15.207,18.768z"/>
	<polygon fill="#292929" points="11.581,19.541 13.643,17.479 13.737,17.385 14.383,16.74 14.477,16.648 16.911,14.212 
		17.006,14.118 17.654,13.468 17.75,13.375 19.907,11.216 19.998,11.125 20.725,10.398 20.82,10.302 24.469,6.584 23.649,5.765 
		19.813,9.673 19.723,9.763 18.975,10.513 18.881,10.605 16.946,12.542 16.855,12.631 16.217,13.27 16.123,13.364 13.603,15.885 
		13.51,15.979 12.873,16.613 12.782,16.705 10.536,18.951 10.444,19.041 9.698,19.789 9.61,19.877 6.057,23.418 6.877,24.236 
		10.637,20.486 10.727,20.396 11.485,19.637 	"/>
	<path fill="#292929" d="M10.637,20.486l-3.762,3.75l-0.818-0.818l3.554-3.541l0.088-0.088l0.746-0.748l0.092-0.09l2.246-2.246
		l0.091-0.092l0.637-0.635l0.094-0.094l2.521-2.521l0.095-0.095l0.639-0.638l0.091-0.091l1.935-1.936l0.095-0.092l0.747-0.75
		l0.092-0.091l3.836-3.907l0.818,0.818L20.823,10.3l-0.096,0.096L20,11.124l-0.091,0.092l-2.157,2.157l-0.096,0.095l-0.648,0.649
		l-0.095,0.094l-2.435,2.436l-0.094,0.094l-0.646,0.645l-0.094,0.094l-2.062,2.062l-0.096,0.096l-0.76,0.76L10.637,20.486z"/>
</g>
</svg>
