<?xml version="1.0" encoding="utf-8"?>
<!-- Generator: Adobe Illustrator 16.0.0, SVG Export Plug-In . SVG Version: 6.00 Build 0)  -->
<!DOCTYPE svg PUBLIC "-//W3C//DTD SVG 1.1//EN" "http://www.w3.org/Graphics/SVG/1.1/DTD/svg11.dtd">
<svg version="1.1" id="Layer_1" xmlns="http://www.w3.org/2000/svg" xmlns:xlink="http://www.w3.org/1999/xlink" x="0px" y="0px"
	 width="30px" height="30px" viewBox="0 0 30 30" enable-background="new 0 0 30 30" xml:space="preserve">
<g>
	<g>
		<g>
			<path fill="#292929" d="M23.289,19.145c2.131-1.859,3.414-3.768,3.426-3.787c0.11-0.164,0.113-0.375,0.008-0.537
				c-0.219-0.329-1.408-2.063-3.367-3.791c-0.355-0.314-0.73-0.616-1.172-0.945l-0.713,0.712c1.904,1.403,3.312,3.092,3.988,3.981
				l0.186,0.244l0.045,0.062l-0.047,0.061l-0.188,0.238c-1.48,1.902-5.451,6.33-10.33,6.33c-1.218,0-2.475-0.281-3.735-0.836
				l-0.765,0.764c1.494,0.699,3.006,1.055,4.5,1.055C18.514,22.693,21.434,20.764,23.289,19.145z"/>
			<path fill="#292929" d="M4.488,15.283l-0.18-0.234L4.263,14.99l0.044-0.062l0.176-0.24c1.1-1.482,5.091-6.322,10.348-6.322
				c1.342,0,2.715,0.327,4.084,0.974l0.741-0.743c-1.603-0.806-3.225-1.214-4.827-1.214c-6.878,0-11.406,7.051-11.596,7.352
				c-0.104,0.16-0.102,0.365,0.003,0.523c0.076,0.115,1.896,2.854,4.817,4.939l0.728-0.727C6.625,17.953,5.064,16.041,4.488,15.283z
				"/>
		</g>
		<path fill="#292929" d="M15.186,12.612c0.245,0,0.477,0.047,0.699,0.116l0.791-0.791c-0.453-0.218-0.953-0.352-1.49-0.352
			c-1.874,0-3.398,1.498-3.398,3.34c0,0.547,0.147,1.057,0.387,1.512l0.793-0.791c-0.077-0.229-0.129-0.469-0.129-0.721
			C12.836,13.65,13.891,12.612,15.186,12.612z"/>
		<path fill="#292929" d="M15.186,17.238c-0.146,0-0.29-0.018-0.43-0.043l-0.826,0.826c0.39,0.152,0.812,0.242,1.256,0.242
			c1.875,0,3.4-1.498,3.4-3.338c0-0.458-0.095-0.896-0.267-1.294l-0.832,0.832c0.031,0.149,0.05,0.304,0.05,0.462
			C17.537,16.201,16.481,17.238,15.186,17.238z"/>
		<polygon fill="#292929" points="11.56,19.539 13.623,17.475 13.715,17.383 14.361,16.736 14.455,16.645 16.891,14.209 
			16.983,14.116 17.633,13.466 17.729,13.372 19.887,11.214 19.977,11.123 20.703,10.396 20.799,10.3 24.446,6.582 23.629,5.764 
			19.793,9.67 19.7,9.762 18.953,10.512 18.858,10.604 16.926,12.539 16.834,12.629 16.194,13.268 16.102,13.361 13.582,15.883 
			13.487,15.975 12.852,16.609 12.76,16.701 10.515,18.949 10.422,19.037 9.676,19.785 9.588,19.873 6.035,23.414 6.854,24.234 
			10.615,20.482 10.705,20.393 11.463,19.635 		"/>
	</g>
</g>
</svg>
