<?xml version="1.0" encoding="utf-8"?>
<!-- Generator: Adobe Illustrator 16.0.0, SVG Export Plug-In . SVG Version: 6.00 Build 0)  -->
<!DOCTYPE svg PUBLIC "-//W3C//DTD SVG 1.1//EN" "http://www.w3.org/Graphics/SVG/1.1/DTD/svg11.dtd">
<svg version="1.1" id="Layer_1" xmlns="http://www.w3.org/2000/svg" xmlns:xlink="http://www.w3.org/1999/xlink" x="0px" y="0px"
	 width="27px" height="27px" viewBox="36.5 36.5 27 27" enable-background="new 36.5 36.5 27 27" xml:space="preserve">
<path fill="#282828" d="M57.457,46.665h-1.648l0.015-0.278c0.002-0.018,0.004-0.035,0.004-0.055v-3.591
	c0-0.895-0.731-1.622-1.633-1.622h-8.391c-0.898,0-1.63,0.727-1.63,1.622v3.591c0,0.018,0.002,0.033,0.002,0.051l0.014,0.281h-1.646
	c-0.9,0-1.63,0.727-1.63,1.621v5.769c0,0.893,0.73,1.62,1.63,1.62h1.63v1.084c0,0.894,0.732,1.62,1.63,1.62h8.391
	c0.901,0,1.633-0.727,1.633-1.62v-1.084h1.63c0.898,0,1.631-0.728,1.631-1.62v-5.769C59.088,47.392,58.355,46.665,57.457,46.665
	L57.457,46.665z M45.571,42.509h8.86v4.056h-8.86V42.509L45.571,42.509z M54.431,56.989h-8.86v-4.056h8.86V56.989L54.431,56.989z
	 M57.689,54.285h-1.862v-2.509H44.173v2.509H42.31v-6.232h15.379V54.285L57.689,54.285z"/>
</svg>
