<?xml version="1.0" encoding="utf-8"?>
<!-- Generator: Adobe Illustrator 16.0.0, SVG Export Plug-In . SVG Version: 6.00 Build 0)  -->
<!DOCTYPE svg PUBLIC "-//W3C//DTD SVG 1.1//EN" "http://www.w3.org/Graphics/SVG/1.1/DTD/svg11.dtd">
<svg version="1.1" id="Layer_1" xmlns="http://www.w3.org/2000/svg" xmlns:xlink="http://www.w3.org/1999/xlink" x="0px" y="0px"
	 width="21px" height="21px" viewBox="0 0 21 21" enable-background="new 0 0 21 21" xml:space="preserve">
<path fill="#FFFFFF" d="M14.508,14.838c-1.605,1.643-3.74,2.547-6.009,2.547c-2.271,0-4.403-0.904-6.009-2.547
	c-3.315-3.389-3.315-8.902,0-12.292C4.095,0.904,6.228,0,8.499,0c2.27,0,4.404,0.904,6.009,2.547
	C17.824,5.934,17.824,11.449,14.508,14.838L14.508,14.838z M13.736,3.336c-1.398-1.432-3.26-2.22-5.238-2.22
	c-1.979,0-3.839,0.788-5.237,2.22c-2.89,2.952-2.89,7.759,0,10.71c1.398,1.434,3.258,2.221,5.237,2.221
	c1.978,0,3.839-0.787,5.238-2.221C16.623,11.096,16.623,6.289,13.736,3.336L13.736,3.336z M19.246,21l-4.75-4.895l1.75-1.789
	l4.75,4.896L19.246,21L19.246,21z"/>
</svg>
