<?xml version="1.0" encoding="utf-8"?>
<!-- Generator: Adobe Illustrator 16.0.0, SVG Export Plug-In . SVG Version: 6.00 Build 0)  -->
<!DOCTYPE svg PUBLIC "-//W3C//DTD SVG 1.1//EN" "http://www.w3.org/Graphics/SVG/1.1/DTD/svg11.dtd">
<svg version="1.1" id="Layer_10" xmlns="http://www.w3.org/2000/svg" xmlns:xlink="http://www.w3.org/1999/xlink" x="0px" y="0px"
	 width="100px" height="100px" viewBox="0 0 100 100" enable-background="new 0 0 100 100" xml:space="preserve">
<path d="M87.001,77.233L61.35,51.582c-0.24-0.241-0.497-0.455-0.761-0.655l4.543-4.784c0.232-0.234,0.452-0.48,0.654-0.733
	c6.031,2.275,13.108,0.996,17.956-3.851c3.536-3.537,5.319-8.428,4.888-13.42c-0.047-0.565-0.421-1.053-0.953-1.246
	c-0.534-0.195-1.131-0.062-1.533,0.338l-8.22,8.22L69.6,33.353l-2.36-8.586l8.219-8.219c0.403-0.402,0.535-1,0.341-1.533
	c-0.194-0.534-0.682-0.905-1.248-0.955c-4.992-0.43-9.883,1.352-13.42,4.889c-4.844,4.844-6.126,11.917-3.854,17.946
	c-0.247,0.209-0.493,0.431-0.734,0.669l-6.687,6.422L37.578,31.708c-0.153-0.154-0.317-0.289-0.485-0.416
	c0.144-0.253,0.284-0.513,0.415-0.783c2.593,0.499,7.334-4.551,11.36-8.576l-11.73-11.731c-5.245,5.246-9.075,8.767-8.578,11.36
	c-1.199,0.586-2.268,1.302-3.028,2.063l-1.652,1.652c-1.073,1.074-1.72,2.41-1.951,3.802c-0.16,0.183-0.323,0.376-0.485,0.582
	l-0.616,0.774c-0.017,0.019-0.07,0.095-0.085,0.115l-0.558,0.781c-0.349,0.466-0.654,0.972-0.949,1.46
	c-0.109,0.181-0.22,0.363-0.333,0.544c-0.018,0.031-0.036,0.062-0.052,0.093l-0.248,0.467c-0.3,0.562-0.611,1.144-0.877,1.784
	l-0.043,0.102c-0.314,0.746-0.639,1.518-0.866,2.336l-0.11,0.354c-0.09,0.291-0.181,0.582-0.265,0.929l-0.228,1.129
	c-0.17,0.706-0.227,1.402-0.277,2.019l-0.033,0.405c-0.084,0.64-0.06,1.243-0.037,1.775c0.008,0.178,0.015,0.353,0.02,0.589
	c0.006,0.098,0.007,0.194,0.01,0.288c0.006,0.238,0.012,0.508,0.058,0.792l0.143,0.916c0.031,0.177,0.057,0.349,0.081,0.514
	c0.055,0.372,0.111,0.757,0.222,1.122l0.6,2.082c0.185,0.633,0.786,1.052,1.444,1.006c0.348-0.024,0.661-0.175,0.894-0.408
	c0.208-0.208,0.352-0.482,0.396-0.79l0.311-2.117c0.023-0.168,0.095-0.414,0.17-0.674c0.053-0.181,0.105-0.365,0.145-0.522
	l0.221-0.79c0.027-0.107,0.079-0.211,0.125-0.318c0.044-0.099,0.088-0.201,0.127-0.302c0.074-0.168,0.144-0.336,0.213-0.508
	c0.136-0.338,0.265-0.656,0.462-0.968c0.085-0.144,0.165-0.287,0.246-0.433c0.205-0.367,0.4-0.714,0.631-1.001
	c0.015-0.017,0.028-0.036,0.043-0.056l0.522-0.72c0.107-0.135,0.227-0.263,0.344-0.392c0.083-0.091,0.166-0.182,0.271-0.302
	c0.308-0.371,0.67-0.694,1.019-1.012l0.187-0.168c0.259-0.24,0.558-0.466,0.873-0.705c0.129-0.096,0.255-0.192,0.379-0.286
	c0.159-0.103,0.313-0.206,0.465-0.308c0.284-0.192,0.53-0.358,0.814-0.506l0.619-0.352l0.626-0.307
	c0.218-0.113,0.433-0.2,0.631-0.28c0.118-0.049,0.234-0.096,0.342-0.143c0.11-0.038,0.216-0.079,0.316-0.116
	c0.134-0.049,0.25-0.096,0.407-0.137l0.169-0.038c0.184,0.298,0.4,0.581,0.659,0.84l12.146,12.146L17.289,75.268
	c-0.01,0.011-0.02,0.021-0.029,0.03c-3.227,3.227-3.752,7.952-0.525,11.179c3.227,3.227,7.652,2.4,10.878-0.826
	c0.014-0.013,0.026-0.026,0.039-0.041l22.874-24.086c0.134,0.159,0.267,0.318,0.416,0.467l25.649,25.65
	c2.874,2.875,7.536,2.875,10.41,0C89.874,84.769,89.874,80.106,87.001,77.233z M24.265,82.991c-1.188,1.19-3.115,1.19-4.304,0
	c-1.188-1.188-1.188-3.114,0-4.303c1.188-1.187,3.115-1.188,4.304,0C25.452,79.877,25.452,81.803,24.265,82.991z"/>
</svg>
