<?xml version="1.0" encoding="utf-8"?>
<!-- Generator: Adobe Illustrator 16.0.0, SVG Export Plug-In . SVG Version: 6.00 Build 0)  -->
<!DOCTYPE svg PUBLIC "-//W3C//DTD SVG 1.1//EN" "http://www.w3.org/Graphics/SVG/1.1/DTD/svg11.dtd">
<svg version="1.1" id="Ebene_1" xmlns="http://www.w3.org/2000/svg" xmlns:xlink="http://www.w3.org/1999/xlink" x="0px" y="0px"
	 width="27px" height="27px" viewBox="0 0 27 27" enable-background="new 0 0 27 27" xml:space="preserve">
<g>
	<path fill="#FFFFFF" d="M13.588,11.99l0.882-0.883c0.069-0.068,0.092-0.17,0.058-0.26c-0.433-1.104-0.22-2.229,0.569-3.019
		c0.717-0.718,1.754-0.999,2.725-0.761L16.521,8.37c-0.281,0.281-0.438,0.656-0.438,1.056c0,0.398,0.155,0.771,0.438,1.055
		c0.283,0.281,0.656,0.438,1.056,0.438s0.772-0.154,1.054-0.438l1.303-1.299c0.236,0.971-0.041,2.004-0.762,2.723
		c-0.789,0.789-1.914,1.002-3.017,0.57c-0.124-0.049-0.265,0.015-0.312,0.14c-0.051,0.124,0.014,0.265,0.137,0.313
		c0.437,0.172,0.875,0.254,1.302,0.254c0.833,0,1.62-0.319,2.235-0.936c0.944-0.945,1.239-2.361,0.752-3.609
		c-0.028-0.074-0.096-0.133-0.176-0.146c-0.08-0.018-0.164,0.008-0.223,0.064l-1.583,1.584c-0.188,0.188-0.44,0.293-0.711,0.293
		c-0.269,0-0.521-0.104-0.711-0.293c-0.19-0.191-0.295-0.444-0.295-0.713c0-0.271,0.104-0.521,0.295-0.712l1.581-1.581
		c0.059-0.061,0.084-0.145,0.066-0.225c-0.019-0.08-0.074-0.146-0.149-0.178c-1.245-0.485-2.662-0.191-3.608,0.756
		c-0.893,0.893-1.16,2.146-0.734,3.385l-0.771,0.771c-0.096,0.097-0.096,0.248,0,0.346C13.338,12.085,13.493,12.085,13.588,11.99z"
		/>
	<path fill="#FFFFFF" d="M12.36,16.062l-3.629,3.631c-0.006,0.004-0.467,0.447-0.983,0.283c-0.128-0.039-0.265,0.031-0.306,0.16
		c-0.039,0.129,0.029,0.266,0.158,0.305C7.735,20.482,7.864,20.5,7.987,20.5c0.613,0,1.062-0.439,1.087-0.463l3.63-3.631
		c0.096-0.096,0.096-0.25,0-0.344S12.456,15.969,12.36,16.062z"/>
	<path fill="#FFFFFF" d="M11.82,13.755c0.095-0.093,0.095-0.247,0-0.344c-0.097-0.095-0.249-0.095-0.345,0L6.96,17.928
		c-0.025,0.026-0.654,0.668-0.4,1.471c0.033,0.104,0.129,0.173,0.23,0.173c0.021,0,0.051-0.004,0.072-0.015
		c0.128-0.039,0.197-0.177,0.158-0.306c-0.164-0.519,0.279-0.978,0.281-0.979L11.82,13.755z"/>
	<path fill="#FFFFFF" d="M15.354,13.411c-0.027-0.024-0.062-0.045-0.096-0.058l-2.598-0.866L10.054,9.88
		c-0.045-0.047-0.105-0.071-0.17-0.071H8.255L7.097,7.883l0.615-0.617L9.64,8.424v0.744c0,0.135,0.109,0.243,0.244,0.243
		s0.242-0.108,0.242-0.243V8.284c0-0.084-0.045-0.163-0.117-0.209L7.8,6.753C7.703,6.694,7.581,6.708,7.503,6.788L6.618,7.671
		c-0.077,0.08-0.094,0.201-0.035,0.298l1.324,2.207c0.045,0.073,0.123,0.119,0.208,0.119h1.667l2.578,2.578
		c0.002,0.001,0.003,0.001,0.004,0.003c0.02,0.019,0.043,0.035,0.07,0.046c0.004,0.004,0.008,0.004,0.012,0.006
		c0.003,0.002,0.006,0.004,0.01,0.004l2.594,0.867l4.377,4.375c0.006,0.004,0.545,0.562,0.381,1.077
		c-0.039,0.129,0.031,0.267,0.16,0.308c0.024,0.009,0.049,0.013,0.071,0.013c0.104,0,0.2-0.068,0.231-0.173
		c0.254-0.801-0.469-1.538-0.5-1.567L15.354,13.411z"/>
	<path fill="#FFFFFF" d="M19.085,19.977c-0.521,0.164-1.076-0.377-1.08-0.381l-4.377-4.375l-0.424-1.271
		c-0.041-0.126-0.18-0.195-0.307-0.153c-0.129,0.041-0.196,0.181-0.154,0.308l0.441,1.324c0.012,0.037,0.033,0.068,0.061,0.096
		l4.415,4.416c0.024,0.025,0.563,0.559,1.22,0.559c0.113,0,0.231-0.02,0.352-0.055c0.127-0.041,0.197-0.18,0.156-0.309
		C19.349,20.008,19.211,19.938,19.085,19.977z"/>
</g>
</svg>
