<?xml version="1.0" encoding="utf-8"?>
<!-- Generator: Adobe Illustrator 16.0.0, SVG Export Plug-In . SVG Version: 6.00 Build 0)  -->
<!DOCTYPE svg PUBLIC "-//W3C//DTD SVG 1.1//EN" "http://www.w3.org/Graphics/SVG/1.1/DTD/svg11.dtd">
<svg version="1.1" id="Ebene_1" xmlns="http://www.w3.org/2000/svg" xmlns:xlink="http://www.w3.org/1999/xlink" x="0px" y="0px"
	 width="27px" height="27px" viewBox="36.545 35.922 27 27" enable-background="new 36.545 35.922 27 27" xml:space="preserve">
<g>
	<path d="M50.134,47.912l0.882-0.883c0.069-0.068,0.092-0.17,0.057-0.26c-0.432-1.103-0.219-2.229,0.57-3.018
		c0.717-0.718,1.754-0.999,2.724-0.761l-1.3,1.302c-0.282,0.281-0.438,0.656-0.438,1.055c0,0.399,0.155,0.772,0.438,1.055
		c0.283,0.281,0.656,0.438,1.055,0.438s0.773-0.155,1.054-0.438l1.302-1.299c0.237,0.971-0.041,2.004-0.761,2.723
		c-0.789,0.789-1.914,1.002-3.017,0.57c-0.124-0.049-0.264,0.015-0.312,0.14c-0.05,0.124,0.014,0.265,0.137,0.313
		c0.437,0.172,0.875,0.254,1.302,0.254c0.833,0,1.62-0.319,2.235-0.935c0.945-0.946,1.24-2.362,0.752-3.61
		c-0.028-0.074-0.095-0.132-0.176-0.146c-0.08-0.018-0.164,0.008-0.222,0.064l-1.583,1.584c-0.189,0.188-0.441,0.293-0.711,0.293
		c-0.268,0-0.521-0.104-0.711-0.293c-0.191-0.191-0.295-0.444-0.295-0.713c0-0.271,0.104-0.521,0.295-0.711l1.581-1.582
		c0.059-0.06,0.084-0.144,0.067-0.224c-0.019-0.08-0.074-0.146-0.15-0.177c-1.245-0.486-2.662-0.192-3.608,0.755
		c-0.893,0.893-1.161,2.147-0.735,3.385l-0.771,0.772c-0.096,0.096-0.096,0.248,0,0.345C49.884,48.007,50.039,48.007,50.134,47.912z
		"/>
	<path d="M48.906,51.984l-3.629,3.631c-0.006,0.004-0.467,0.447-0.983,0.283c-0.128-0.039-0.265,0.031-0.306,0.16
		c-0.039,0.129,0.029,0.266,0.158,0.305c0.135,0.041,0.264,0.059,0.387,0.059c0.613,0,1.062-0.439,1.087-0.463l3.63-3.631
		c0.096-0.096,0.096-0.25,0-0.344S49.002,51.891,48.906,51.984z"/>
	<path d="M48.366,49.677c0.095-0.093,0.095-0.247,0-0.344c-0.097-0.095-0.249-0.095-0.345,0l-4.515,4.517
		c-0.026,0.026-0.655,0.668-0.401,1.471c0.033,0.104,0.129,0.172,0.231,0.172c0.022,0,0.05-0.004,0.072-0.014
		c0.128-0.039,0.198-0.177,0.159-0.306c-0.164-0.519,0.279-0.978,0.281-0.979L48.366,49.677z"/>
	<path d="M51.9,49.333c-0.027-0.024-0.062-0.045-0.096-0.058l-2.597-0.866L46.6,45.802c-0.045-0.047-0.106-0.071-0.17-0.071h-1.629
		l-1.158-1.926l0.615-0.617l1.928,1.158v0.744c0,0.135,0.109,0.243,0.244,0.243s0.242-0.108,0.242-0.243v-0.884
		c0-0.084-0.045-0.163-0.117-0.209l-2.209-1.322c-0.097-0.059-0.219-0.045-0.297,0.035l-0.885,0.883
		c-0.077,0.08-0.094,0.201-0.035,0.298l1.324,2.207c0.045,0.073,0.123,0.119,0.208,0.119h1.667l2.578,2.578
		c0.002,0.001,0.003,0.001,0.004,0.003c0.02,0.019,0.043,0.035,0.07,0.046c0.004,0.004,0.008,0.004,0.012,0.006
		c0.003,0.002,0.006,0.004,0.01,0.004l2.594,0.867l4.377,4.375c0.006,0.004,0.545,0.562,0.381,1.077
		c-0.039,0.129,0.031,0.267,0.16,0.308c0.024,0.008,0.049,0.012,0.071,0.012c0.104,0,0.2-0.068,0.231-0.172
		c0.254-0.801-0.469-1.539-0.5-1.568L51.9,49.333z"/>
	<path d="M55.631,55.898c-0.521,0.164-1.076-0.377-1.08-0.381l-4.377-4.375l-0.424-1.271c-0.041-0.126-0.18-0.195-0.307-0.153
		c-0.129,0.041-0.196,0.181-0.154,0.308l0.441,1.324c0.012,0.037,0.033,0.068,0.061,0.096l4.415,4.416
		c0.024,0.025,0.563,0.558,1.22,0.558c0.113,0,0.231-0.019,0.352-0.055c0.127-0.041,0.197-0.179,0.156-0.308
		C55.895,55.93,55.757,55.859,55.631,55.898z"/>
</g>
</svg>
