<?xml version="1.0" encoding="utf-8"?>
<!-- Generator: Adobe Illustrator 16.0.0, SVG Export Plug-In . SVG Version: 6.00 Build 0)  -->
<!DOCTYPE svg PUBLIC "-//W3C//DTD SVG 1.1//EN" "http://www.w3.org/Graphics/SVG/1.1/DTD/svg11.dtd">
<svg version="1.1" id="Ebene_1" xmlns="http://www.w3.org/2000/svg" xmlns:xlink="http://www.w3.org/1999/xlink" x="0px" y="0px"
	 width="27px" height="27px" viewBox="36.199 36.373 27 27" enable-background="new 36.199 36.373 27 27" xml:space="preserve">
<rect x="49.253" y="42.768" width="0.894" height="7.229"/>
<path d="M53.751,44.716l-0.517,0.729c1.49,1.115,2.375,2.871,2.375,4.73c0,3.26-2.651,5.911-5.91,5.911
	c-3.26,0-5.911-2.651-5.911-5.911c0-1.859,0.885-3.617,2.375-4.732l-0.517-0.729c-1.726,1.282-2.75,3.312-2.75,5.46
	c0,3.751,3.052,6.804,6.804,6.804c3.751,0,6.803-3.053,6.803-6.804C56.503,48.027,55.479,45.999,53.751,44.716z"/>
</svg>
