<?xml version="1.0" encoding="utf-8"?>
<!-- Generator: Adobe Illustrator 16.0.0, SVG Export Plug-In . SVG Version: 6.00 Build 0)  -->
<!DOCTYPE svg PUBLIC "-//W3C//DTD SVG 1.1//EN" "http://www.w3.org/Graphics/SVG/1.1/DTD/svg11.dtd">
<svg version="1.1" id="Layer_1" xmlns="http://www.w3.org/2000/svg" xmlns:xlink="http://www.w3.org/1999/xlink" x="0px" y="0px"
	 width="34px" height="34px" viewBox="15.782 2.462 34 34" enable-background="new 15.782 2.462 34 34" xml:space="preserve">
<g>
	<path fill="#225A1F" d="M37.16,12.69c-0.012-0.557-0.021-0.951-0.085-1.031l-0.018-0.02l-0.027,0.004
		c-0.001,0-0.793,0.159-1.481,0.386c-0.423,0.139-0.82,0.336-1.18,0.581c-0.352,0.241-0.667,0.53-0.927,0.859
		c-0.272,0.343-0.486,0.731-0.623,1.157c-0.13,0.402-0.192,0.837-0.172,1.298c0.008,0.189,0.031,0.383,0.067,0.581
		c0.019,0.095,0.04,0.19,0.064,0.287l0.53,0.034l0.015-0.029c0.054-0.102,0.121-0.225,0.2-0.361
		c0.069-0.119,0.145-0.245,0.222-0.373c0.079-0.041,0.193-0.085,0.356-0.131c0.146-0.041,0.328-0.082,0.558-0.12l0.033-0.006
		c0.192-0.033,0.425-0.072,0.666-0.127c0.188-0.042,0.377-0.095,0.559-0.16l-0.02,0.022c-0.041,0.048-0.082,0.095-0.125,0.141
		c-0.311,0.336-0.692,0.619-1.138,0.827c-0.331,0.155-0.699,0.269-1.104,0.332l1.026,0.068c0.048-0.019,0.096-0.04,0.142-0.06
		c0.521-0.23,0.962-0.553,1.322-0.939c0.383-0.413,0.673-0.898,0.864-1.422c0.198-0.538,0.291-1.115,0.277-1.694L37.16,12.69z
		 M33.604,15.666c-0.122,0.185-0.206,0.317-0.29,0.458c-0.076,0.125-0.149,0.258-0.246,0.44c-0.019-0.091-0.037-0.182-0.049-0.271
		c-0.02-0.129-0.031-0.256-0.037-0.38c-0.018-0.42,0.039-0.816,0.158-1.181c0.12-0.373,0.304-0.714,0.539-1.019L33.604,15.666z
		 M35.309,12.477c0.112-0.047,0.228-0.09,0.346-0.129c0.153-0.051,0.31-0.094,0.469-0.129c0.123-0.025,0.248-0.047,0.374-0.064
		c-0.19,0.23-0.469,0.564-0.763,0.915c-0.207,0.247-0.427,0.505-0.637,0.752l-0.096-1.201C35.103,12.57,35.206,12.521,35.309,12.477
		z M34.022,13.327c0.096-0.094,0.195-0.182,0.301-0.266c0.114-0.09,0.233-0.175,0.357-0.254l0.11,1.375l-0.101,0.116l-0.098,0.114
		l-0.018,0.004l-0.043,0.011l0.012,0.04c-0.043,0.048-0.082,0.092-0.114,0.127l-0.082,0.091l-0.03,0.032
		c-0.069,0.077-0.141,0.16-0.212,0.25c-0.05,0.061-0.099,0.125-0.146,0.189l0.066-1.784l0.003-0.043H34.022z M36.499,14.552
		c-0.052,0.128-0.113,0.254-0.181,0.377c-0.185,0.161-0.477,0.276-0.782,0.361c-0.312,0.087-0.644,0.144-0.9,0.188l-0.033,0.005
		c-0.133,0.022-0.253,0.046-0.361,0.071c-0.07,0.015-0.135,0.031-0.192,0.047c0.078-0.112,0.157-0.223,0.238-0.327
		c0.093-0.121,0.185-0.234,0.275-0.331l0.01-0.011l0.095-0.104l0.106-0.119l1.85-0.488C36.586,14.333,36.547,14.443,36.499,14.552z
		 M36.854,12.381c-0.017,0.12-0.029,0.262-0.026,0.42c0.005,0.181-0.002,0.361-0.021,0.54c-0.018,0.17-0.044,0.339-0.082,0.505
		l-1.559,0.412c0.252-0.293,0.528-0.62,0.787-0.927c0.393-0.468,0.753-0.901,0.934-1.121C36.877,12.26,36.865,12.317,36.854,12.381z
		"/>
</g>
<path fill="#225A1F" d="M29.272,10.612c-0.28-0.552-0.542-1.076-0.72-1.438c0.154,0.068,0.306,0.141,0.454,0.221
	c0.194,0.103,0.381,0.215,0.56,0.334v0c0.138,0.093,0.272,0.19,0.401,0.292l0,0c0.12,0.095,0.237,0.194,0.35,0.297l-0.439,1.479
	C29.677,11.409,29.469,11,29.272,10.612 M29.676,12.322l-1.858-1.097c-0.003-0.224,0.007-0.446,0.031-0.667
	c0.023-0.232,0.063-0.462,0.116-0.689c0.047-0.199,0.069-0.382,0.077-0.54c0.005-0.084,0.005-0.161,0.004-0.228
	c0.17,0.344,0.511,1.025,0.882,1.759C29.173,11.345,29.434,11.858,29.676,12.322z M28.936,13.485
	c-0.364-0.221-0.7-0.474-0.892-0.746c-0.054-0.179-0.097-0.361-0.13-0.543c-0.03-0.154-0.052-0.309-0.067-0.464l2.205,1.303
	l0.103,0.189h0l0.091,0.167v0l0.01,0.016c0.088,0.157,0.175,0.333,0.26,0.521c0.073,0.161,0.145,0.331,0.214,0.501
	c-0.071-0.042-0.147-0.086-0.23-0.132c-0.13-0.07-0.276-0.146-0.437-0.223l-0.042-0.02C29.71,13.904,29.307,13.711,28.936,13.485z
	 M31.327,16.208L31.327,16.208l0.029,0.11c-0.619-0.25-1.154-0.576-1.606-0.959c-0.509-0.428-0.913-0.928-1.218-1.465
	c-0.042-0.074-0.083-0.149-0.121-0.224l-0.018-0.034c0.211,0.147,0.438,0.285,0.663,0.409c0.289,0.158,0.572,0.294,0.806,0.407
	l0.041,0.02c0.278,0.134,0.499,0.254,0.671,0.358c0.193,0.118,0.327,0.218,0.415,0.298c0.065,0.189,0.127,0.376,0.182,0.552
	C31.234,15.879,31.287,16.059,31.327,16.208z M31.275,14.674l0.422-2.489c0.215,0.471,0.357,0.97,0.411,1.483
	c0.053,0.505,0.019,1.025-0.115,1.548c-0.039,0.154-0.088,0.31-0.147,0.466c-0.04,0.108-0.085,0.216-0.134,0.324
	c-0.073-0.267-0.131-0.46-0.192-0.646C31.452,15.152,31.379,14.953,31.275,14.674z M30.17,12.363l0.501-1.691
	c0.135,0.145,0.264,0.297,0.384,0.453l0,0c0.11,0.144,0.213,0.292,0.31,0.446l-0.009-0.002l-0.008,0.056l-0.386,2.274
	c-0.042-0.098-0.087-0.196-0.134-0.291c-0.067-0.139-0.135-0.272-0.202-0.394l-0.029-0.051l0,0l-0.079-0.145
	c-0.032-0.058-0.068-0.126-0.109-0.203l0.023-0.046l-0.05-0.03l-0.02-0.011l-0.095-0.179L30.17,12.363z M31.837,16.733
	c0.13-0.221,0.242-0.444,0.337-0.668c0.097-0.235,0.178-0.472,0.239-0.707c0.147-0.574,0.182-1.146,0.125-1.701
	c-0.062-0.587-0.228-1.156-0.48-1.69c-0.241-0.513-0.562-0.993-0.943-1.429c-0.388-0.441-0.838-0.836-1.333-1.168
	c-0.809-0.543-1.766-1.035-1.77-1.037l-0.03-0.016l-0.026,0.019c-0.104,0.078-0.22,0.571-0.383,1.27l-0.031,0.13
	c-0.17,0.726-0.203,1.489-0.097,2.24c0.104,0.731,0.341,1.451,0.714,2.114c0.352,0.622,0.824,1.192,1.419,1.675
	c0.447,0.363,0.964,0.675,1.553,0.923L31.837,16.733z"/>
<path fill="#225A1F" d="M27.557,23.811c-5.925-1.175-5.448,2.23,5.172,3.605c-7.156,1.481-14.456,2.035-16.729-7.86
	C21.504,24.769,25.863,20.386,27.557,23.811"/>
<path fill="#748D27" d="M31.131,20.996c-3.451-4.1-5.01-1.478,1.58,5.365c-5.776-2.944-11.136-6.612-7.221-14.722
	C26.408,18.3,31.858,17.685,31.131,20.996"/>
<path fill="#748D27" d="M34.331,20.996c3.45-4.1,5.008-1.478-1.58,5.365c5.775-2.944,11.137-6.612,7.221-14.722
	C39.052,18.3,33.604,17.685,34.331,20.996"/>
<path fill="#748D27" d="M18.688,16.242c1.052,0,1.904,0.817,1.904,1.824c0,1.007-0.852,1.824-1.904,1.824
	c-1.05,0-1.902-0.816-1.902-1.824C16.786,17.059,17.638,16.242,18.688,16.242"/>
<path fill="#748D27" d="M46.288,16.242c1.052,0,1.903,0.817,1.903,1.824c0,1.007-0.852,1.824-1.903,1.824
	c-1.051,0-1.903-0.816-1.903-1.824C44.385,17.059,45.237,16.242,46.288,16.242"/>
<path fill="#225A1F" d="M38.007,23.811c5.927-1.175,5.449,2.23-5.171,3.605c7.157,1.482,14.455,2.035,16.729-7.86
	C44.059,24.769,39.701,20.386,38.007,23.811"/>
</svg>
