<?xml version="1.0" encoding="utf-8"?>
<!-- Generator: Adobe Illustrator 16.0.0, SVG Export Plug-In . SVG Version: 6.00 Build 0)  -->
<!DOCTYPE svg PUBLIC "-//W3C//DTD SVG 1.1//EN" "http://www.w3.org/Graphics/SVG/1.1/DTD/svg11.dtd">
<svg version="1.1" id="Layer_1" xmlns="http://www.w3.org/2000/svg" xmlns:xlink="http://www.w3.org/1999/xlink" x="0px" y="0px"
	 width="34px" height="34px" viewBox="0 0 34 34" enable-background="new 0 0 34 34" xml:space="preserve">
<g>
	<path fill="#FFFFFF" d="M19.777,12.842l-0.204-1.861c-0.523-0.378-1.367-0.872-2.442-0.872c-1.715,0-2.674,0.843-2.674,2.268
		c0,3.343,9.624,2.5,9.624,8.46c0,3.896-2.762,6.135-7.444,6.135c-4.215,0-6.629-1.192-6.629-1.192L9.92,20.489l3.199-0.204
		l0.377,3.111c0.814,0.232,1.715,0.407,2.675,0.407c2.617,0,3.489-1.076,3.489-2.384c0-3.111-9.595-2.094-9.595-8.578
		c0-3.373,2.588-5.815,6.368-5.815c1.367,0,2.675,0.61,3.634,1.221l0.582-0.931h2.529v5.524H19.777z"/>
</g>
<path fill="#FFFFFF" d="M32.8,1.2v31.6H1.2V1.2H32.8 M34,0H0v34h34V0L34,0z"/>
</svg>
