<?xml version="1.0" encoding="utf-8"?>
<!-- Generator: Adobe Illustrator 16.0.0, SVG Export Plug-In . SVG Version: 6.00 Build 0)  -->
<!DOCTYPE svg PUBLIC "-//W3C//DTD SVG 1.1//EN" "http://www.w3.org/Graphics/SVG/1.1/DTD/svg11.dtd">
<svg version="1.1" id="Layer_1" xmlns="http://www.w3.org/2000/svg" xmlns:xlink="http://www.w3.org/1999/xlink" x="0px" y="0px"
	 width="30px" height="30px" viewBox="0 0 30 30" enable-background="new 0 0 30 30" xml:space="preserve">
<path fill="#292929" d="M14.802,6.048l2.334,5.158l0.271,0.597l0.65,0.073l5.6,0.638l-4.158,3.825l-0.482,0.443l0.133,0.642
	l1.127,5.553l-4.906-2.793l-0.566-0.326l-0.566,0.326L9.33,22.977l1.129-5.553l0.131-0.642l-0.482-0.443l-4.156-3.825l5.6-0.638
	l0.648-0.073l0.27-0.597L14.802,6.048 M14.802,3.252l-3.383,7.474l-8.115,0.926l6.025,5.542l-1.635,8.043l7.107-4.047l7.108,4.047
	l-1.634-8.043l6.023-5.542l-8.115-0.926L14.802,3.252L14.802,3.252L14.802,3.252z"/>
</svg>
