<?xml version="1.0" encoding="utf-8"?>
<!-- Generator: Adobe Illustrator 16.0.0, SVG Export Plug-In . SVG Version: 6.00 Build 0)  -->
<!DOCTYPE svg PUBLIC "-//W3C//DTD SVG 1.1//EN" "http://www.w3.org/Graphics/SVG/1.1/DTD/svg11.dtd">
<svg version="1.1" id="Layer_1" xmlns="http://www.w3.org/2000/svg" xmlns:xlink="http://www.w3.org/1999/xlink" x="0px" y="0px"
	 width="30px" height="30px" viewBox="0 0 30 30" enable-background="new 0 0 30 30" xml:space="preserve">
<path fill="#292929" d="M14.804,8.844l1.287,2.84l0.539,1.193l1.295,0.148l3.086,0.352l-2.289,2.107l-0.963,0.885l0.262,1.285
	l0.621,3.059l-2.703-1.539l-1.135-0.646l-1.137,0.646l-2.699,1.539l0.619-3.059l0.262-1.285l-0.963-0.885l-2.291-2.107l3.086-0.352
	l1.297-0.148l0.539-1.193L14.804,8.844 M14.804,3.252l-3.383,7.474l-8.117,0.926l6.025,5.543l-1.633,8.041l7.106-4.047l7.107,4.047
	l-1.636-8.041l6.025-5.543l-8.115-0.926L14.804,3.252L14.804,3.252L14.804,3.252z"/>
</svg>
