<?xml version="1.0" encoding="utf-8"?>
<!-- Generator: Adobe Illustrator 16.0.0, SVG Export Plug-In . SVG Version: 6.00 Build 0)  -->
<!DOCTYPE svg PUBLIC "-//W3C//DTD SVG 1.1//EN" "http://www.w3.org/Graphics/SVG/1.1/DTD/svg11.dtd">
<svg version="1.1" id="Layer_1" xmlns="http://www.w3.org/2000/svg" xmlns:xlink="http://www.w3.org/1999/xlink" x="0px" y="0px"
	 width="34px" height="40px" viewBox="0 0 34 40" enable-background="new 0 0 34 40" xml:space="preserve">
<g>
	<polygon fill="#FFFFFF" points="20.145,14.968 18.848,14.82 18.309,13.627 17.021,10.787 15.735,13.627 15.196,14.82 
		13.898,14.968 10.813,15.321 13.104,17.428 14.067,18.312 13.805,19.599 13.185,22.656 15.885,21.117 17.021,20.472 18.156,21.117 
		20.859,22.656 20.238,19.599 19.977,18.312 20.939,17.428 23.229,15.321 	"/>
	<path fill="#FFFFFF" d="M0.062-0.083v29.5L17.021,40l16.957-10.583v-29.5H0.062z M24.129,27.18l-7.107-4.047L9.915,27.18
		l1.633-8.043l-6.025-5.543l8.117-0.926l3.382-7.473l3.383,7.473l8.115,0.926l-6.025,5.543L24.129,27.18z"/>
</g>
</svg>
