<?xml version="1.0" encoding="utf-8"?>
<!-- Generator: Adobe Illustrator 16.0.0, SVG Export Plug-In . SVG Version: 6.00 Build 0)  -->
<!DOCTYPE svg PUBLIC "-//W3C//DTD SVG 1.1//EN" "http://www.w3.org/Graphics/SVG/1.1/DTD/svg11.dtd">
<svg version="1.1" id="Layer_1" xmlns="http://www.w3.org/2000/svg" xmlns:xlink="http://www.w3.org/1999/xlink" x="0px" y="0px"
	 width="27px" height="27px" viewBox="-3.501 -5.504 27 27" enable-background="new -3.501 -5.504 27 27" xml:space="preserve">
<path fill="#5E5E5E" d="M19.998,1.922c-0.337,0.183-1.349,0.547-2.287,0.638c0.604-0.319,1.498-1.369,1.718-2.204
	c-0.58,0.367-1.914,0.898-2.572,0.898l0,0C16.104,0.482,15.049,0,13.875,0c-2.278,0-4.127,1.818-4.127,4.062
	c0,0.309,0.037,0.615,0.104,0.906l0,0c-3.09-0.081-6.47-1.605-8.505-4.213c-1.251,2.129-0.167,4.5,1.25,5.364
	c-0.484,0.035-1.38-0.056-1.8-0.459C0.768,7.073,1.459,8.945,3.979,9.626c-0.485,0.258-1.344,0.185-1.718,0.13
	c0.132,1.194,1.83,2.754,3.689,2.754C5.287,13.264,2.797,14.631,0,14.195c1.898,1.137,4.113,1.797,6.455,1.797
	c6.655,0,11.827-5.311,11.546-11.858c0-0.008,0-0.016-0.002-0.023c0.002-0.016,0.002-0.033,0.002-0.049
	c0-0.021-0.002-0.041-0.002-0.061C18.604,3.593,19.417,2.872,19.998,1.922L19.998,1.922z"/>
</svg>
