<?xml version="1.0" encoding="utf-8"?>
<!-- Generator: Adobe Illustrator 16.0.0, SVG Export Plug-In . SVG Version: 6.00 Build 0)  -->
<!DOCTYPE svg PUBLIC "-//W3C//DTD SVG 1.1//EN" "http://www.w3.org/Graphics/SVG/1.1/DTD/svg11.dtd">
<svg version="1.1" id="Layer_1" xmlns="http://www.w3.org/2000/svg" xmlns:xlink="http://www.w3.org/1999/xlink" x="0px" y="0px"
	 width="34px" height="34px" viewBox="-0.592 -5.061 34 34" enable-background="new -0.592 -5.061 34 34" xml:space="preserve">
<g>
	<path fill="#FFFFFF" d="M27.075,23.879H5.743C2.576,23.879,0,21.303,0,18.137V5.742C0,2.576,2.576,0,5.743,0h21.333
		c3.165,0,5.741,2.576,5.741,5.742v12.395C32.817,21.303,30.24,23.879,27.075,23.879z M5.743,1.842c-2.151,0-3.9,1.75-3.9,3.9
		v12.395c0,2.15,1.75,3.9,3.9,3.9h21.333c2.149,0,3.899-1.75,3.899-3.9V5.742c0-2.15-1.75-3.9-3.899-3.9H5.743z"/>
</g>
<g>
	<path fill="#FFFFFF" d="M16.707,19.091c-3.917,0-7.105-3.187-7.105-7.104c0-3.917,3.188-7.104,7.105-7.104s7.104,3.186,7.104,7.104
		C23.811,15.905,20.624,19.091,16.707,19.091z M16.707,6.725c-2.902,0-5.263,2.36-5.263,5.262s2.36,5.262,5.263,5.262
		c2.9,0,5.263-2.358,5.263-5.262C21.97,9.085,19.608,6.725,16.707,6.725z"/>
</g>
<g>
	<path fill="#FFFFFF" d="M27.598,6.725h-3.479c-0.509,0-0.921-0.412-0.921-0.921c0-0.509,0.412-0.921,0.921-0.921h3.479
		c0.509,0,0.921,0.412,0.921,0.921C28.519,6.313,28.106,6.725,27.598,6.725z"/>
</g>
</svg>
