<?xml version="1.0" encoding="utf-8"?>
<!-- Generator: Adobe Illustrator 16.0.4, SVG Export Plug-In . SVG Version: 6.00 Build 0)  -->
<!DOCTYPE svg PUBLIC "-//W3C//DTD SVG 1.1//EN" "http://www.w3.org/Graphics/SVG/1.1/DTD/svg11.dtd">
<svg version="1.1" id="Layer_1" xmlns="http://www.w3.org/2000/svg" xmlns:xlink="http://www.w3.org/1999/xlink" x="0px" y="0px"
	 width="50px" height="50px" viewBox="0 0 50 50" enable-background="new 0 0 50 50" xml:space="preserve">
<path d="M7.375,15.023c0-2.144,1.746-3.889,3.891-3.889s3.89,1.745,3.89,3.889c0,2.145-1.745,3.89-3.89,3.89
	S7.375,17.168,7.375,15.023z M25.001,26.115c3.506,0,6.361-2.855,6.361-6.363s-2.854-6.361-6.361-6.36
	c-3.507,0-6.361,2.853-6.361,6.36S21.495,26.115,25.001,26.115z M38.736,18.914c2.145,0,3.891-1.745,3.891-3.89
	c0-2.144-1.746-3.89-3.891-3.89s-3.89,1.746-3.89,3.89C34.848,17.168,36.592,18.914,38.736,18.914z M17.748,23.497l0.052-0.063
	l-0.012-0.081c-0.333-2.178-1.471-3.926-3.203-4.926l-0.124-0.071l-0.098,0.103c-0.817,0.857-1.918,1.33-3.097,1.33
	c-1.179,0-2.279-0.473-3.097-1.33L8.07,18.355l-0.124,0.071c-1.731,1-2.869,2.748-3.203,4.926l-0.012,0.081l0.052,0.063
	c1.729,2.073,4.031,3.214,6.481,3.214C13.714,26.711,16.019,25.569,17.748,23.497z M45.258,23.354
	c-0.332-2.178-1.471-3.926-3.202-4.926l-0.124-0.071l-0.098,0.103c-0.818,0.857-1.918,1.33-3.098,1.33
	c-1.179,0-2.279-0.472-3.097-1.33l-0.099-0.103l-0.123,0.071c-1.732,1-2.869,2.748-3.203,4.926l-0.012,0.081l0.051,0.063
	c1.729,2.073,4.031,3.215,6.481,3.215c2.451,0,4.752-1.143,6.481-3.215l0.052-0.063L45.258,23.354z M30.428,25.317l-0.201-0.116
	l-0.161,0.168c-1.336,1.403-3.136,2.175-5.064,2.175s-3.728-0.771-5.064-2.175l-0.161-0.168l-0.202,0.116
	c-2.832,1.636-4.692,4.495-5.237,8.056l-0.02,0.133l0.085,0.103c2.827,3.392,6.591,5.259,10.599,5.259
	c4.008,0,7.772-1.867,10.599-5.259l0.085-0.103l-0.02-0.133C35.121,29.812,33.26,26.953,30.428,25.317z"/>
</svg>
