<?xml version="1.0" encoding="utf-8"?>
<!-- Generator: Adobe Illustrator 16.0.0, SVG Export Plug-In . SVG Version: 6.00 Build 0)  -->
<!DOCTYPE svg PUBLIC "-//W3C//DTD SVG 1.1//EN" "http://www.w3.org/Graphics/SVG/1.1/DTD/svg11.dtd">
<svg version="1.1" id="Ebene_1" xmlns="http://www.w3.org/2000/svg" xmlns:xlink="http://www.w3.org/1999/xlink" x="0px" y="0px"
	 width="27px" height="27px" viewBox="36.501 36.12 27 27" enable-background="new 36.501 36.12 27 27" xml:space="preserve">
<g>
	<path d="M55.111,50.109c0.652-0.545,1.074-1.435,1.074-2.438c0-1.653-1.15-2.997-2.565-2.997c-0.896,0-1.688,0.542-2.147,1.36
		c-0.318-1.882-1.732-3.304-3.424-3.304s-3.104,1.422-3.421,3.304c-0.166,1.239,0.003,1.802,0.282,2.591
		c0.302,0.73,0.783,1.344,1.38,1.752c-0.358,0.109-0.702,0.254-1.028,0.428c-0.018,0.012-0.033,0.023-0.053,0.033
		c-0.148,0.076-0.311,0.139-0.449,0.234c-0.046,0.029-0.088,0.063-0.135,0.097c-0.059,0.082-0.139,0.151-0.232,0.195
		c-0.765,0.593-1.383,1.366-1.787,2.257c-0.088,0.27-0.203,0.512-0.351,0.984c-0.122,0.479-0.188,0.979-0.188,1.492
		c0,0.228,0.184,0.412,0.412,0.412h11.144c0.229,0,0.413-0.186,0.413-0.412c0-0.527-0.069-1.041-0.198-1.529h3.687
		c0.228,0,0.412-0.186,0.412-0.414C57.934,52.302,56.757,50.719,55.111,50.109z M53.62,45.501c0.959,0,1.739,0.974,1.739,2.17
		c0,1.197-0.78,2.172-1.739,2.172c-0.958,0-1.739-0.975-1.739-2.172C51.881,46.475,52.662,45.501,53.62,45.501z M52.13,50.109
		c-0.452,0.162-0.874,0.406-1.25,0.718c-0.339-0.183-0.696-0.333-1.071-0.448c0.594-0.408,1.078-1.02,1.379-1.752
		C51.359,49.229,51.693,49.747,52.13,50.109z M45.387,46.837c0-1.81,1.193-3.278,2.661-3.278s2.665,1.469,2.665,3.278
		c0,1.808-1.197,3.277-2.665,3.277S45.387,48.645,45.387,46.837z M42.907,55.688c0.211-2.652,2.437-4.746,5.142-4.746
		c2.706,0,4.93,2.094,5.143,4.746H42.907z M53.551,53.744c-0.42-0.975-1.089-1.817-1.93-2.444c0.582-0.409,1.277-0.631,1.999-0.631
		c1.782,0,3.257,1.345,3.463,3.075H53.551z"/>
</g>
</svg>
