<?xml version="1.0" encoding="utf-8"?>
<!-- Generator: Adobe Illustrator 16.0.0, SVG Export Plug-In . SVG Version: 6.00 Build 0)  -->
<!DOCTYPE svg PUBLIC "-//W3C//DTD SVG 1.1//EN" "http://www.w3.org/Graphics/SVG/1.1/DTD/svg11.dtd">
<svg version="1.1" id="Layer_1" xmlns="http://www.w3.org/2000/svg" xmlns:xlink="http://www.w3.org/1999/xlink" x="0px" y="0px"
	 width="27px" height="27px" viewBox="36.5 36.5 27 27" enable-background="new 36.5 36.5 27 27" xml:space="preserve">
<path fill="#282828" d="M50.102,57.502c-0.002,0-0.008,0.002-0.016,0.002C50.092,57.502,50.096,57.502,50.102,57.502"/>
<polyline fill="#282828" points="49.234,42.615 49.227,42.625 49.234,42.615 "/>
<g>
	<g>
		<path fill="#282828" d="M50.043,42.851c-6.28,0-10.457,6.583-10.632,6.863c-0.069,0.112-0.067,0.255,0.003,0.365
			c0.181,0.28,4.51,6.858,10.628,6.858c6.002,0,10.44-6.573,10.626-6.853c0.075-0.114,0.077-0.261,0.003-0.375
			C60.492,49.43,56.19,42.851,50.043,42.851z M59.709,50.244c-1.382,1.808-5.088,6.011-9.666,6.011
			c-4.823,0-8.627-4.604-9.678-6.016l-0.259-0.348l0.254-0.351c1.023-1.409,4.746-6.006,9.683-6.006c4.689,0,8.324,4.196,9.669,6
			l0.266,0.356L59.709,50.244z"/>
		<path fill="#282828" d="M50.171,47.007c-1.559,0-2.825,1.268-2.825,2.826c0,1.558,1.267,2.827,2.825,2.827s2.827-1.27,2.827-2.827
			C52.998,48.274,51.729,47.007,50.171,47.007z M50.171,51.975c-1.18,0-2.141-0.962-2.141-2.142c0-1.181,0.961-2.142,2.141-2.142
			c1.181,0,2.142,0.961,2.142,2.142C52.312,51.013,51.352,51.975,50.171,51.975z"/>
	</g>
</g>
</svg>
