<?xml version="1.0" encoding="UTF-8" standalone="no"?>
<!-- Created with Inkscape (http://www.inkscape.org/) -->

<svg
   xmlns:dc="http://purl.org/dc/elements/1.1/"
   xmlns:cc="http://creativecommons.org/ns#"
   xmlns:rdf="http://www.w3.org/1999/02/22-rdf-syntax-ns#"
   xmlns:svg="http://www.w3.org/2000/svg"
   xmlns="http://www.w3.org/2000/svg"
   xmlns:sodipodi="http://sodipodi.sourceforge.net/DTD/sodipodi-0.dtd"
   xmlns:inkscape="http://www.inkscape.org/namespaces/inkscape"
   width="27"
   height="27"
   id="svg5105"
   version="1.1"
   inkscape:version="0.48.4 r9939"
   sodipodi:docname="New document 2">
  <defs
     id="defs5107" />
  <sodipodi:namedview
     id="base"
     pagecolor="#ffffff"
     bordercolor="#666666"
     borderopacity="1.0"
     inkscape:pageopacity="0.0"
     inkscape:pageshadow="2"
     inkscape:zoom="11.2"
     inkscape:cx="7.0897675"
     inkscape:cy="-8.2955747"
     inkscape:document-units="px"
     inkscape:current-layer="layer1"
     showgrid="false"
     inkscape:window-width="1871"
     inkscape:window-height="1056"
     inkscape:window-x="1649"
     inkscape:window-y="24"
     inkscape:window-maximized="1" />
  <metadata
     id="metadata5110">
    <rdf:RDF>
      <cc:Work
         rdf:about="">
        <dc:format>image/svg+xml</dc:format>
        <dc:type
           rdf:resource="http://purl.org/dc/dcmitype/StillImage" />
        <dc:title></dc:title>
      </cc:Work>
    </rdf:RDF>
  </metadata>
  <g
     inkscape:label="Layer 1"
     inkscape:groupmode="layer"
     id="layer1"
     transform="translate(0,-1025.3622)">
    <g
       transform="translate(-96.50155,-894.24881)"
       id="youtube_1_">
      <g
         id="g123">
        <path
           inkscape:connector-curvature="0"
           d="M 109.431,1930.793 C 109.549,1930.793 109.751,1930.753 109.779,1930.725 C 109.827,1930.674 110,1930.601 110,1930.501 V 1927.395 C 110,1927.326 109.832,1927.281 109.787,1927.24 C 109.74,1927.199 109.598,1927.179 109.506,1927.179 C 109.401,1927.179 109.218,1927.212 109.197,1927.232 C 109.153,1927.276 109,1927.325 109,1927.395 V 1930.501 C 109,1930.608 109.118,1930.685 109.157,1930.73 C 109.182,1930.757 109.324,1930.793 109.431,1930.793 z"
           id="path125" />
        <path
           inkscape:connector-curvature="0"
           d="M 119.5,1921 H 100.5 C 99.125,1921 98,1922.125 98,1923.5 V 1942.5 C 98,1943.875 99.125,1945 100.5,1945 H 119.5 C 120.875,1945 122,1943.875 122,1942.5 V 1923.5 C 122,1922.125 120.875,1921 119.5,1921 z M 112,1926 H 113 V 1930.506 C 113,1930.641 113.097,1930.68 113.153,1930.69 C 113.162,1930.69 113.428,1930.686 113.549,1930.603 C 113.632,1930.548 114,1930.477 114,1930.391 V 1926 H 115 V 1932 H 114 V 1931.692 C 114,1931.778 113.619,1931.851 113.514,1931.912 C 113.272,1932.05 112.944,1932.119 112.711,1932.119 C 112.403,1932.119 112.271,1932.003 112.11,1931.783 C 111.959,1931.575 112,1931.287 112,1930.901 V 1926 z M 110.611,1926.261 C 110.929,1926.573 111,1926.98 111,1927.469 V 1930.416 C 111,1930.956 110.933,1931.39 110.621,1931.705 C 110.307,1932.021 109.923,1932.182 109.389,1932.182 C 108.87,1932.182 108.619,1932.016 108.304,1931.691 C 107.99,1931.369 108.001,1930.933 108.001,1930.395 V 1927.438 C 108.001,1926.94 108.018,1926.535 108.345,1926.235 C 108.668,1925.939 108.981,1925.789 109.513,1925.789 C 110.004,1925.788 110.295,1925.947 110.611,1926.261 z M 105.311,1924 L 105.964,1926.604 L 106.585,1924 H 108.228 L 107,1928.629 V 1932 H 105.173 L 105.182,1928.861 L 103.682,1924 H 105.311 z M 117,1938 C 117,1939.656 115.657,1941 114,1941 H 106 C 104.343,1941 103,1939.656 103,1938 V 1936 C 103,1934.344 104.343,1933 106,1933 H 114 C 115.657,1933 117,1934.344 117,1936 V 1938 z"
           id="path127" />
      </g>
      <g
         id="g129">
        <path
           inkscape:connector-curvature="0"
           d="M 114.027,1939.969 C 113.713,1939.969 113.463,1939.865 113.284,1939.66 C 113.102,1939.45 113.01,1939.154 113.01,1938.78 V 1936.91 C 113.01,1936.577 113.111,1936.303 113.31,1936.096 C 113.511,1935.887 113.765,1935.784 114.085,1935.784 C 114.409,1935.784 114.658,1935.88 114.827,1936.068 C 115,1936.257 115.087,1936.541 115.087,1936.91 V 1937.871 H 113.607 V 1938.756 C 113.607,1938.995 113.637,1939.161 113.697,1939.264 C 113.77,1939.38 113.886,1939.439 114.045,1939.439 C 114.207,1939.439 114.325,1939.389 114.396,1939.29 C 114.46,1939.2 114.491,1939.03 114.491,1938.757 V 1938.568 H 115.088 V 1938.782 C 115.088,1939.182 114.999,1939.484 114.823,1939.678 C 114.647,1939.873 114.388,1939.969 114.027,1939.969 z M 114.053,1936.314 C 113.858,1936.314 113.757,1936.399 113.706,1936.469 C 113.64,1936.563 113.607,1936.703 113.607,1936.902 V 1937.423 H 114.491 V 1936.902 C 114.491,1936.706 114.459,1936.565 114.393,1936.47 C 114.341,1936.399 114.241,1936.314 114.053,1936.314 z M 107.676,1939.916 C 107.53,1939.916 107.423,1939.868 107.351,1939.77 C 107.274,1939.664 107.235,1939.497 107.235,1939.271 V 1935.889 H 107.808 V 1938.983 C 107.808,1939.105 107.83,1939.195 107.877,1939.256 C 107.914,1939.305 107.985,1939.362 108.115,1939.362 C 108.193,1939.362 108.282,1939.328 108.387,1939.258 C 108.483,1939.193 108.571,1939.111 108.648,1939.014 L 108.669,1935.889 H 109.244 V 1939.855 H 108.67 V 1939.222 L 108.493,1939.431 C 108.357,1939.592 108.217,1939.714 108.075,1939.795 C 107.938,1939.875 107.803,1939.916 107.676,1939.916 z M 111.617,1939.909 C 111.483,1939.909 111.365,1939.882 111.257,1939.828 C 111.152,1939.774 111.055,1939.69 110.96,1939.573 L 110.782,1939.352 V 1939.855 H 110.2 V 1934.408 H 110.782 V 1936.406 L 110.959,1936.19 C 111.055,1936.074 111.158,1935.984 111.264,1935.923 C 111.364,1935.866 111.468,1935.837 111.571,1935.837 C 111.783,1935.837 111.941,1935.911 112.051,1936.062 C 112.167,1936.222 112.226,1936.464 112.226,1936.781 V 1939.093 C 112.226,1939.365 112.172,1939.573 112.064,1939.711 C 111.962,1939.844 111.816,1939.909 111.617,1939.909 z M 111.205,1936.3 C 111.136,1936.3 111.066,1936.317 110.998,1936.35 C 110.933,1936.383 110.87,1936.433 110.809,1936.498 L 110.782,1939.163 C 110.883,1939.31 110.953,1939.365 111.023,1939.398 C 111.091,1939.435 111.169,1939.454 111.252,1939.454 C 111.381,1939.454 111.478,1939.411 111.542,1939.325 C 111.601,1939.248 111.63,1939.135 111.63,1938.979 V 1936.828 C 111.63,1936.668 111.595,1936.54 111.526,1936.448 C 111.452,1936.352 111.342,1936.3 111.205,1936.3 z M 105.47,1939.855 V 1935.029 H 104.569 V 1934.408 H 107.045 V 1935.029 H 106.143 V 1939.855 H 105.47 z"
           id="path131" />
      </g>
    </g>
  </g>
</svg>
