<?xml version="1.0" encoding="utf-8"?>
<!-- Generator: Adobe Illustrator 16.0.0, SVG Export Plug-In . SVG Version: 6.00 Build 0)  -->
<!DOCTYPE svg PUBLIC "-//W3C//DTD SVG 1.1//EN" "http://www.w3.org/Graphics/SVG/1.1/DTD/svg11.dtd">
<svg version="1.1" id="Layer_1" xmlns="http://www.w3.org/2000/svg" xmlns:xlink="http://www.w3.org/1999/xlink" x="0px" y="0px"
	 width="27px" height="27px" viewBox="0 0 27 27" enable-background="new 0 0 27 27" xml:space="preserve">
<g>
	<path fill="#020202" d="M13.882,8.436c0,0.33,0.003,0.659,0.002,0.986C13.885,9.094,13.882,8.766,13.882,8.436
		c0-0.438,0.002-0.876,0-1.315C13.884,7.56,13.882,7.998,13.882,8.436z"/>
	<path fill="#020202" d="M18.975,12.152c-0.984-0.057-1.973-0.091-2.958-0.099c-1.786-0.017-3.576-0.017-5.36,0
		c-0.992,0.008-1.983,0.045-2.974,0.1c-0.956,0.054-1.826,0.838-1.95,1.788c-0.093,0.715-0.135,1.439-0.131,2.158
		c0.005,1.42,0.04,2.84,0.095,4.257c0.04,1.054,1.008,1.979,2.06,2.008c1.86,0.054,3.718,0.094,5.596,0.141
		c1.84-0.045,3.699-0.089,5.557-0.139c0.991-0.026,1.924-0.832,2.042-1.818c0.091-0.763,0.134-1.537,0.132-2.305
		c-0.005-1.328-0.056-2.657-0.09-3.985C20.967,13.165,20.071,12.214,18.975,12.152z M9.048,14.826c0,0.094,0,0.163,0,0.232
		c0,1.792,0,3.584,0,5.376c0,0.251-0.021,0.271-0.264,0.272c-0.251,0-0.505,0-0.756,0c-0.247-0.002-0.266-0.021-0.268-0.268
		c0-1.78,0-3.561,0-5.341c0-0.082,0-0.165,0-0.272c-0.298,0-0.579,0.002-0.861,0c-0.214,0-0.237-0.024-0.238-0.237
		c0-0.262,0.003-0.518-0.004-0.777c-0.001-0.145,0.06-0.209,0.206-0.209c1.028,0.001,2.054,0.001,3.085-0.001
		c0.146,0,0.201,0.067,0.196,0.212c-0.003,0.271-0.003,0.542,0,0.812c0.005,0.146-0.054,0.205-0.201,0.202
		C9.654,14.822,9.366,14.826,9.048,14.826z M12.623,20.709c-0.241-0.004-0.482-0.009-0.721,0c-0.174,0.008-0.264-0.054-0.25-0.236
		c0.003-0.034-0.003-0.069-0.003-0.069c-0.27,0.123-0.52,0.275-0.791,0.347c-0.46,0.119-0.824-0.142-0.91-0.608
		c-0.025-0.147-0.038-0.299-0.038-0.448c-0.004-1.342-0.002-2.683-0.002-4.023c0-0.244,0.021-0.264,0.27-0.266
		c0.221,0,0.444,0.006,0.67-0.002c0.167-0.005,0.232,0.06,0.23,0.234c-0.005,1.178-0.001,2.357-0.001,3.535
		c0,0.049-0.009,0.098,0.001,0.145c0.018,0.102,0.048,0.202,0.074,0.301c0.108-0.04,0.221-0.067,0.324-0.121
		c0.138-0.073,0.181-0.194,0.181-0.359c-0.007-1.153-0.005-2.31-0.005-3.465c0-0.239,0.027-0.268,0.27-0.268
		c0.216-0.002,0.433-0.002,0.65,0c0.229,0,0.255,0.03,0.255,0.261c0,1.51,0,3.021,0,4.528c0,0.103-0.003,0.205,0,0.308
		C12.833,20.646,12.768,20.712,12.623,20.709z M16.452,19.552c0,0.312-0.049,0.613-0.237,0.872
		c-0.272,0.373-0.881,0.454-1.343,0.185c-0.052-0.03-0.099-0.062-0.172-0.104c0,0.192-0.115,0.209-0.254,0.205
		c-0.233-0.004-0.471-0.004-0.706,0.003c-0.158,0.003-0.227-0.056-0.227-0.222c0.004-2.226,0.004-4.45,0-6.674
		c0-0.157,0.064-0.216,0.216-0.214c0.239,0.004,0.478,0,0.72,0.001c0.215,0.002,0.242,0.026,0.242,0.238c0,0.53,0,1.059,0,1.589
		c0,0.057,0,0.117,0,0.225c0.244-0.192,0.47-0.307,0.741-0.304c0.513,0.004,0.868,0.324,0.973,0.886
		c0.029,0.166,0.043,0.334,0.045,0.502C16.453,17.674,16.452,18.612,16.452,19.552z M18.157,19.416
		c0.011,0.217,0.109,0.311,0.279,0.311c0.192,0,0.267-0.078,0.287-0.311c0.015-0.186,0.021-0.372,0.021-0.56
		c0-0.124,0.043-0.192,0.173-0.192c0.285,0,0.566-0.007,0.852,0.006c0.056,0.002,0.158,0.076,0.16,0.123
		c0.016,0.513,0.02,1.023-0.281,1.478c-0.204,0.313-0.509,0.479-0.862,0.534c-0.518,0.08-1.01,0.03-1.404-0.374
		c-0.275-0.283-0.418-0.639-0.427-1.024c-0.019-0.879-0.027-1.757-0.002-2.635c0.025-1.001,0.872-1.652,1.851-1.462
		c0.653,0.123,1.082,0.608,1.111,1.28c0.021,0.493,0.017,0.987,0.026,1.479c0.002,0.162-0.061,0.227-0.225,0.225
		c-0.488-0.007-0.976-0.002-1.462-0.002c-0.029,0-0.06,0.004-0.101,0.007C18.154,18.682,18.146,19.049,18.157,19.416z"/>
	<path fill="#020202" d="M9.792,8.06C9.83,8.188,9.85,8.329,9.85,8.466c0.005,0.763,0.002,1.527,0.002,2.291
		c0,0.071,0,0.141,0,0.214c0.365,0,0.702,0,1.055,0c0-0.079,0-0.146,0-0.211c0-0.817-0.002-1.635,0.003-2.454
		c0-0.118,0.018-0.24,0.052-0.354c0.363-1.194,0.733-2.387,1.098-3.581c0.023-0.072,0.043-0.147,0.066-0.248
		c-0.318,0-0.611,0.005-0.902-0.002c-0.122-0.003-0.169,0.04-0.192,0.154c-0.118,0.51-0.241,1.016-0.363,1.526
		c-0.084,0.354-0.172,0.709-0.259,1.064c-0.018,0-0.039,0.002-0.057,0.003c-0.02-0.055-0.038-0.106-0.05-0.161
		c-0.208-0.81-0.406-1.619-0.617-2.428c-0.016-0.058-0.07-0.148-0.11-0.15C9.258,4.117,8.942,4.123,8.603,4.123
		C8.624,4.209,8.638,4.273,8.66,4.335C9.038,5.578,9.418,6.818,9.792,8.06z"/>
	<path fill="#020202" d="M12.128,9.9c0.007,0.232,0.11,0.486,0.241,0.681c0.331,0.492,0.968,0.648,1.621,0.447
		c0.488-0.151,0.815-0.605,0.826-1.188c0.015-0.463,0.002-0.927,0.002-1.389c0.002,0,0.004,0,0.005,0c0-0.446,0-0.891,0-1.336
		c0-0.047-0.003-0.095-0.007-0.144c-0.016-0.251-0.095-0.481-0.253-0.68C14.186,5.82,13.494,5.66,12.89,5.904
		c-0.481,0.195-0.764,0.55-0.771,1.073C12.106,7.951,12.103,8.925,12.128,9.9z M13.059,7.128c0.003-0.356,0.23-0.537,0.55-0.44
		c0.183,0.057,0.273,0.189,0.275,0.431c0.001,0.44,0,0.878,0,1.315c0,0.33,0.003,0.659,0.001,0.987c0,0.11-0.001,0.22-0.003,0.329
		c-0.004,0.325-0.173,0.5-0.448,0.488c-0.187-0.01-0.314-0.118-0.35-0.302c-0.013-0.071-0.022-0.144-0.022-0.214
		C13.058,8.86,13.056,7.994,13.059,7.128z"/>
	<path fill="#020202" d="M15.693,10.569c0.086,0.365,0.367,0.549,0.73,0.468c0.172-0.039,0.343-0.114,0.492-0.206
		c0.163-0.102,0.301-0.243,0.478-0.386c0,0.194,0,0.359,0,0.529c0.318,0,0.615,0,0.913,0c0-1.685,0-3.359,0-5.04
		c-0.307,0-0.598,0-0.916,0c0,0.096,0,0.167,0,0.238c0,1.107-0.009,2.214,0.007,3.322c0.003,0.251-0.092,0.408-0.284,0.534
		c-0.122,0.082-0.25,0.162-0.4,0.093c-0.154-0.072-0.13-0.23-0.139-0.365c-0.003-0.054-0.002-0.108-0.002-0.163
		c0-1.138,0-2.275,0-3.412c0-0.077,0-0.153,0-0.242c-0.318,0-0.612,0-0.916,0c-0.004,0.067-0.012,0.122-0.012,0.173
		c0,1.331-0.002,2.66,0.002,3.991C15.646,10.261,15.66,10.419,15.693,10.569z"/>
	<path fill="#020202" d="M15.232,16.596c-0.037-0.142-0.121-0.235-0.284-0.216c-0.166,0.018-0.253,0.119-0.253,0.286
		c0,0.457,0,0.914,0,1.371c0,0.456,0,0.915,0,1.371c0,0.203,0.127,0.33,0.329,0.33c0.168,0.002,0.218-0.067,0.229-0.312
		c0.002-0.031,0.002-0.061,0.002-0.091c0-0.83,0-1.658-0.002-2.488C15.253,16.761,15.251,16.675,15.232,16.596z"/>
	<path fill="#020202" d="M18.713,16.622c-0.015-0.144-0.11-0.22-0.257-0.22c-0.139-0.002-0.263,0.037-0.283,0.189
		c-0.026,0.222-0.027,0.446-0.041,0.675c0.224,0,0.405,0,0.624,0C18.743,17.038,18.736,16.829,18.713,16.622z"/>
</g>
</svg>
